<svg xmlns="http://www.w3.org/2000/svg" viewBox="0 0 23.97 25.29"><g id="Layer_2" data-name="Layer 2"><g id="Layer_1-2" data-name="Layer 1"><path d="M15.59,20.23l-.6-.8-4,3a1.48,1.48,0,0,0-.8-.24,1.53,1.53,0,0,0-1.44,1H4.1V19.33h-1v4.93H8.72a1.53,1.53,0,0,0,3-.5,1.56,1.56,0,0,0-.1-.53Zm-5.43,4.06a.54.54,0,0,1,0-1.07.54.54,0,0,1,0,1.07Z" fill="#0d90e8"/><polygon points="4.1 18.24 4.1 14.55 5.76 14.55 5.76 13.55 1.43 13.55 1.43 14.55 3.1 14.55 3.1 18.24 4.1 18.24" fill="#0d90e8"/><path d="M17.37,3.38a3.86,3.86,0,0,0-6.58-2.25A3.81,3.81,0,0,0,9.71,3.38H3.1v8.2H0v1H7.19v-1H4.1V4.38H9.71a3.79,3.79,0,0,0,1.08,2.24,3.87,3.87,0,0,0,6.58-2.24H23v7.68h1V3.38ZM15.18,1.52,13.54,3.17,11.89,1.52a2.86,2.86,0,0,1,3.29,0Zm-4,.71,1.65,1.65L11.18,5.52A2.87,2.87,0,0,1,11.18,2.23Zm.71,4,1.65-1.65,1.64,1.65A2.87,2.87,0,0,1,11.89,6.23Zm4-.71L14.24,3.88l1.65-1.65A2.87,2.87,0,0,1,15.89,5.52Z" fill="#0d90e8"/><path d="M23,23.26H18.35a1.53,1.53,0,1,0,0,1H24V13.16H23Zm-6.06,1a.54.54,0,1,1,.53-.53A.53.53,0,0,1,16.91,24.29Z" fill="#0d90e8"/></g></g></svg>