<svg data-name="motor-kinetic" xmlns="http://www.w3.org/2000/svg" viewBox="0 0 142.08 44.57"><g class="js-rod"><path class="rod-midtone" d="M137.25 14.37v5.62h-26.76v-5.92h-4.08v10h34.92v-9.7h-4.08z"/><path class="outline" d="M142.08 24.82h-36.42v-11.5h5.58v5.92h25.26v-5.63h5.58zm-34.92-1.5h33.42v-8.21H138v5.63h-28.26v-5.92h-2.58z"/></g><g class="js-base"><path class="rod-midtone" d="M29.39 3.37h51.79V41.2H29.39z"/><path class="outline" d="M81.93 42H28.64V2.62h53.29zm-51.79-1.5h50.29V4.12H30.14z"/><path class="base-midtone" d="M10.09 5.47h19.3V38h-19.3z"/><path class="outline" d="M30.14 38.75H9.34v-34h20.8zm-19.3-1.5h17.8v-31h-17.8z"/><path class="base-midtone" d="M81.18.75h33.04v43.07H81.18z"/><path class="outline" d="M115 44.57H80.43V0H115zm-33-1.5h31.54V1.5H81.93z"/><path class="rod-midtone" d="M.75 29.12h9.34v2.78H.75z"/><path class="outline" d="M10.84 32.64H0v-4.27h10.84zm-9.34-1.5h7.84v-1.27H1.5z"/><path class="rod-midtone" d="M.75 12.68h9.34v2.78H.75z"/><path class="outline" d="M10.84 16.2H0v-4.27h10.84zM1.5 14.7h7.84v-1.27H1.5z"/><path class="rod-midtone" d="M114.22 15.6h4.67v12.26h-4.67z"/><path class="outline" d="M119.64 28.61h-6.17V14.85h6.17zm-4.64-1.5h3.17V16.35H115z"/><path class="rod-hlight" d="M115.23 16.78h2.64v.74h-2.64z"/><path class="rod-shadow" d="M115.23 25.61h2.64v1.22h-2.64z"/><path class="rod-hlight" d="M30.91 5.36h48.53v1.39H30.91zm0 2.22h48.53v2.33H30.91z"/><path class="base-hlight" d="M82.78 2.47h29.96v.9H82.78zm0 1.59h29.96v2H82.78z"/><path class="base-shadow" d="M82.78 38.52h29.96v3.58H82.78z"/><path class="base-hlight" d="M11.35 6.76H28.1v.58H11.35zm0 .98H28.1v1.14H11.35z"/><path class="base-shadow" d="M11.35 34.56H28.1v2.17H11.35z"/><path class="rod-shadow" d="M31.02 35.23h48.53v3.89H31.02z"/></g></svg>