<svg data-name="switch-kinetic" xmlns="http://www.w3.org/2000/svg" viewBox="0 0 69.93 141.92"><g class="js-rod"><path class="rod-midtone" d="M35 92.84c-1.91 0-3.46-6.2-3.46-13.84L21.12 14.59A13.84 13.84 0 0 1 35 .75a13.85 13.85 0 0 1 13.81 13.84L38.42 79c0 7.64-1.54 13.84-3.42 13.84z"/><path class="rod-shadow" d="M43.41 16.17a.88.88 0 0 1 0 .16l-8.63 76 11.4-75.9v-.17a13.5 13.5 0 0 0-.18-1.89z"/><path class="rod-hlight" d="M24.32 16.74l7.98 59.21-6.08-58.04-1.9-1.17z"/><path class="outline" d="M35 93.59c-2.88 0-4.2-7.52-4.21-14.53L20.37 14.59a14.6 14.6 0 0 1 29.19 0v.12L39.17 79.06c0 7.01-1.32 14.53-4.17 14.53zM21.87 14.53L32.25 79c0 8.47 1.79 13.09 2.71 13.09s2.71-4.62 2.71-13.09v-.12l10.39-64.35a13.1 13.1 0 0 0-26.19 0z"/></g><g class="js-base"><path class="base-midtone" d="M.75 67.02h68.43v43.77H.75z"/><path class="outline" d="M69.93 111.54H0V66.27h69.93zM1.5 110h66.93V67.77H1.5z"/><path class="rod-shadow" d="M16.85 62.3h36.23v4.72H16.85z"/><path class="outline" d="M53.83 67.77H16.1v-6.22h37.73zm-36.23-1.5h34.73v-3.22H17.6z"/><path class="rod-shadow" d="M22.34 47.54h25.25v14.73H22.34z"/><path class="outline" d="M48.34 63H21.59V46.79h26.75zm-25.25-1.5h23.75V48.29H23.09z"/><path class="rod-shadow" d="M5.04 108.9h4v32.08h-4z"/><path class="outline" d="M9.79 141.73h-5.5v-33.58h5.5zm-4-1.5h2.5v-30.58h-2.5z"/><path class="rod-shadow" d="M60.89 108.9h4v32.08h-4z"/><path class="outline" d="M65.64 141.73h-5.5v-33.58h5.5zm-4-1.5h2.5v-30.58h-2.5z"/><path class="rod-shadow" d="M50.02 49.3v-2.12L19.9 50.41v2.12l30.12-3.23z"/><path class="outline" d="M19.15 53.36v-3.63l31.63-3.38V50zm1.5-2.28v.61l28.63-3.06V48z"/><path class="rod-shadow" d="M19.9 56.77l30.12-3.22v-2.13L19.9 54.65v2.12z"/><path class="outline" d="M19.15 57.6V54l31.63-3.38v3.63zm1.5-2.28v.61l28.63-3.06v-.61z"/><path class="rod-shadow" d="M19.9 61.01l30.12-3.22v-2.13L19.9 58.89v2.12z"/><path class="outline" d="M19.15 61.84v-3.62l31.63-3.39v3.63zm1.5-2.28v.62l28.63-3.07v-.61z"/><path class="rod-shadow" d="M41.38 116.07v-7.17H28.55v7.17h-2.64v20.76l4.53 4.34h9.05l4.51-4.34v-20.76zM35 131.9a3.38 3.38 0 1 1 3.38-3.37A3.37 3.37 0 0 1 35 131.9z"/><path class="outline" d="M39.79 141.92h-9.66l-5-4.77v-21.83h2.67v-7.17h14.33v7.17h2.64v21.83zm-9-1.5h8.45l4.08-3.91v-19.69h-2.69v-7.17H29.3v7.17h-2.64v19.69z"/><path class="outline" d="M35 132.67a4.15 4.15 0 1 1 4.15-4.14 4.15 4.15 0 0 1-4.15 4.14zm0-6.79a2.65 2.65 0 1 0 2.65 2.65 2.65 2.65 0 0 0-2.65-2.65z"/></g></svg>