<svg data-name="tv_lift-kinetic" xmlns="http://www.w3.org/2000/svg" viewBox="0 0 132.67 141.5"><g class="js-base"><path class="base-midtone" d="M54.31 136.76V37.55h24.43v99.21z"/><path class="outline" d="M77.99 37.55v98.46H55.06V37.55h-1.5v99.96h25.93V37.55h-1.5z"/><path class="base-midtone" d="M41.69 136.76h49.29v3.99H41.69z"/><path class="outline" d="M91.73 141.5H40.94V136h50.79zM42.44 140h47.79v-2.49H42.44z"/></g><g class="js-rod"><path class="rod-hlight" d="M49.92.75h32.84v111.26H49.92z"/><path class="outline" d="M83.5 112.76H49.17V0H83.5zm-32.83-1.5H82V1.5H50.67z"/><path class="rod-shadow" d="M75.27 2.23h3.28V109.6h-3.28zm-21.1.13h3.28v107.37h-3.28z"/><path class="base-midtone" d="M.75 6.37v8.08h131.17V6.37zm9.94 4.87a.83.83 0 1 1 .83-.83.83.83 0 0 1-.83.83zm8 0a.84.84 0 0 1 0-1.68.84.84 0 0 1 0 1.68zm95.19 0a.83.83 0 1 1 .83-.83.83.83 0 0 1-.78.83zm8 0a.83.83 0 1 1 .83-.83.83.83 0 0 1-.71.83z"/><path class="outline" d="M132.67 15.2H0V5.62h132.67zM1.5 13.7h129.67V7.12H1.5z"/><path class="outline" d="M10.69 12.74A2.33 2.33 0 1 1 13 10.41a2.33 2.33 0 0 1-2.31 2.33zm0-3.16a.83.83 0 1 0 .83.83.83.83 0 0 0-.83-.83zm8.05 3.16a2.33 2.33 0 1 1 2.33-2.33 2.33 2.33 0 0 1-2.33 2.33zm0-3.16a.83.83 0 1 0 .83.83.83.83 0 0 0-.83-.83z"/><circle class="rod-midtone" cx="55.81" cy="10.41" r="1.58"/><path class="outline" d="M55.81 12.74a2.33 2.33 0 1 1 2.33-2.33 2.33 2.33 0 0 1-2.33 2.33zm0-3.16a.83.83 0 1 0 .83.83.83.83 0 0 0-.83-.83z"/><circle class="rod-midtone" cx="76.91" cy="10.41" r="1.58"/><path class="outline" d="M76.91 12.74a2.33 2.33 0 1 1 2.33-2.33 2.33 2.33 0 0 1-2.33 2.33zm0-3.16a.83.83 0 1 0 .83.83.83.83 0 0 0-.83-.83z"/><circle class="rod-midtone" cx="76.91" cy="19.72" r=".8"/><circle class="rod-midtone" cx="76.91" cy="29.04" r=".8"/><circle class="rod-midtone" cx="76.88" cy="38.35" r=".8"/><circle class="rod-midtone" cx="76.88" cy="47.66" r=".8"/><circle class="rod-midtone" cx="55.8" cy="19.72" r=".8"/><circle class="rod-midtone" cx="55.8" cy="29.04" r=".8"/><circle class="rod-midtone" cx="55.77" cy="38.35" r=".8"/><circle class="rod-midtone" cx="55.77" cy="47.66" r=".8"/><circle class="rod-midtone" cx="76.91" cy="68.82" r=".8"/><circle class="rod-midtone" cx="76.91" cy="78.14" r=".8"/><circle class="rod-midtone" cx="76.88" cy="87.45" r=".8"/><circle class="rod-midtone" cx="76.88" cy="96.76" r=".8"/><circle class="rod-midtone" cx="55.79" cy="68.82" r=".8"/><circle class="rod-midtone" cx="55.79" cy="78.14" r=".8"/><circle class="rod-midtone" cx="55.76" cy="87.45" r=".8"/><circle class="rod-midtone" cx="55.76" cy="96.76" r=".8"/><path class="base-midtone" d="M.75 55.11v8.09h131.17v-8.09zM11.24 60a.83.83 0 1 1 0-1.66.83.83 0 1 1 0 1.66zm8 0a.83.83 0 1 1 .84-.83.83.83 0 0 1-.79.83zm94.64 0a.83.83 0 1 1 .83-.83.83.83 0 0 1-.78.83zm8 0a.83.83 0 1 1 .83-.83.83.83 0 0 1-.71.83z"/><circle class="rod-midtone" cx="55.78" cy="59.16" r="1.58"/><path class="outline" d="M55.78 61.49a2.33 2.33 0 1 1 2.33-2.33 2.34 2.34 0 0 1-2.33 2.33zm0-3.16a.83.83 0 1 0 .83.83.83.83 0 0 0-.83-.83z"/><circle class="rod-midtone" cx="76.89" cy="59.16" r="1.58"/><path class="outline" d="M76.89 61.49a2.33 2.33 0 1 1 2.33-2.33 2.33 2.33 0 0 1-2.33 2.33zm0-3.16a.83.83 0 1 0 .83.83.83.83 0 0 0-.83-.83zm-65.65 3.16a2.33 2.33 0 1 1 2.34-2.33 2.34 2.34 0 0 1-2.34 2.33zm0-3.16a.83.83 0 1 0 0 1.66.83.83 0 1 0 0-1.66zm8.05 3.16a2.33 2.33 0 1 1 2.34-2.33 2.34 2.34 0 0 1-2.34 2.33zm0-3.16a.83.83 0 0 0 0 1.66.83.83 0 1 0 0-1.66zM122 12.74a2.33 2.33 0 1 1 2.33-2.33 2.33 2.33 0 0 1-2.33 2.33zm0-3.16a.83.83 0 1 0 .83.83.83.83 0 0 0-.83-.83zm-8.07 3.16a2.33 2.33 0 1 1 2.33-2.33 2.33 2.33 0 0 1-2.33 2.33zm0-3.16a.83.83 0 1 0 .83.83.83.83 0 0 0-.83-.83zM122 61.49a2.33 2.33 0 1 1 2.33-2.33 2.34 2.34 0 0 1-2.33 2.33zm0-3.16a.83.83 0 1 0 .83.83.83.83 0 0 0-.83-.83zm-8.07 3.16a2.33 2.33 0 1 1 2.33-2.33 2.34 2.34 0 0 1-2.33 2.33zm0-3.16a.83.83 0 1 0 .83.83.83.83 0 0 0-.83-.83z"/><path class="outline" d="M132.67 64H0v-9.64h132.67zM1.5 62.45h129.67v-6.59H1.5z"/></g></svg>