<svg data-name="controller-kinetic" xmlns="http://www.w3.org/2000/svg" viewBox="0 0 149.86 101.59"><g class="js-base"><path class="rod-shadow" d="M142.09 22.43V.75H15.41v100.09h126.68v-7.56l7-4.21V26.64zm0 65.84a3.84 3.84 0 1 1 3.84-3.84 3.84 3.84 0 0 1-3.84 3.84zm0-53.28a3.84 3.84 0 1 1 3.84-3.84 3.84 3.84 0 0 1-3.84 3.85z"/><path class="outline" d="M142.84 101.59H14.66V0h128.18v22l7 4.2v63.3l-7 4.2zm-126.68-1.5h125.18v-7.24l7-4.2V27.06l-7-4.2V1.5H16.16zM142.09 89a4.59 4.59 0 1 1 4.59-4.59 4.6 4.6 0 0 1-4.59 4.59zm0-7.68a3.09 3.09 0 1 0 3.09 3.09 3.09 3.09 0 0 0-3.09-3.07zm0-45.6a4.59 4.59 0 1 1 4.59-4.59 4.6 4.6 0 0 1-4.59 4.61zm0-7.68a3.09 3.09 0 1 0 3.09 3.09 3.1 3.1 0 0 0-3.09-3.07z"/></g><g class="js-wires"><path class="stroke-rod-midtone" d="M62.63 65.16h4.92m-4.92 2.94h4.92m-4.92 2.92h4.92m-4.92 2.91h4.92m-25.01 21.7h16.23m-29.87-.01h5.34m-5.34-2.93h29.87M28.9 89.77h7.71l6.43-3.63m40.94-5.49v10.18m-2.94-10.18v10.18m-2.92-10.18v10.18m-2.91-10.18v10.18m20.51-10.18v10.18m-2.93-10.18v10.18m-2.92-10.18v10.18m-2.92-10.18v10.18m33.76-10.18v10.18m-2.93-10.18v10.18m-2.92-10.18v10.18m-2.92-10.18v10.18m20.52-10.18v10.18m-2.94-10.18v10.18m-2.92-10.18v10.18m-2.91-10.18v10.18m-18.92-69.2h3.62l6.28 3.89m-9.85-6.83h12.96l6.88-8.82m-59.18 16.1l4.27-4.36h2.83m-6.7-4.96h6.86m-10.23 1.02v7.76m-4.12-7.52l1.2 3.26v4.26m-2.94-7.2v7.2m-7.5-5.74l4.72 6.18m-4.04-11.26h5.23M44.47 27.34h2.3l2.72 3.28M32.8 36.18h2.97m-4.19-8.84h4.45m-1.44-16.79v4.06h3.42m-6.25 23.66l2.41.84h1.6m45.39-22.46h10.16l5.07 2.08M70.3 30.27h5.86m-5.86 2.97h5.86m-5.86 2.92h5.88m-5.88 2.93h5.87m-5.87 2.93h5.87m-30.76-5.84h3.47m-16.31-5.56h10.97l2.21 2.62h3.13m32.44-11.63h14.76M45.41 42.04h3.53m-19.71 7.65v-7.74l6.54.08m9.64-2.92h3.47M34.91 3.73l3.39 2.53m.21 62.97l7.15-4.07h5.51m-12.66 7.01l7.15-4.07h5.51m-12.66 6.99l7.15-4.07h5.51m-12.66 6.99l7.15-4.07h5.51m14.29-27.09v1.98l14.83 15.32m-17.8-17.3v1.98l14.82 15.31M59.56 46.85v1.98l14.83 15.62m-17.75-17.6v1.98L71.46 64.4M53.71 46.85v1.98l14.83 15.51m16.38-34.07h19.05l30.44 26.67"/><path class="stroke-rod-midtone" d="M84.92 33.23h19.05l30.44 26.66"/><path class="stroke-rod-midtone" d="M84.92 36.18h19.05l30.44 26.67"/><path class="stroke-rod-midtone" d="M84.92 39.1h19.05l30.44 26.67"/><path class="stroke-rod-midtone" d="M84.92 42.01h19.05l30.44 26.67"/></g><g class="js-base-inputs"><path class="stroke-rod-hlight" d="M60.03 73.93h2.6m-2.6-2.91h2.6m-2.6-2.93h2.6m-2.6-2.93h2.6m33.01-12.24h2.61m-2.61-2.93h2.61m-2.61-2.92h2.61m4.4 5.85h2.61m-2.61-2.93h2.61m-2.61-2.93h2.61"/><path class="base-midtone" d="M98.25 45.49h4.43v8.99h-4.43z"/><path class="stroke-rod-hlight" d="M102.21 21.63h2.61m-2.61-2.94h2.61m-62.65 8.65h2.6m-8.74 0h2.61m1.5 68.28h2.61m-8.74 0h2.6m42.11-78.97h2.6m-8.73 0h2.6m50.65 8.78h3.43M27.38 56.27h2.61m-2.61-2.91h2.61"/><path class="rod-hlight" d="M21.24 51.16h2.61v4.36h-2.61z"/><path class="base-midtone" d="M137.99 39.64h8.2v11.81h-8.2z"/><circle class="rod-midtone" cx="140.34" cy="42.07" r="1.17"/><circle class="rod-midtone" cx="140.34" cy="45.59" r="1.17"/><circle class="rod-midtone" cx="140.34" cy="49.11" r="1.17"/><circle class="rod-midtone" cx="143.85" cy="42.07" r="1.17"/><circle class="rod-midtone" cx="143.85" cy="45.58" r="1.17"/><circle class="rod-midtone" cx="143.85" cy="49.11" r="1.17"/><circle class="rod-hlight" cx="60.51" cy="82.92" r="5.45"/><path class="rod-midtone" d="M56.46 84.75a4.44 4.44 0 0 0 8.11 0z"/><path class="stroke-rod-hlight" d="M96.08 21.63h2.61m-2.61-2.94h2.61m-16.4 14.55h2.61m-2.61-2.97h2.61m-8.74 2.97h2.6m-2.6-2.97h2.61m3.54 8.83h2.61m-2.6-2.92h2.6m-8.74 2.92h2.6m-2.6-2.92h2.61m-35.98 5.85h2.6m-2.6-5.85h2.6m-2.6 2.93h2.6m-9.64 2.93h2.61m-2.61-2.93h2.61m-2.61-2.93h2.61"/><path class="rod-hlight" d="M.75 13.67h31.29v24.61H.75z"/><path class="outline" d="M32.79 39H0V12.92h32.79zM1.5 37.52h29.79v-23.1H1.5z"/><path class="stroke-rod-hlight" d="M78.72 21.61h2.6m-8.73 0h2.6"/><path class="base-shadow" d="M60.26 92.29h3.73v3.73h-3.73zm5.23 0h3.73v3.73h-3.73zm5.23 0h3.73v3.73h-3.73zm5.24 0h3.73v3.73h-3.73zm5.23 0h3.73v3.73h-3.73zm5.23 0h3.73v3.73h-3.73zm5.23 0h3.73v3.73h-3.73zm5.24 0h3.73v3.73h-3.73z"/><path class="outline" d="M96.89 90.79H58.76v6.73h43.36v-6.73zm3.73 5.21h-3.73v-3.71h3.73zm-5.23 0h-3.74v-3.71h3.74zm-5.24 0h-3.73v-3.71h3.73zm-5.23 0h-3.73v-3.71h3.73zm-5.23 0H76v-3.71h3.73zm-5.23 0h-3.74v-3.71h3.74zm-5.24 0h-3.73v-3.71h3.73zM64 96h-3.74v-3.71H64z"/><path class="base-shadow" d="M107.37 92.29h3.73v3.73h-3.73zm5.24 0h3.73v3.73h-3.73zm5.23 0h3.73v3.73h-3.73zm5.23 0h3.73v3.73h-3.73zm5.23 0h3.73v3.73h-3.73zm5.24 0h3.73v3.73h-3.73z"/><path class="outline" d="M133.54 90.79h-27.67v6.73h32.9v-6.73zm3.73 5.21h-3.73v-3.71h3.73zM132 96h-3.7v-3.71h3.7zm-5.24 0h-3.73v-3.71h3.73zm-5.23 0h-3.73v-3.71h3.73zm-5.23 0h-3.73v-3.71h3.73zm-5.23 0h-3.74v-3.71h3.74z"/><rect class="rod-hlight" x="33.58" y="49.99" width="19.25" height="6.68" rx="3.34"/><path class="rod-midtone" d="M34.73 54.12a2.33 2.33 0 0 0 2.19 1.54H49.5a2.33 2.33 0 0 0 2.19-1.54z"/><path class="base-shadow" d="M96.91 5.14h3.73v3.73h-3.73zm5.23 0h3.73v3.73h-3.73zm5.23 0h3.73v3.73h-3.73zm5.24 0h3.73v3.73h-3.73zm5.23 0h3.73v3.73h-3.73zm5.23 0h3.73v3.73h-3.73zm5.23 0h3.73v3.73h-3.73zm5.24 0h3.73v3.73h-3.73z"/><path class="outline" d="M133.54 3.64H95.41v6.73h43.36V3.64zm3.73 5.23h-3.73V5.14h3.73zm-5.23 0h-3.74V5.14h3.7zm-5.24 0h-3.73V5.14h3.73zm-5.23 0h-3.73V5.14h3.73zm-5.23 0h-3.73V5.14h3.73zm-5.23 0h-3.74V5.14h3.74zm-5.24 0h-3.73V5.14h3.73zm-5.23 0h-3.73V5.14h3.73z"/><path class="stroke-rod-hlight" d="M19.29 95.63h2.6m-2.6-2.94h2.6m-2.6-2.92h2.6m4.41 5.85h2.6m-2.6-2.93h2.6m-2.6-2.93h2.6"/><circle class="rod-hlight" cx="47.26" cy="82.92" r="5.45"/><path class="rod-midtone" d="M43.21 84.75a4.44 4.44 0 0 0 8.11 0z"/><path class="stroke-rod-hlight" d="M114.29 25.43h3.43M32.74 9.8h2.64m-16.66 0h2.64m-2.64-2.98h2.64m-2.64-2.96h2.64"/><path class="rod-hlight" d="M21.36 1.51h11.37v11.37H21.36z"/><path class="stroke-rod-hlight" d="M32.74 3.86h2.64"/><path class="base-shadow" d="M39.33 5.14h3.73v3.73h-3.73zm5.23 0h3.73v3.73h-3.73zm5.23 0h3.73v3.73h-3.73zm5.23 0h3.73v3.73h-3.73zm5.24 0h3.73v3.73h-3.73zm5.23 0h3.73v3.73h-3.73zm5.23 0h3.73v3.73h-3.73zm5.24 0h3.73v3.73h-3.73zm5.23 0h3.73v3.73h-3.73zm5.23 0h3.73v3.73h-3.73z"/><path class="outline" d="M86.42 3.64H37.83v6.73h53.82V3.64zm3.73 5.23h-3.73V5.14h3.73zm-5.23 0h-3.73V5.14h3.73zm-5.23 0H76V5.14h3.73zm-5.23 0h-3.74V5.14h3.74zm-5.24 0h-3.73V5.14h3.73zm-5.22 0h-3.74V5.14H64zm-5.23 0H55V5.14h3.74zm-5.24 0h-3.74V5.14h3.73zm-5.23 0h-3.74V5.14h3.73zm-5.23 0h-3.74V5.14h3.73z"/><path class="base-midtone" d="M38.01 20.46v-8.2h11.81v8.2z"/><circle class="rod-midtone" cx="40.45" cy="18.12" r="1.17"/><circle class="rod-midtone" cx="43.96" cy="18.12" r="1.17"/><circle class="rod-midtone" cx="47.48" cy="18.12" r="1.17"/><circle class="rod-midtone" cx="40.44" cy="14.61" r="1.17"/><circle class="rod-midtone" cx="43.95" cy="14.61" r="1.17"/><circle class="rod-midtone" cx="47.48" cy="14.61" r="1.17"/><circle class="stroke-rod-hlight" cx="57.04" cy="15.78" r="2.02"/><circle class="stroke-rod-hlight" cx="63.71" cy="15.78" r="2.02"/><circle class="base-midtone" cx="27.05" cy="7.2" r="3.73"/><path class="base-midtone" d="M117.72 23.4h8.13v4.06h-8.13zm-19.03-6.89h3.53v7.3h-3.53zm-23.5 3.52h3.53v3.16h-3.53zm0-4.96h3.53v3.16h-3.53zm3.58 14.03h3.53v5.38h-3.53zm.02 5.91h3.53v5.38h-3.53z"/><path class="stroke-rod-hlight" d="M82.31 42.02h2.6m-8.74 0h2.61"/><path class="base-midtone" d="M78.78 40.84h3.53v2.36h-3.53z"/><path class="stroke-rod-hlight" d="M53.74 44.24v2.61m2.91-2.61v2.61m2.94-2.61v2.61m2.92-2.61v2.61m2.97-2.61v2.61M53.74 25.43v2.61m2.91-2.61v2.61m2.94-2.61v2.61m2.92-2.61v2.61m2.97-2.61v2.61m-16.6 13.97h2.6m-2.6-2.91h2.6m-2.6-2.94h2.6m-2.6-2.92h2.6m-2.6-2.97h2.6m16.21 11.74h2.61m-2.61-2.91h2.61m-2.61-2.94h2.61m-2.61-2.92h2.61m-2.61-2.97h2.61"/><path class="base-midtone" d="M51.48 28.04h16.21v16.21H51.48zm-13.1 6.07h4.43v9.99h-4.43zm.26-7.95h3.53v2.36h-3.53zM21.89 88.2h4.43v8.99h-4.43zm14.72 6.24h3.53v2.36h-3.53z"/><path class="stroke-rod-hlight" d="M27.38 50.42h2.61"/><path class="base-midtone" d="M23.86 49.63h3.53v7.4h-3.53z"/><path class="stroke-rod-hlight" d="M51.17 73.93h2.6m-2.6-2.91h2.6m-2.6-2.93h2.6m-2.6-2.93h2.6"/><path class="rod-midtone" d="M8.88 59.84h6.37v26.1H8.88z"/><path class="outline" d="M16 86.69H8.13v-27.6H16zm-6.37-1.5h4.87v-24.6H9.63z"/><path class="rod-midtone" d="M15.25 62.86h22.88v20.06H15.25z"/><path class="outline" d="M38.88 83.67H14.5V62.11h24.38zM16 82.17h21.38V63.61H16z"/><path class="rod-shadow" d="M17.67 77.08h17.25v3.79H17.67z"/><path class="rod-hlight" d="M17.67 64.97h17.25v1.33H17.67zm0 2.36h17.25v2.92H17.67z"/><path class="base-midtone" d="M53.77 62.95h6.25v13.2h-6.25z"/><path class="base-shadow" d="M68.31 57.13h69.87v22.78H68.31z"/><path class="outline" d="M138.93 80.66H67.56V56.38h71.37zm-69.87-1.5h68.37V57.88H69.06z"/><path class="base-hlight" d="M70.55 60.05h4.07v2.19h-4.07zm5.57 0h4.07v2.19h-4.07zm5.59 0h4.07v2.19h-4.07zm5.57 0h4.07v2.19h-4.07zm5.57 0h4.07v2.19h-4.07zm22.29 0h4.07v2.19h-4.07zm5.57 0h4.07v2.19h-4.07zm5.59 0h4.07v2.19h-4.07zm5.57 0h4.07v2.19h-4.07zm-33.45 0h4.07v2.19h-4.07zm5.59 0h4.07v2.19h-4.07zm5.56 0h4.07v2.19h-4.07zM70.55 74.31h4.07v2.19h-4.07zm5.57 0h4.07v2.19h-4.07zm5.59 0h4.07v2.19h-4.07zm5.57 0h4.07v2.19h-4.07zm5.57 0h4.07v2.19h-4.07zm22.29 0h4.07v2.19h-4.07zm5.57 0h4.07v2.19h-4.07zm5.59 0h4.07v2.19h-4.07zm5.57 0h4.07v2.19h-4.07zm-33.45 0h4.07v2.19h-4.07zm5.59 0h4.07v2.19h-4.07zm5.56 0h4.07v2.19h-4.07z"/><path class="rod-hlight" d="M131.59 27.17a1.36 1.36 0 0 1-.54-.55 1.7 1.7 0 0 1-.19-.83v-1.2a1.7 1.7 0 0 1 .19-.83 1.36 1.36 0 0 1 .54-.55 1.58 1.58 0 0 1 .8-.19 1.6 1.6 0 0 1 .8.19 1.34 1.34 0 0 1 .53.55 1.7 1.7 0 0 1 .19.83v1.2a1.7 1.7 0 0 1-.19.83 1.34 1.34 0 0 1-.53.55 1.6 1.6 0 0 1-.8.19 1.58 1.58 0 0 1-.8-.19zm1.22-.61a.68.68 0 0 0 .28-.3.93.93 0 0 0 .1-.45v-1.24a.93.93 0 0 0-.1-.45.68.68 0 0 0-.28-.3.82.82 0 0 0-.42-.11.86.86 0 0 0-.43.11.74.74 0 0 0-.28.3.93.93 0 0 0-.1.45v1.24a.93.93 0 0 0 .1.45.74.74 0 0 0 .28.3.86.86 0 0 0 .43.11.82.82 0 0 0 .42-.11zm2.01-3.5h.76l1.84 3.28-.07.07v-3.35h.65v4.26h-.77l-1.83-3.23.07-.08v3.31h-.68z"/></g><g class="js-blink"><path class="base-hlight" d="M117.72 23.4h8.13v4.06h-8.13z"/></g></svg>