<svg data-name="premium-kinetic" xmlns="http://www.w3.org/2000/svg" viewBox="0 0 48.17 141.5"><g class="js-rod"><path class="rod-shadow" d="M32.71.81v104h11V.81zM38 7.54a1.48 1.48 0 1 1 1.48-1.47A1.47 1.47 0 0 1 38 7.54z"/><path class="outline" d="M31.96 0v104.78h1.5V1.5h9.48v103.28h1.5V0H31.96z"/><path class="rod-midtone" d="M34.39 9.93h1.23v94.85h-1.23z"/><path class="outline" d="M38 8.42a2.35 2.35 0 1 1 2.35-2.35A2.36 2.36 0 0 1 38 8.42zm0-3.2a.85.85 0 1 0 .85.85.85.85 0 0 0-.85-.85z"/></g><g class="js-base"><path class="rod-shadow" d="M32.25 129.77v11h11v-11zm5.75 8.29a1.66 1.66 0 1 1 1.66-1.66 1.66 1.66 0 0 1-1.66 1.66z"/><path class="rod-midtone" d="M29.12 15.39h18.3v91.05h-18.3z"/><path class="outline" d="M48.17 107.19h-19.8V14.64h19.8zm-18.3-1.5h16.8V16.14h-16.8z"/><path class="base-midtone" d="M.75 59.6h28.37v47.58H.75z"/><path class="outline" d="M29.87 107.19H0V58.1h29.87zm-28.37-1.5h26.87V59.6H1.5z"/><path class="base-midtone" d="M.75 110.78h46.67v12.87H.75z"/><path class="outline" d="M48.17 123.66H0v-14.38h48.17zm-46.67-1.5h45.17v-11.38H1.5z"/><path class="base-midtone" d="M.75 122.91h46.67v6.86H.75z"/><path class="outline" d="M48.17 130.52H0v-8.36h48.17zM1.5 129h45.17v-5.36H1.5z"/><path class="outline" d="M44 141.5H31.5V129H44zM33 140h9.49v-9.48H33z"/><path class="outline" d="M38 138.75a2.35 2.35 0 1 1 2.35-2.35 2.35 2.35 0 0 1-2.35 2.35zm0-3.2a.85.85 0 1 0 .85.85.85.85 0 0 0-.85-.85z"/><path class="rod-shadow" d="M29.12 15.39h18.3v3.49h-18.3z"/><path class="outline" d="M48.17 19.63h-19.8v-5h19.8zm-18.3-1.5h16.8v-2h-16.8z"/><path class="base-midtone" d="M.75 107.19h46.67v3.6H.75z"/><path class="outline" d="M48.17 110.78H0v-5.09h48.17zm-46.67-1.5h45.17v-2.09H1.5z"/><path class="base-shadow" d="M22.64 60.36h4.61v44.36h-4.61z"/><path class="base-hlight" d="M4.46 60.36h3.05v44.36H4.46zm-1.94 0h1.13v44.36H2.52z"/><path class="base-shadow" d="M41.78 111.51h4.05v10h-4.05z"/><path class="base-hlight" d="M4.46 111.51h3.05v10H4.46zm-1.94 0h1.13v10H2.52z"/><path class="base-shadow" d="M41.76 107.76h4.05v.93h-4.05z"/><path class="base-hlight" d="M4.44 107.76h3.05v.93H4.44zm-1.94 0h1.13v.93H2.5z"/><path class="base-shadow" d="M41.76 124.33h4.05v3.98h-4.05z"/><path class="base-hlight" d="M4.46 124.33h3.05v3.98H4.46zm-1.94 0h1.13v3.98H2.52z"/><path class="rod-shadow" d="M41.76 20.66h4.05v84.06h-4.05z"/><path class="rod-hlight" d="M31.15 20.66h.79v84.06h-.79z"/><path data-name="&lt;Rectangle&gt;" class="rod-hlight" d="M32.73 20.66h2.37v84.06h-2.37z"/></g></svg>