<svg data-name="bracket-kinetic" xmlns="http://www.w3.org/2000/svg" viewBox="0 0 136.63 141.5"><g class="js-rod-2"><path class="rod-midtone" d="M35.89 14h99.99v15.64H35.89z"/><path class="outline" d="M136.63 30.4H35.14V13.25h101.49zm-100-1.5h98.49V14.75H36.64z"/><path class="rod-midtone" d="M126.13 8.37h9.76v26.9h-9.76z"/><path class="outline" d="M136.63 36h-11.25V7.62h11.25zm-9.75-1.5h8.25V9.12h-8.25z"/><path class="rod-hlight" d="M124.47 15.44v.59H37.28v-.59zm.01 1.14v1.67H37.29v-1.67z"/><path class="rod-shadow" d="M124.48 24.31v3.94H37.29v-3.94z"/><path class="rod-hlight" d="M134.45 9.88v.77h-6.92v-.77zm-.01 1.37v1.89h-6.92v-1.89z"/><path class="rod-shadow" d="M134.45 29.87v3.94h-6.92v-3.94z"/></g><g class="js-rod-1"><path class="rod-shadow" d="M112.51.75v87.9H59.27V.75H45.65v93.94c0 3.33 3.05 6 6.81 6h66.86c3.76 0 6.81-2.71 6.81-6V.75z"/><path class="outline" d="M119.32 101.48H52.46c-4.17 0-7.56-3-7.56-6.79V0H60v87.9h51.74V0h15.12v94.69c.02 3.74-3.38 6.79-7.54 6.79zM46.4 1.5v93.19c0 2.91 2.72 5.29 6.06 5.29h66.86c3.34 0 6.06-2.38 6.06-5.29V1.5h-12.12v87.9H58.52V1.5z"/></g><g class="js-base"><path class="base-midtone" d="M39.61 46.56A22.81 22.81 0 0 0 .75 62.78v78h101.42v-19.25zM24.2 69.76a9.51 9.51 0 1 1 9.51-9.51 9.5 9.5 0 0 1-9.51 9.51z"/><path class="outline" d="M102.92 141.5H0V62.78A23.57 23.57 0 0 1 40.14 46l62.73 75.19zM1.5 140h99.92v-18.2L39.06 47.06A22.07 22.07 0 0 0 1.5 62.78z"/><path class="outline" d="M24.2 70.5a10.26 10.26 0 1 1 10.26-10.25A10.26 10.26 0 0 1 24.2 70.5zm0-19a8.76 8.76 0 1 0 8.8 8.75 8.76 8.76 0 0 0-8.8-8.76z"/></g></svg>