<svg data-name="relay-kinetic" xmlns="http://www.w3.org/2000/svg" viewBox="0 0 149.82 57.26"><g class="js-base"><path class="rod-shadow" d="M135.93.75H7.66A6.92 6.92 0 0 1 .75 7.66V49.6a6.91 6.91 0 0 1 6.91 6.91h128.27a6.92 6.92 0 0 1 6.84-6.91V7.65a6.91 6.91 0 0 1-6.84-6.9zM7.24 48.25A2.75 2.75 0 1 1 10 45.5a2.75 2.75 0 0 1-2.76 2.75zm0-33.64A2.75 2.75 0 1 1 10 11.86a2.75 2.75 0 0 1-2.74 2.75zm129.09 33.53a2.75 2.75 0 1 1 2.75-2.75 2.75 2.75 0 0 1-2.75 2.75zm0-33.53a2.75 2.75 0 1 1 2.75-2.75 2.75 2.75 0 0 1-2.75 2.75z"/><path class="outline" d="M136.68 57.26H6.91v-.75a6.16 6.16 0 0 0-6.16-6.16H0V6.91h.75A6.16 6.16 0 0 0 6.91.75V0h129.77v.75a6.17 6.17 0 0 0 6.1 6.15h.74v43.45h-.74a6.19 6.19 0 0 0-6.1 6.16zM8.37 55.76h126.85A7.67 7.67 0 0 1 142 48.9V8.36a7.68 7.68 0 0 1-6.8-6.86H8.37A7.65 7.65 0 0 1 1.5 8.37v40.52a7.65 7.65 0 0 1 6.87 6.87zM7.24 49a3.5 3.5 0 1 1 3.49-3.5A3.5 3.5 0 0 1 7.24 49zm0-5.49a2 2 0 1 0 2 2 2 2 0 0 0-2-2zm129.09 5.38a3.5 3.5 0 1 1 3.5-3.5 3.5 3.5 0 0 1-3.5 3.5zm0-5.49a2 2 0 1 0 2 2 2 2 0 0 0-2-2zm0-28a3.5 3.5 0 1 1 3.5-3.5 3.5 3.5 0 0 1-3.5 3.46zm0-5.49a2 2 0 1 0 2 2 2 2 0 0 0-2-2.04zM7.26 15.36a3.5 3.5 0 1 1 3.5-3.5 3.5 3.5 0 0 1-3.5 3.5zm0-5.49a2 2 0 1 0 2 2 2 2 0 0 0-2-2z"/></g><g class="js-wires"><path class="stroke-rod-midtone" d="M43.41 12.49h12.37m-12.37 2.98h12.37m-12.37 2.9h12.37m-12.37 2.95h12.37m-28.93 7.75v4.33l-5.88 9.65m22.44-18.81h12.37m-26.01 4.83v4.33l8.08 10.79M32.7 29.07v4.33l8.08 10.79m-5.15-15.12v4.33l8.08 10.79M38.6 29.07v4.33l8.08 10.79M10.66 28.5l8.2-10.11h3.13M10.66 31.45l8.2-10.11h3.13M10.66 34.37l8.2-10.11h3.13m21.42-11.77h12.37m-12.37 2.98h12.37m-12.37 2.9h12.37m-12.37 2.95h12.37"/><path class="stroke-rod-midtone" d="M26.85 29.07v4.33l-5.88 9.65m22.44-18.81h12.37m-26.01 4.83v4.33l8.08 10.79M32.7 29.07v4.33l8.08 10.79m-5.15-15.12v4.33l8.08 10.79M38.6 29.07v4.33l8.08 10.79M10.66 28.5l8.2-10.11h3.13M10.66 31.45l8.2-10.11h3.13M10.66 34.37l8.2-10.11h3.13"/></g><g class="js-base-inputs"><path class="base-shadow" d="M51.58 3.73h3.73v3.73h-3.73zm5.23 0h3.73v3.73h-3.73zm5.23 0h3.73v3.73h-3.73zm5.24 0h3.73v3.73h-3.73zm5.23 0h3.73v3.73h-3.73zm5.23 0h3.73v3.73h-3.73zm5.23 0h3.73v3.73h-3.73zm5.24 0h3.73v3.73h-3.73z"/><path class="outline" d="M88.21 2.23H50.08V9h43.36V2.23zm3.73 5.23h-3.73V3.73h3.73zm-5.23 0H83V3.73h3.74zm-5.24 0h-3.73V3.73h3.73zm-5.23 0h-3.73V3.73h3.73zm-5.24 0h-3.72V3.73H71zm-5.23 0H62V3.73h3.74zm-5.24 0h-3.72V3.73h3.73zm-5.23 0h-3.72V3.73h3.73z"/><path class="rod-midtone" d="M149.06 43.16h-6.37v-26.1h6.37z"/><path class="outline" d="M142 16.31h7.87v27.6H142zm6.37 1.5h-4.87v24.6h4.87z"/><path class="rod-midtone" d="M142.69 40.14h-22.88V20.08h22.88z"/><path class="outline" d="M119.07 19.33h24.38v21.56h-24.38zm22.93 1.5h-21.43v18.56H142z"/><path class="rod-shadow" d="M140.27 25.92h-18.08v-3.79h18.08z"/><path class="rod-hlight" d="M140.27 38.03h-18.08V36.7h18.08zm0-2.36h-18.08v-2.92h18.08z"/><path class="stroke-rod-hlight" d="M60.46 51.19v2.61m0-8.74v2.6"/><path class="base-midtone" d="M61.63 47.66v3.53h-2.36v-3.53z"/><path class="stroke-rod-hlight" d="M64.51 51.19v2.61m0-8.74v2.6"/><path class="base-midtone" d="M65.69 47.67v3.53h-2.36v-3.53z"/><path class="stroke-rod-hlight" d="M68.37 51.19v2.61m0-8.74v2.6"/><path class="base-midtone" d="M69.55 47.66v3.53h-2.36v-3.53z"/><path class="stroke-rod-hlight" d="M72.42 51.19v2.61m0-8.74v2.6"/><path class="base-midtone" d="M73.6 47.66v3.53h-2.36v-3.53z"/><path class="stroke-rod-hlight" d="M95.79 51.19v2.61m0-8.74v2.6"/><path class="base-midtone" d="M96.97 47.66v3.53h-2.36v-3.53z"/><path class="stroke-rod-hlight" d="M100.47 51.19v2.61m0-8.74v2.6"/><path class="base-midtone" d="M101.65 47.66v3.53h-2.36v-3.53z"/><path class="stroke-rod-hlight" d="M104.5 8.36v2.6m0-8.73v2.6"/><path class="base-midtone" d="M105.69 4.83v3.53h-2.36V4.83z"/><path class="stroke-rod-hlight" d="M109.18 8.36v2.6m0-8.73v2.6"/><path class="base-midtone" d="M110.36 4.83v3.53H108V4.83z"/><path class="stroke-rod-hlight" d="M26.85 26.47v2.6m2.92-2.6v2.6m2.93-2.6v2.6m2.93-2.6v2.6m2.97-2.6v2.6M26.85 7.66v2.6m2.92-2.6v2.6m2.93-2.6v2.6m2.93-2.6v2.6m2.97-2.6v2.6M21.99 24.24h2.61m-2.61-2.92h2.61m-2.61-2.93h2.61m-2.61-2.92h2.61m-2.61-2.98h2.61m16.21 11.75h2.6m-2.6-2.92h2.6m-2.6-2.93h2.6m-2.6-2.92h2.6m-2.6-2.98h2.6"/><path class="base-midtone" d="M24.6 10.26h16.21v16.21H24.6z"/><rect class="rod-hlight" x="106.2" y="47.31" width="19.25" height="6.68" rx="3.34"/><path class="rod-midtone" d="M107.35 51.44a2.33 2.33 0 0 0 2.19 1.56h12.58a2.33 2.33 0 0 0 2.19-1.54z"/><circle class="rod-hlight" cx="11.78" cy="32.76" r="5.45"/><path class="rod-midtone" d="M7.72 34.58a4.44 4.44 0 0 0 8.11 0z"/><path class="base-shadow" d="M88.85 10.96h30.53v33.32H88.85z"/><path class="outline" d="M120.13 45h-32V10.21h32zM89.6 43.53h29V11.71h-29z"/><path class="base-shadow" d="M54.04 10.96h30.53v33.32H54.04z"/><path class="outline" d="M85.32 45h-32V10.21h32zm-30.53-1.5h29V11.71h-29z"/><path class="stroke-rod-hlight" d="M46.86 45.06v-2.61m-2.91 2.61v-2.61m-2.94 2.61v-2.61m-2.92 2.61v-2.61m8.77 11.47v-2.61m-2.91 2.61v-2.61m-2.94 2.61v-2.61m-2.92 2.61v-2.61"/><path class="base-midtone" d="M35.87 51.31v-6.25h13.2v6.25z"/><path class="stroke-rod-hlight" d="M26.85 52.12v-2.61m-2.93 2.61v-2.61m-2.93 2.61v-2.61m5.85-4.4V42.5m-2.93 2.61V42.5m-2.92 2.61V42.5"/><path class="base-midtone" d="M19.42 49.51v-4.43h8.99v4.43z"/></g></svg>