<svg data-name="feedback-kinetic" xmlns="http://www.w3.org/2000/svg" viewBox="0 0 35 141.5"><g class="js-rod"><path class="rod-shadow" d="M21.38.75v81.13h8.82V.75zm4.41 2.87a.83.83 0 0 1 .83.83.84.84 0 0 1-.83.84.85.85 0 0 1-.79-.84.84.84 0 0 1 .79-.83z"/><path class="outline" d="M25.79 6.79a2.34 2.34 0 1 1 2.33-2.34 2.34 2.34 0 0 1-2.33 2.34zm0-3.17a.84.84 0 0 0-.84.83.85.85 0 0 0 .84.84.84.84 0 0 0 .83-.84.83.83 0 0 0-.83-.83z"/><path class="rod-midtone" d="M23.2 8.83h1.2v73.05h-1.2z"/><path class="outline" d="M30.95 0H20.63v81.88h1.5V1.5h7.32v80.38h1.5V0z"/></g><g class="js-base"><path class="base-midtone" d="M.75 111.9h33.5V127H.75z"/><path class="outline" d="M35 127.75H0v-16.6h35zm-33.5-1.5h32v-13.6h-32z"/><path class="base-midtone" d="M.75 127h33.5v5.29H.75z"/><path class="outline" d="M35 133H0v-6.79h35zm-33.5-1.5h32v-3.79h-32z"/><path class="base-midtone" d="M.75 108.66h33.5v3.24H.75z"/><path class="outline" d="M35 112.65H0v-4.74h35zm-33.5-1.5h32v-1.74h-32z"/><path class="base-midtone" d="M.75 69.52h16.57v39.14H.75z"/><path class="outline" d="M18.07 109.41H0V68.77h18.07zm-16.57-1.5h15.07V70.27H1.5z"/><path class="rod-midtone" d="M17.32 12.39h16.93v96.27H17.32z"/><path class="outline" d="M35 109.41H16.57V11.64H35zm-16.93-1.5H33.5V13.14H18.07z"/><path class="rod-midtone" d="M17.32 9.26h16.93v3.13H17.32z"/><path class="outline" d="M35 13.14H16.57V8.51H35zm-16.93-1.5H33.5V10H18.07z"/><path class="rod-shadow" d="M21.56 132.29v8.46h8.11v-8.46zm4.05 5.2a.84.84 0 1 1 .84-.84.85.85 0 0 1-.84.84z"/><path class="outline" d="M30.42 141.5h-9.61v-10h9.61zm-8.11-1.5h6.61v-7h-6.61z"/><path class="outline" d="M25.61 139a2.34 2.34 0 1 1 2.39-2.35 2.34 2.34 0 0 1-2.39 2.35zm0-3.18a.84.84 0 1 0 .84.84.85.85 0 0 0-.84-.85z"/><path class="base-shadow" d="M29.61 113.04h3.46v12.84h-3.46zM12.92 70.58h3.24v36.95h-3.24z"/><path class="base-hlight" d="M3.44 70.58h1.98v36.95H3.44zm-1.37 0h.75v36.95h-.75zm1.37 57.52h1.98v3.09H3.44zm-1.37 0h.75v3.09h-.75zm1.37-15.06h1.98v12.84H3.44zm-1.37 0h.75v12.84h-.75zm1.37-3.24h1.98v.93H3.44zm-1.37 0h.75v.93h-.75z"/><path class="base-shadow" d="M29.59 128.1h3.46v3.09h-3.46zm0-18.26h3.46v.9h-3.46z"/><path class="rod-shadow" d="M29.51 13.59h3.51v93.94h-3.51z"/><path class="rod-hlight" d="M18.76 13.59h.73v93.94h-.73zm1.26 0h2.18v93.94h-2.18z"/></g></svg>