<svg data-name="sale-kinetic" xmlns="http://www.w3.org/2000/svg" viewBox="0 0 131.77 140.65"><g class="js-base"><path class="base-midtone" d="M53.95 135.83v-26.85h24.26v26.85z"/><path class="outline" d="M79 136.58H53.2v-28.35H79zm-24.26-1.5h22.72v-25.35H54.7z"/><path class="base-midtone" d="M41.41 135.83h48.95v3.96H41.41z"/><path class="outline" d="M91.11 140.54H40.66v-5.46h50.45zM42.16 139h47.45v-2.46H42.16z"/><path class="rod-hlight" d="M49.58.75h32.61v110.5H49.58z"/><path class="outline" d="M82.94 112H48.83V0h34.11zm-32.61-1.5h31.11V1.5H50.33z"/><path class="rod-shadow" d="M74.76 2.22h3.26v106.63h-3.26zm-20.96.13h3.26v106.63H53.8z"/><circle class="rod-hlight" cx="76.36" cy="38.09" r=".79"/><circle class="rod-hlight" cx="55.39" cy="38.09" r=".79"/><path class="base-midtone" d="M.75 54.74v8H131v-8zm10.42 5.59a1.57 1.57 0 1 1 1.57-1.57 1.58 1.58 0 0 1-1.57 1.57zm8 0a1.57 1.57 0 1 1 1.57-1.57 1.57 1.57 0 0 1-1.57 1.57z"/><path class="outline" d="M131.77 63.52H0V54h131.77zM1.5 62h128.77v-6.51H1.5z"/><path class="base-midtone" d="M.75 6.33v8H131v-8zm9.87 4.83a.82.82 0 1 1 .82-.82.82.82 0 0 1-.82.82zm8 0a.82.82 0 0 1 0-1.64.82.82 0 0 1 0 1.64zm94.54 0a.82.82 0 1 1 .82-.82.82.82 0 0 1-.82.82zm8 0a.82.82 0 1 1 .82-.82.82.82 0 0 1-.83.82z"/><path class="outline" d="M131.77 15.11H0V5.58h131.77zM1.5 13.61h128.77V7.08H1.5z"/><path class="outline" d="M10.62 12.66a2.32 2.32 0 1 1 2.32-2.32 2.32 2.32 0 0 1-2.32 2.32zm0-3.14a.82.82 0 1 0 .82.82.82.82 0 0 0-.82-.82zm8 3.14a2.32 2.32 0 1 1 2.32-2.32 2.32 2.32 0 0 1-2.32 2.32zm0-3.14a.82.82 0 1 0 .82.82.82.82 0 0 0-.82-.82zm94.54 3.14a2.32 2.32 0 1 1 2.32-2.32 2.32 2.32 0 0 1-2.32 2.32zm0-3.14a.82.82 0 1 0 .82.82.82.82 0 0 0-.82-.82zm7.99 3.14a2.32 2.32 0 1 1 2.32-2.32 2.32 2.32 0 0 1-2.32 2.32zm0-3.14a.82.82 0 1 0 .82.82.82.82 0 0 0-.82-.82z"/><circle class="rod-hlight" cx="55.43" cy="10.34" r="1.57"/><path class="outline" d="M55.43 12.66a2.32 2.32 0 1 1 2.32-2.32 2.32 2.32 0 0 1-2.32 2.32zm0-3.14a.82.82 0 1 0 .82.82.82.82 0 0 0-.82-.82z"/><circle class="rod-hlight" cx="76.39" cy="10.34" r="1.57"/><path class="outline" d="M76.39 12.66a2.32 2.32 0 1 1 2.32-2.32 2.32 2.32 0 0 1-2.32 2.32zm0-3.14a.82.82 0 1 0 .82.82.82.82 0 0 0-.82-.82z"/><circle class="rod-hlight" cx="76.39" cy="19.59" r=".79"/><circle class="rod-hlight" cx="76.39" cy="28.84" r=".79"/><circle class="rod-hlight" cx="76.36" cy="47.34" r=".79"/><circle class="rod-hlight" cx="55.42" cy="19.59" r=".79"/><circle class="rod-hlight" cx="55.42" cy="28.84" r=".79"/><circle class="rod-hlight" cx="55.39" cy="47.34" r=".79"/><circle class="rod-hlight" cx="76.39" cy="68.36" r=".79"/><circle class="rod-hlight" cx="76.39" cy="77.61" r=".79"/><circle class="rod-hlight" cx="76.36" cy="86.86" r=".79"/><circle class="rod-hlight" cx="76.36" cy="96.1" r=".79"/><circle class="rod-hlight" cx="55.42" cy="68.36" r=".79"/><circle class="rod-hlight" cx="55.42" cy="77.61" r=".79"/><circle class="rod-hlight" cx="55.39" cy="86.86" r=".79"/><circle class="rod-hlight" cx="55.39" cy="96.1" r=".79"/><circle class="rod-hlight" cx="55.41" cy="58.76" r="1.57"/><path class="outline" d="M55.41 61.08a2.32 2.32 0 1 1 2.32-2.32 2.32 2.32 0 0 1-2.32 2.32zm0-3.14a.82.82 0 1 0 .82.82.82.82 0 0 0-.82-.82z"/><circle class="rod-hlight" cx="76.37" cy="58.76" r="1.57"/><path class="outline" d="M76.37 61.08a2.32 2.32 0 1 1 2.32-2.32 2.32 2.32 0 0 1-2.32 2.32zm0-3.14a.82.82 0 1 0 .82.82.82.82 0 0 0-.82-.82z"/><path class="base-midtone" d="M.75 94.5h26.56v28.28H.75z"/><path class="outline" d="M28.06 123.52H0V93.75h28.06zM1.5 122h25.06V95.25H1.5z"/><path class="base-midtone" d="M27.31 98.34h39.14v20.6H27.31z"/><path class="outline" d="M67.2 119.68H26.56v-22.1H67.2zm-39.14-1.5H65.7v-19.1H28.06z"/><path class="rod-midtone" d="M3.2 91.68h21.05v2.82H3.2z"/><path class="outline" d="M25 95.25H2.45v-4.33H25zm-21-1.5h19.5v-1.33H4z"/><path class="base-midtone" d="M3.2 77.84h21.05v13.83H3.2z"/><path class="outline" d="M25 92.42H2.45V77.09H25zm-21-1.5h19.5V78.59H4z"/><path class="rod-midtone" d="M5.4 50.82h16.65v27.02H5.4z"/><path class="outline" d="M22.8 78.59H4.65V50.07H22.8zm-16.65-1.5H21.3V51.57H6.15z"/><path class="base-midtone" d="M4.45 37.63h18.54v13.2H4.45z"/><path class="outline" d="M23.74 51.57H3.7V36.88h20zM5.2 50.07h17V38.38h-17z"/><path class="rod-midtone" d="M7.91 29.46h11.63v8.17H7.91z"/><path class="outline" d="M20.29 38.38H7.16v-9.67h13.13zm-11.63-1.5h10.13v-6.67H8.66z"/><path class="rod-shadow" d="M19.53 16.89h-4.71V27h-2.2V16.89H7.91v1.42a4.53 4.53 0 0 1 0 6.27v4.88h11.62v-5.25a4.54 4.54 0 0 1 0-5.53z"/><path class="outline" d="M20.29 30.21H7.16v-5.93l.21-.21a3.79 3.79 0 0 0 0-5.24l-.21-.22v-2.47h6.21v10.08h.7V16.14h6.22v2.79l-.16.2a3.79 3.79 0 0 0 0 4.63l.16.2zm-11.63-1.5h10.13v-4.25a5.26 5.26 0 0 1 0-6v-.79h-3.22v10.05h-3.7V17.64H8.66V18a5.29 5.29 0 0 1 0 6.85z"/><path class="rod-shadow" d="M8 139.9h4.7v-11.66h2.22v11.66h4.75v-1.68a6.07 6.07 0 0 1 0-7.43V125H8v6.21a6.12 6.12 0 0 1 0 6.55z"/><path class="outline" d="M20.41 140.65h-6.25v-11.66h-.72v11.66H7.2v-3.09l.12-.19a5.36 5.36 0 0 0 0-5.73l-.12-.19v-7.18h13.21v6.79l-.17.2a5.34 5.34 0 0 0 0 6.49l.17.2zm-4.75-1.5h3.25v-.67a6.84 6.84 0 0 1 0-7.94v-4.77H8.7V131a6.9 6.9 0 0 1 0 7v1.15H12v-11.66h3.72z"/><path class="rod-midtone" d="M3.2 122.86h21.21v2.62H3.2z"/><path class="outline" d="M25.16 126.22H2.45v-4.11h22.71zM4 124.72h19.66v-1.11H4z"/><path class="rod-shadow" d="M17.67 51.85h3.01v24.87h-3.01zm-1.25-21.33h2.1v6.08h-2.1z"/><path class="base-shadow" d="M18.52 38.74h3.13v10.93h-3.13zm4.27 56.8h3.3v26.13h-3.3z"/><path class="base-hlight" d="M65.15 102.42H28.77v-1.75h36.38zm0-2.31H28.77v-.7h36.38zM2.92 95.54h2.1v26.13h-2.1zm-1.04 0h.5v26.13h-.5z"/><path class="base-shadow" d="M19.48 78.98h3.49v11.56h-3.49zm9.29 34.4h36.38v4.09H28.77z"/><path class="base-hlight" d="M4.66 78.98h.68v11.56h-.68zm1.27 0h2.1v11.56h-2.1z"/><path class="rod-shadow" d="M19.48 92.66h3.49v.9h-3.49z"/><path class="rod-hlight" d="M4.66 92.66h.68v.9h-.68zm1.27 0h2.1v.9h-2.1zm.79-40.81h.35v24.87h-.35zm.76 0h1.64v24.87H7.48zm1.68-21.33h.42v6.08h-.42zm.84 0h1.26v6.08H10z"/><path class="base-hlight" d="M5.82 38.74h.78v10.93h-.78zm1.28 0h2.1v10.93H7.1z"/><path class="rod-shadow" d="M19.47 123.85h3.49v.68h-3.49z"/><path class="rod-hlight" d="M4.65 123.85h.68v.68h-.68zm1.26 0h2.1v.68h-2.1z"/><path class="outline" d="M113.16 61.08a2.32 2.32 0 1 1 2.32-2.32 2.32 2.32 0 0 1-2.32 2.32zm0-3.14a.82.82 0 1 0 .82.82.82.82 0 0 0-.82-.82z"/><path class="rod-midtone" d="M112.36 31.67h15.65v77.85h-15.65z"/><path class="outline" d="M128.76 110.27h-17.15V30.92h17.15zm-15.65-1.5h14.15V32.42h-14.15z"/><path class="base-midtone" d="M88.11 68.84h24.25v40.68H88.11z"/><path class="outline" d="M113.11 110.27H87.36V68.08h25.75zm-24.25-1.5h22.75V69.58H88.86z"/><path class="base-midtone" d="M88.11 112.6h39.9v11.01h-39.9z"/><path class="outline" d="M128.76 124.35h-41.4v-12.5h41.4zm-39.9-1.5h38.4v-9.5h-38.4z"/><path class="base-midtone" d="M88.11 123.6h39.9v5.87h-39.9z"/><path class="outline" d="M128.76 130.22h-41.4v-7.37h41.4zm-39.9-1.5h38.4v-4.37h-38.4z"/><path class="rod-shadow" d="M114.32 129.47v9.39h9.38v-9.39zm4.89 5.31a.62.62 0 1 1 .61-.62.61.61 0 0 1-.61.62z"/><path class="outline" d="M124.45 139.61h-10.88v-10.89h10.88zm-9.38-1.5H123v-7.89h-7.88z"/><path class="rod-shadow" d="M115.49 19.15v12.52h9.39V19.15zm4.5 5.12a.62.62 0 0 1-.62-.62.62.62 0 0 1 1.24 0 .62.62 0 0 1-.61.62z"/><path class="outline" d="M125.63 32.42h-10.89v-14h10.89zm-9.39-1.5h7.89v-11h-7.89zm2.97 105.36a2.12 2.12 0 1 1 2.11-2.12 2.12 2.12 0 0 1-2.11 2.12zm0-2.74a.62.62 0 0 0-.62.62.62.62 0 1 0 .62-.62z"/><path class="outline" d="M120 25.77a2.12 2.12 0 1 1 2.12-2.12 2.12 2.12 0 0 1-2.12 2.12zm0-2.77a.62.62 0 0 0-.62.62.62.62 0 1 0 1.24 0A.62.62 0 0 0 120 23z"/><path class="rod-shadow" d="M112.36 31.67h15.65v2.98h-15.65z"/><path class="outline" d="M128.76 35.4h-17.15v-4.48h17.15zm-15.65-1.5h14.15v-1.48h-14.15z"/><path class="base-midtone" d="M88.11 109.52h39.9v3.08h-39.9z"/><path class="outline" d="M128.76 113.35h-41.4v-4.58h41.4zm-39.9-1.5h38.4v-1.58h-38.4z"/><path class="base-shadow" d="M106.82 70.13h3.94v37.93h-3.94z"/><path class="base-hlight" d="M91.28 70.13h2.6v37.93h-2.6zm-1.66 0h.97v37.93h-.97z"/><path class="base-shadow" d="M123.19 113.86h3.47v8.55h-3.47z"/><path class="base-hlight" d="M91.28 113.86h2.6v8.55h-2.6zm-1.66 0h.97v8.55h-.97z"/><path class="base-shadow" d="M123.17 110.65h3.47v.79h-3.47z"/><path class="base-hlight" d="M91.26 110.65h2.6v.79h-2.6zm-1.66 0h.97v.79h-.97z"/><path class="base-shadow" d="M123.17 124.82h3.47v3.41h-3.47z"/><path class="base-hlight" d="M91.28 124.82h2.6v3.41h-2.6zm-1.66 0h.97v3.41h-.97z"/><path class="rod-shadow" d="M123.17 36.18h3.47v71.88h-3.47z"/><path class="rod-hlight" d="M114.1 36.18h.68v71.88h-.68zm1.35 0h2.03v71.88h-2.03z"/></g><g class="js-rod"><path class="base-hlight" d="M69.34 33.17l23.12 41.05 29.69-16.72-23.13-41.05-22.04-4.42-7.64 21.14z"/><path class="outline" d="M92.18 75.24l-23.66-42 8-22.08 23 4.62 23.66 42zm-22-42.13L92.75 73.2l28.37-16-22.58-40.08-21.07-4.23z"/><path class="outline" d="M84.68 32.56a1.64 1.64 0 0 0 .85-1 4.55 4.55 0 0 0 0-1.72 7 7 0 0 1 .14-3.34 3.55 3.55 0 0 1 1.64-1.92 3.33 3.33 0 0 1 2.9-.29 4.45 4.45 0 0 1 2.35 2.12 4.37 4.37 0 0 1 .61 2.13 3.43 3.43 0 0 1-.54 2A4.22 4.22 0 0 1 91.05 32l-1.29-2.3a2.17 2.17 0 0 0 1-1 1.38 1.38 0 0 0-.14-1.22 1.41 1.41 0 0 0-.89-.75 1.53 1.53 0 0 0-1.15.21 1.37 1.37 0 0 0-.64.86 5 5 0 0 0 0 1.78 6.55 6.55 0 0 1-.11 3.27 3.85 3.85 0 0 1-1.82 2 3.38 3.38 0 0 1-2.87.36 4.34 4.34 0 0 1-2.3-2.11 5.22 5.22 0 0 1-.68-2.28 3.92 3.92 0 0 1 .5-2.16 4.4 4.4 0 0 1 1.72-1.64l1.3 2.32a2.54 2.54 0 0 0-1.22 1.19 1.85 1.85 0 0 0 .26 1.51 1.27 1.27 0 0 0 1.96.52zm4.59 9.7l-1.78-3.16-2.69.71-1.37-2.45 13.46-2.87 1.19 2.12-9.42 10-1.39-2.47zm.43-3.74l1.21 2.14 3.47-3.37zM92.49 49l2.28 4-1.92 1.1-3.59-6.37 11.45-6.45 1.3 2.31zm9.4 9.55l-2-3.6-3 1.71 2.4 4.26L97.31 62l-3.7-6.58L105.05 49l3.7 6.56-1.93 1.09-2.39-4.25-2.71 1.52 2 3.6z"/></g></svg>