<svg data-name="track-kinetic" xmlns="http://www.w3.org/2000/svg" viewBox="0 0 55.59 141.39"><g class="js-base"><path class="base-midtone" d="M1.53 99.84h24.3v28.61H1.53z"/><path class="outline" d="M26.59 129.2H.78V99.09h25.81zm-24.31-1.5h22.81v-27.11H2.28z"/><path class="base-midtone" d="M25.84 106.74h29.01v19.6H25.84z"/><path class="rod-midtone" d="M3.89 8.51h15.29v91.33H3.89z"/><path class="outline" d="M19.92 100.59H3.14V7.81h16.78zm-15.28-1.5h13.78V9.31H4.64zm50.95 28h-30.5V106h30.5zm-29-1.5h27.5v-18.1h-27.5z"/><path class="rod-shadow" d="M12.72 11.73h.81v86.8h-.81zm1.55 0h.81v86.8h-.81zm1.54 0h.81v86.8h-.81zM8.05 140.64h4.57v-9.1h2.13v9.1h4.57v-1.59a5.7 5.7 0 0 1 0-7.05v-3.55H8.05v4a5.63 5.63 0 0 1 .95 3.08 5.6 5.6 0 0 1-.91 3.1z"/><path class="outline" d="M20.07 141.39H14v-9.1h-.63v9.1H7.3v-3l.12-.19a5 5 0 0 0 0-5.39l-.12-.19v-4.92h12.77v4.57l-.17.21a4.94 4.94 0 0 0 0 6.09l.17.21zm-4.57-1.5h3.07v-.58a6.47 6.47 0 0 1 0-7.56v-2.55H8.8v3a6.53 6.53 0 0 1 0 6.65v1h3.07v-9.1h3.63z"/><path class="base-hlight" d="M5.84 101.1v26.28H3.98V101.1zm-2.23-.01v26.28h-.74v-26.28z"/><path class="base-shadow" d="M20.89 127.38V101.1h3.75v26.28z"/><path class="base-hlight" d="M53.66 110.15H27.02v-1.36h26.64zm0-1.68H27.02v-.55h26.64z"/><path class="base-shadow" d="M27.02 122.68h26.64v2.52H27.02z"/><path class="rod-midtone" d="M2.71 8.2h17.64v2.35H2.71z"/><path class="outline" d="M21.1 11.3H2V7.45h19.1zM3.46 9.8H19.6V9H3.46z"/><path class="rod-shadow" d="M2.71.75h23.52V8.2H2.71z"/><path class="outline" d="M27 9H2V0h25zM3.46 7.45h22V1.5h-22z"/></g><g class="js-rod"><path class="base-midtone" d="M.75 73.15H27.8v18.03H.75z"/><path class="outline" d="M28.55 91.93H0V72.4h28.55zm-27-1.5h25.5V73.9H1.5z"/></g></svg>