<svg data-name="cable-kinetic" xmlns="http://www.w3.org/2000/svg" viewBox="0 0 113.81 123.44"><g class="js-base"><path class="base-midtone" d="M101.25 33.26h5v89.29h-5z"/><path class="outline" d="M107 123.3h-6.5V32.51h6.5zm-5-1.5h3.5V34H102z"/><path class="base-shadow" d="M104.3 35.1h.85v85.93h-.85z"/></g><g class="js-rod"><path class="base-midtone" d="M94.44 39.69h18.62V63.2H94.44z"/><path class="outline" d="M113.81 64H93.68V39h20.13zm-18.63-1.5h17.13v-22H95.18z"/><path class="base-shadow" d="M109.14 40.99h2.33V61.9h-2.33z"/><path class="base-hlight" d="M95.78 40.99h.48V61.9h-.48zm.87 0h1.27V61.9h-1.27z"/><path class="rod-midtone" d="M97.61 27.44h12.27V39.7H97.61z"/><path class="outline" d="M110.63 40.44H96.86V26.69h13.77zm-12.27-1.5h10.77V28.19H98.36z"/><path class="outline" d="M100.5 31.55h1.5v3.42h-1.5zm5 0h1.5v3.42h-1.5z"/></g><g class="js-base"><path class="base-midtone" d="M75.71 26.48h5v96.07h-5z"/><path class="outline" d="M81.46 123.3H75V25.73h6.5zm-5-1.5H80V27.23h-3.5z"/><path class="base-shadow" d="M78.76 28.46h.85v92.45h-.85z"/></g><g class="js-rod"><path class="base-midtone" d="M68.9 32.61h18.62v23.51H68.9z"/><path class="outline" d="M88.27 56.87H68.15v-25h20.12zm-18.62-1.5h17.12v-22H69.65z"/><path class="base-shadow" d="M83.6 33.91h2.33v20.91H83.6z"/><path class="base-hlight" d="M70.25 33.91h.48v20.91h-.48zm.86 0h1.27v20.91h-1.27z"/><path class="rod-midtone" d="M72.07 20.36h12.27v12.26H72.07z"/><path class="outline" d="M85.09 33.36H71.32V19.61h13.77zm-12.27-1.5h10.77V21.11H72.82z"/><path class="outline" d="M74.96 24.47h1.5v3.42h-1.5zm5 0h1.5v3.42h-1.5z"/></g><g class="js-base"><path class="base-midtone" d="M50.46 19.05h5v103.63h-5z"/><path class="outline" d="M56.21 123.44h-6.5V18.3h6.5zm-5-1.5h3.5V19.8h-3.5z"/><path class="base-shadow" d="M53.52 21.19h.85v99.74h-.85z"/></g><g class="js-rod"><path class="base-midtone" d="M43.65 25.08h18.62v23.51H43.65z"/><path class="outline" d="M63 49.34H42.9v-25H63zm-18.6-1.5h17.13v-22H44.4z"/><path class="base-shadow" d="M58.36 26.38h2.33v20.91h-2.33z"/><path class="base-hlight" d="M45 26.38h.48v20.91H45zm.86 0h1.27v20.91h-1.27z"/><path class="rod-midtone" d="M46.83 12.82H59.1v12.26H46.83z"/><path class="outline" d="M59.85 25.83H46.08V12.07h13.77zm-12.27-1.5h10.77V13.57H47.58z"/><path class="outline" d="M49.71 16.94h1.5v3.42h-1.5zm5 0h1.5v3.42h-1.5z"/></g><g class="js-base"><path class="base-hlight" d="M14.97 19.01h6.82v103.65h-6.82z"/><path class="outline" d="M22.54 123.41h-8.32V18.26h8.32zm-6.82-1.5H21V19.76h-5.28z"/><path class="base-midtone" d="M19.37 21.08h.99v99.79h-.99z"/></g><g class="js-rod"><path class="rod-midtone" d="M7.54.75h4.33v15.4H7.54z"/><path class="outline" d="M12.62 16.9H6.79V0h5.83zm-4.33-1.5h2.83V1.5H8.29z"/><path class="rod-midtone" d="M24.89.75h4.33v15.4h-4.33z"/><path class="outline" d="M30 16.9h-5.86V0H30zm-4.33-1.5h2.83V1.5h-2.86z"/><path class="base-hlight" d="M.75 16.15v22.33l11.39 8.18h12.48L36 38.48V16.15H.75z"/><path class="outline" d="M24.86 47.41h-13L0 38.86V15.4h36.75v23.46zm-12.48-1.5h12l10.87-7.82V16.9H1.5v21.19z"/><path class="base-midtone" d="M32.07 17.64v18.8L19.7 45.32h3.1l11.25-8.08v-19.6h-1.98z"/></g></svg>