<svg xmlns="http://www.w3.org/2000/svg" xmlns:xlink="http://www.w3.org/1999/xlink" viewBox="0 0 2160 120" xmlns:v="https://vecta.io/nano"><style><![CDATA[.B{fill:#205a8e}.C{fill:#0d90e8}.D{fill:#badce5}.E{fill:#8cc8dd}.F{fill:#4dbff7}.G{fill:#187dd1}.H{fill:#daeaef}.I{stroke-miterlimit:10}.J{fill:none}.K{stroke-width:1.5}.L{stroke:#daeaef}]]></style><path d="M65.2 11v72.77h7.7V11zm3.7 4.7a1 1 0 1 1 1-1 1 1 0 0 1-1 1z" class="E"/><path d="M64.7 10.42v73.35h1.05v-72.3h6.63v72.3h1.05V10.42H64.7z" class="B"/><path d="M66.4 17.37h.86v66.4h-.86z" class="D"/><path d="M68.9 16.3a1.65 1.65 0 1 1 1.64-1.64 1.65 1.65 0 0 1-1.64 1.64zm0-2.24a.6.6 0 0 0-.6.6.6.6 0 0 0 1.19 0 .6.6 0 0 0-.59-.6z" class="B"/><path d="M64.9 101.26v7.68h7.7v-7.68zm4 5.8a1.16 1.16 0 1 1 1.16-1.16 1.16 1.16 0 0 1-1.15 1.16z" class="E"/><path d="M62.7 21.2h12.8v63.73H62.7z" class="D"/><path d="M76 85.45H62.17V20.67H76zm-12.8-1H75V21.72H63.22z" class="B"/><path d="M42.84 52.14H62.7v33.3H42.84z" class="C"/><path d="M63.22 85.45H42.3V51.1h20.9zm-19.86-1h18.8v-32.3h-18.8z" class="B"/><path d="M42.84 87.97H75.5v9H42.84z" class="C"/><path d="M76 97H42.3V86.92H76zm-32.67-1H75v-8H43.36z" class="B"/><path d="M42.84 96.45H75.5v4.8H42.84z" class="C"/><g class="B"><path d="M76 101.78H42.3v-5.85H76zm-32.67-1H75V97H43.36z"/><path d="M73.1 109.47h-8.73v-8.74h8.73zm-7.68-1h6.63v-6.64h-6.63zm3.48-.92a1.65 1.65 0 1 1 1.64-1.65 1.65 1.65 0 0 1-1.64 1.65zm0-2.24a.59.59 0 0 0-.6.59.6.6 0 1 0 1.19 0 .59.59 0 0 0-.59-.59z"/></g><path d="M62.7 21.2h12.8v2.44H62.7z" class="E"/><path d="M76 24.16H62.17v-3.5H76zM63.22 23.1H75v-1.4H63.22z" class="B"/><path d="M42.84 85.45H75.5v2.52H42.84z" class="C"/><path d="M76 88H42.3v-3.6H76zm-32.67-1H75v-1.55H43.36z" class="B"/><path d="M58.16 52.67h3.23v31.05h-3.23z" class="G"/><path d="M45.44 52.67h2.13v31.05h-2.13zm-1.36 0h.8v31.05h-.8z" class="F"/><path d="M71.56 88.48h2.84v7h-2.84z" class="G"/><path d="M45.44 88.48h2.13v7h-2.13zm-1.36 0h.8v7h-.8z" class="F"/><path d="M71.54 85.85h2.84v.65h-2.84z" class="G"/><path d="M45.42 85.85h2.13v.65h-2.13zm-1.35 0h.8v.65h-.8z" class="F"/><path d="M71.54 97.45h2.84v2.8h-2.84z" class="G"/><path d="M45.44 97.45h2.13v2.8h-2.13zm-1.36 0h.8v2.8h-.8z" class="F"/><path d="M71.54 24.88h2.84v58.85h-2.84z" class="E"/><path d="M64.12 24.88h.55v58.85h-.55zm1.1 0h1.66v58.85h-1.66z" class="H"/><path d="M180.1 11.18a2.76 2.76 0 0 0-2.75 2.76v42.84h5.5V13.94a2.77 2.77 0 0 0-2.76-2.76zm0 3.8a1 1 0 1 1 0-2.08 1 1 0 0 1 0 2.08z" class="D"/><path d="M180.1 15.56a1.63 1.63 0 1 1 1.63-1.62 1.63 1.63 0 0 1-1.63 1.62zm0-2.2a.57.57 0 0 0-.57.58.56.56 0 0 0 .57.57.57.57 0 0 0 .58-.57.58.58 0 0 0-.58-.58zm0-2.7a3.29 3.29 0 0 0-3.28 3.27v42.85h1V13.93a2.23 2.23 0 0 1 4.46 0V56.5h1V13.93a3.28 3.28 0 0 0-3.18-3.27z" class="B"/><path d="M178.5 16.6h.57v40.2h-.57z" class="H"/><path d="M175.1 101v3.57a4.69 4.69 0 0 0 4.69 4.69h.52a4.69 4.69 0 0 0 4.7-4.69V101zm4.95 5.47a1.61 1.61 0 1 1 1.61-1.61 1.61 1.61 0 0 1-1.61 1.57zm-3.85-88.1h7.7v44.04h-7.7z" class="D"/><path d="M184.44 63h-8.76V17.85h8.76zm-7.7-1.05h6.66v-43h-6.66z" class="B"/><path d="M176.2 16.45h7.7v2.12h-7.7z" class="E"/><path d="M184.44 19.1h-8.76v-3.17h8.76zm-7.7-1.05h6.66V17h-6.66z" class="B"/><path d="M181.24 19.53h1.63V61.5h-1.63z" class="E"/><path d="M177.25 19.56h.4v41.96h-.4zm.85 0h.98v41.96h-.98z" class="H"/><path d="M175.1 62.42h9.9v38.54h-9.9z" class="C"/><g class="B"><path d="M185.54 101.5h-11V61.9h11zm-9.9-1h8.86V63h-8.86z"/><path d="M180.32 109.75h-.52a5.22 5.22 0 0 1-5.22-5.22v-4.1h11v4.1a5.22 5.22 0 0 1-5.26 5.22zm-4.7-8.26v3a4.17 4.17 0 0 0 4.17 4.17h.52a4.17 4.17 0 0 0 4.17-4.17v-3zm4.44 5.5a2.18 2.18 0 1 1 2.18-2.17 2.18 2.18 0 0 1-2.18 2.17zm0-3.3a1.13 1.13 0 1 0 1.13 1.13 1.14 1.14 0 0 0-1.13-1.14z"/></g><path d="M175.1 62.42h9.9v4.13h-9.9z" class="C"/><path d="M185.54 67.08h-11V61.9h11zm-9.9-1h8.86V63h-8.86z" class="B"/><path d="M182 67.48h1.92v32.54H182z" class="G"/><path d="M176.13 67.48h.35v32.54h-.35zm.72 0h.85v32.54h-.85z" class="F"/><path d="M181.97 63.28h1.92v2.43h-1.92z" class="G"/><path d="M176.1 63.28h.35v2.43h-.35zm.73 0h.85v2.43h-.85z" class="F"/><path d="M253.76 16.55h6.47v33.23h-6.47zm87 0h6.47v33.23h-6.47z" class="D"/><path d="M253.38 16.12v33.66h.76v-32.8h5.7v32.8h.75V16.12h-7.22zm87.02 0v33.66h.75v-32.8h5.72v32.8h.75V16.12h-7.22z" class="B"/><path d="M345.48 17.4h.84v32.37h-.84z" class="E"/><path d="M341.62 17.4h.23v32.37h-.23zm.43 0h.7v32.37h-.7z" class="H"/><path d="M258.47 17.4h.84v32.37h-.84z" class="E"/><path d="M254.6 17.4h.23v32.37h-.23zm.44 0h.7v32.37h-.7z" class="H"/><path d="M248 11.2h105v5.18H248z" class="C"/><path d="M353.53 16.92h-106V10.7h106zm-105-1.05h104v-4.13h-104z" class="B"/><path d="M253.12 39.7h7.74v28.57h-7.74z" class="D"/><path d="M259.2 40.6h.84v27.68h-.84z" class="E"/><path d="M254.04 40.6h.23v27.68h-.23zm.42 0h.7v27.68h-.7z" class="H"/><path d="M252.75 39.27v29h.75V40.12h7v28.16h.75v-29h-8.5z" class="B"/><path d="M340.14 39.7h7.74v28.57h-7.74z" class="D"/><path d="M346.22 40.58h.84v27.68h-.84z" class="E"/><path d="M341.05 40.58h.23v27.68h-.23zm.43 0h.7v27.68h-.7z" class="H"/><path d="M339.76 39.27v29h.75V40.12h7v28.15h.76v-29h-8.5z" class="B"/><path d="M247.97 105.52h18v3.14h-18z" class="C"/><path d="M266.5 109.18h-19.06V105h19.06zm-18-1.05h17v-2.08h-17z" class="B"/><path d="M252.26 62.63h9.44v42.9h-9.44z" class="C"/><path d="M262.23,106.05h-10.5V62.1h10.5Zm-9.45-1h8.4V63.15h-8.4Z" class="B"/><path d="M259.25 63.35h1.55v41.32h-1.55z" class="G"/><path d="M253.22 63.4h.37v41.32h-.37zm.78 0h1v41.32h-1z" class="F"/><path d="M335 105.54h18v3.14h-18z" class="C"/><path d="M353.53,109.2H334.46V105h19.07Zm-18-1h17v-2.08h-17Z" class="B"/><path d="M339.27 62.64h9.44v42.9h-9.44z" class="C"/><path d="M349.24 106.07h-10.5V62.12h10.5zm-9.44-1h8.4v-41.9h-8.4z" class="B"/><path d="M346.27 63.37h1.55v41.32h-1.55z" class="G"/><path d="M340.23 63.43h.37v41.32h-.37zm.77 0h1v41.32h-1z" class="F"/><path d="M466.88 40.1V24.9H378.2V95h88.67v-5.3l4.92-2.94V43zm0 46.08a2.69 2.69 0 1 1 2.69-2.68 2.68 2.68 0 0 1-2.69 2.68zm0-37.3a2.69 2.69 0 1 1 2.69-2.69 2.68 2.68 0 0 1-2.69 2.69z" class="E"/><path d="M467.4 95.5h-89.73V24.4h89.73v15.4l4.9 3V87l-4.9 3zm-88.68-1h87.63v-5.12l4.9-2.94v-43.1l-4.9-2.94V25.44h-87.63zm88.15-7.75a3.22 3.22 0 1 1 3.22-3.21 3.21 3.21 0 0 1-3.22 3.16zm0-5.38a2.17 2.17 0 1 0 2.17 2.17 2.17 2.17 0 0 0-2.17-2.22zm0-31.9a3.22 3.22 0 1 1 3.22-3.22 3.22 3.22 0 0 1-3.22 3.17zm0-5.38a2.17 2.17 0 1 0 2.17 2.16 2.16 2.16 0 0 0-2.17-2.24z" class="B"/><g class="J I K"><path d="M411.26 70h3.45m-3.45 2.06h3.45m-3.45 2.04h3.45m-3.45 2.04h3.45m-17.5 15.2h11.36m-20.9-.01h3.74m-3.74-2.05h20.9m-20.9-2.05h5.4l4.5-2.53m28.65-3.85v7.13m-2.05-7.13v7.13m-2.05-7.13v7.13m-2.04-7.13v7.13m14.37-7.13v7.13m-2.06-7.13v7.13m-2.04-7.13v7.13m-2.03-7.13v7.13m23.62-7.13v7.13m-2.06-7.13v7.13m-2.04-7.13v7.13m-2.04-7.13v7.13m14.36-7.13v7.13m-2.04-7.13v7.13m-2.06-7.13v7.13M454 80.84v7.13m-13.24-48.44h2.54l4.4 2.72m-6.9-4.78h9.08l4.8-6.18m-41.42 11.27l3-3.05h1.98m-4.7-3.47h4.8m-7.15.72v5.43m-2.88-5.27l.84 2.28v3m-2.06-5.05v5.04m-5.25-4.02l3.3 4.33m-2.83-7.9h3.66m-7.4 8.92h1.6l1.9 2.3m-11.67 3.88h2.08m-2.94-6.18h3.12m-1-11.75v2.84h2.4m-4.38 16.57l1.7.58h1.12m31.76-15.72h7.1l3.55 1.46m-18.25 8.07h4.1m-4.1 2.1h4.1m-4.1 2.04h4.12m-4.12 2.05h4.1m-4.1 2.05h4.1m-21.53-4.1h2.42m-11.4-3.88h7.68l1.54 1.84h2.2m22.7-8.16h10.33M399.2 53.82h2.47m-13.8 5.35v-5.42l4.58.06m6.74-2.05h2.42M391.85 27l2.38 1.77m.15 44.08l5-2.85h3.86m-8.86 4.9l5-2.85h3.86m-8.86 4.9l5-2.85h3.86m-8.86 4.9l5-2.85h3.86m10-18.97v1.4l10.38 10.73m-12.46-12.13v1.4l10.38 10.7m-12.44-12.1v1.4l10.4 10.92m-12.44-12.32v1.4l10.38 10.9m-12.42-12.3v1.4l10.38 10.86m11.46-23.86h13.33l21.3 18.66m-34.63-16.6h13.33l21.3 18.67m-34.63-16.6h13.33l21.3 18.67m-34.63-16.6h13.33l21.3 18.67M426.86 53.8h13.33l21.3 18.66" stroke="#badce5"/><g class="L"><path d="M409.44 76.14h1.82m-1.82-2.04h1.82m-1.82-2.05h1.82M409.44 70h1.82m23.1-8.57h1.82m-1.82-2.05h1.82m-1.82-2.05h1.82m3.1 4.1h1.82"/><path d="M439.28 59.38h1.82m-1.82-2.05h1.82"/></g></g><path d="M436.2 56.23h3.1v6.3h-3.1z" class="C"/><g class="I J K L"><path d="M438.97 39.53h1.82m-1.82-2.06h1.82m-43.85 6.05h1.82m-6.12 0h1.83m1.05 47.8h1.82m-6.12 0h1.83m29.47-55.28h1.83m-6.12 0h1.82m35.45 6.16h2.4m-71.3 21.58h1.82"/><path d="M386.6 61.74h1.82"/></g><path d="M382.3 60.2h1.82v3.06h-1.82z" class="H"/><path d="M464.02 52.14h5.74v8.27h-5.74z" class="C"/><g class="D"><circle cx="465.65" cy="53.84" r=".82"/><circle cx="465.65" cy="56.3" r=".82"/><circle cx="465.65" cy="58.76" r=".82"/><circle cx="468.11" cy="53.83" r=".82"/><circle cx="468.11" cy="56.29" r=".82"/><circle cx="468.11" cy="58.76" r=".82"/></g><circle cx="409.78" cy="82.43" r="3.82" class="H"/><path d="M406.94 83.7a3.11 3.11 0 0 0 5.68 0z" class="D"/><path d="M434.68 39.53h1.82m-1.82-2.06h1.82m-11.48 10.2h1.83m-1.83-2.1h1.83m-6.12 2.1h1.82m-1.82-2.1h1.83m2.48 6.2h1.82m-1.82-2.06h1.82m-6.12 2.06h1.83m-1.82-2.06h1.82m-25.2 4.1h1.83m-1.83-4.1h1.83m-1.83 2.06h1.83m-6.75 2.06h1.82m-1.82-2.06h1.82m-1.82-2.06h1.82" class="I J K L"/><path d="M367.94 33.95h21.9v17.23h-21.9z" class="H"/><path d="M390.37,51.7H367.42V33.43h22.95Zm-21.9-1.05h20.85V34.48H368.47Z" class="B"/><path d="M422.52 39.5h1.83m-6.12 0h1.82" class="I J K L"/><path d="M409.6 89h2.6v2.6h-2.6zm3.66 0h2.6v2.6h-2.6zm3.67 0h2.6v2.6h-2.6zm3.67 0h2.6v2.6h-2.6zm3.65 0h2.6v2.6h-2.6zm3.65 0h2.6v2.6h-2.6zm3.68 0h2.6v2.6h-2.6zm3.66 0h2.6v2.6h-2.6z" class="G"/><path d="M435.24 87.94h-26.7v4.7h30.35v-4.7zm2.6 3.66h-2.6V89h2.6zm-3.66 0h-2.6V89h2.6zm-3.66 0h-2.62V89h2.62zm-3.67 0h-2.6V89h2.6zm-3.66 0h-2.6V89h2.6zm-3.66 0h-2.6V89h2.6zm-3.66 0h-2.62V89h2.62zm-3.67 0h-2.6V89h2.6z" class="B"/><path d="M442.58 89h2.6v2.6h-2.6zm3.66 0h2.6v2.6h-2.6zm3.66 0h2.6v2.6h-2.6zm3.67 0h2.6v2.6h-2.6zm3.66 0h2.6v2.6h-2.6zm3.67 0h2.6v2.6h-2.6z" class="G"/><path d="M460.9 87.94h-19.37v4.7h23v-4.7zm2.6 3.66h-2.6V89h2.6zm-3.66 0h-2.62V89h2.62zm-3.67 0h-2.6V89h2.6zm-3.66 0h-2.6V89h2.6zm-3.66 0h-2.62V89h2.62zm-3.67 0h-2.6V89h2.6z" class="B"/><rect x="390.93" y="59.38" width="13.48" height="4.67" rx="2.34" class="H"/><path d="M391.73 62.27a1.64 1.64 0 0 0 1.53 1.08h8.8a1.64 1.64 0 0 0 1.53-1.08z" class="D"/><path d="M435.25 28h2.6v2.6h-2.6zm3.67 0h2.6v2.6h-2.6zm3.66 0h2.6v2.6h-2.6zm3.66 0h2.6v2.6h-2.6zm3.66 0h2.6v2.6h-2.6zm3.67 0h2.6v2.6h-2.6zm3.66 0h2.6v2.6h-2.6zm3.67 0h2.6v2.6h-2.6z" class="G"/><path d="M460.9 26.94h-26.7v4.7h30.36v-4.7zm2.6 3.66h-2.6V28h2.6zm-3.66 0h-2.62V28h2.62zm-3.67 0h-2.6V28h2.6zm-3.66 0h-2.6V28h2.6zm-3.66 0h-2.62V28h2.62zm-3.67 0h-2.6V28h2.6zm-3.66 0h-2.6V28h2.6zm-3.66 0h-2.62V28h2.62z" class="B"/><g class="I J K L"><path d="M380.92 91.33h1.82m-1.82-2.06h1.82m-1.82-2.04h1.82m3.1 4.1h1.82"/><path d="M385.83 89.27h1.82m-1.82-2.05h1.82"/></g><circle cx="400.5" cy="82.43" r="3.82" class="H"/><path d="M397.67 83.7a3.1 3.1 0 0 0 5.67 0z" class="D"/><path d="M447.42 42.2h2.4m-59.5-10.96h1.85m-11.66 0h1.85m-1.85-2.08h1.85m-1.85-2.06h1.85" class="I J K L"/><path d="M382.37 25.45h7.96v7.96h-7.96z" class="H"/><path d="M390.33 27.1h1.85" class="I J K L"/><path d="M394.95 28h2.6v2.6h-2.6zm3.65 0h2.6v2.6h-2.6zm3.67 0h2.6v2.6h-2.6zm3.67 0h2.6v2.6h-2.6zm3.66 0h2.6v2.6h-2.6zm3.66 0h2.6v2.6h-2.6zm3.67 0h2.6v2.6h-2.6zm3.67 0h2.6v2.6h-2.6zm3.65 0h2.6v2.6h-2.6zm3.65 0h2.6v2.6h-2.6z" class="G"/><path d="M427.9 26.94h-34v4.7h37.68v-4.7zm2.62 3.66h-2.62V28h2.62zm-3.67 0h-2.6V28h2.6zm-3.66 0h-2.6V28h2.6zm-3.66 0h-2.6V28h2.6zm-3.66 0h-2.62V28h2.62zm-3.67 0h-2.6V28h2.6zm-3.66 0h-2.6V28h2.6zm-3.66 0h-2.62V28h2.62zm-3.67 0h-2.6V28h2.6zm-3.66 0H395V28h2.6z" class="B"/><path d="M394.03 38.72v-5.74h8.27v5.74z" class="C"/><g class="D"><circle cx="395.73" cy="37.07" r=".82"/><circle cx="398.19" cy="37.07" r=".82"/><circle cx="400.66" cy="37.07" r=".82"/><circle cx="395.73" cy="34.61" r=".82"/><circle cx="398.19" cy="34.61" r=".82"/><circle cx="400.65" cy="34.61" r=".82"/></g><g class="J K L"><circle cx="407.35" cy="35.43" r="1.42"/><circle cx="412.01" cy="35.43" r="1.42"/></g><g class="C"><circle cx="386.35" cy="29.43" r="2.61"/><path d="M449.82 40.77h5.7v2.84h-5.7zm-13.32-4.83h2.47v5.1h-2.47zm-16.45 2.46h2.47v2.2h-2.47zm0-3.46h2.47v2.2h-2.47zm2.5 9.8h2.47v3.77h-2.47zm.01 4.15h2.47v3.77h-2.47z"/></g><path d="M425.03 53.8h1.83m-6.12 0h1.83" class="I J K L"/><path d="M422.57 52.97h2.47v1.65h-2.47z" class="C"/><g class="I J K L"><path d="M405.04 55.36v1.82m2.04-1.82v1.82m2.05-1.82v1.82m2.05-1.82v1.82m2.08-1.82v1.82m-8.22-14.98V44m2.04-1.8V44m2.05-1.8V44m2.05-1.8V44m2.08-1.8V44m-11.63 9.8h1.83m-1.83-2.04h1.83m-1.83-2.06h1.83m-1.83-2.04h1.83m-1.83-2.1h1.83m11.34 8.23h1.83"/><path d="M414.8 51.76h1.83m-1.83-2.06h1.83m-1.83-2.04h1.83m-1.83-2.1h1.83"/></g><path d="M403.46 44h11.35v11.35h-11.35zm-9.18 4.26h3.1v7h-3.1zm.2-5.56h2.47v1.65h-2.47zm-11.73 43.42h3.1v6.3h-3.1zm10.3 4.38h2.47v1.65h-2.47z" class="C"/><path d="M386.6 59.68h1.82" class="I J K L"/><path d="M384.12 59.12h2.47v5.18h-2.47z" class="C"/><path d="M403.24 76.14h1.82m-1.82-2.04h1.82m-1.82-2.05h1.82M403.24 70h1.82" class="I J K L"/><path d="M373.63 66.28h4.46v18.27h-4.46z" class="D"/><path d="M378.62 85.07h-5.5V65.75h5.5zm-4.46-1h3.4V66.8h-3.4z" class="B"/><path d="M378.1 68.4h16.02v14.04H378.1z" class="D"/><path d="M394.63 83h-17.06V67.86h17.06zm-16-1h15V69h-15z" class="B"/><path d="M379.8 78.34h12.07V81H379.8z" class="E"/><path d="M379.8 69.87h12.07v.93H379.8zm0 1.63h12.07v2.05H379.8z" class="H"/><path d="M405.06 68.45h4.38v9.24h-4.38z" class="C"/><path d="M415.24 64.38h48.9v15.95h-48.9z" class="G"/><path d="M464.67 80.85h-50v-17h50zm-48.9-1h47.86V64.9h-47.86z" class="B"/><g class="F"><use xlink:href="#B"/><use xlink:href="#B" x="3.9"/><use xlink:href="#B" x="7.82"/><use xlink:href="#B" x="11.7"/><use xlink:href="#B" x="15.6"/><use xlink:href="#B" x="31.22"/><use xlink:href="#B" x="35.12"/><use xlink:href="#B" x="39.03"/><use xlink:href="#B" x="42.93"/><use xlink:href="#B" x="19.5"/><use xlink:href="#B" x="23.42"/><use xlink:href="#B" x="27.32"/><use xlink:href="#B" y="9.98"/><use xlink:href="#B" x="3.9" y="9.98"/><use xlink:href="#B" x="7.82" y="9.98"/><use xlink:href="#B" x="11.7" y="9.98"/><use xlink:href="#B" x="15.6" y="9.98"/><use xlink:href="#B" x="31.22" y="9.98"/><use xlink:href="#B" x="35.12" y="9.98"/><use xlink:href="#B" x="39.03" y="9.98"/><use xlink:href="#B" x="42.93" y="9.98"/><use xlink:href="#B" x="19.5" y="9.98"/><use xlink:href="#B" x="23.42" y="9.98"/><use xlink:href="#B" x="27.32" y="9.98"/></g><path d="M459.53 43.4a.93.93 0 0 1-.38-.38 1.34 1.34 0 0 1-.13-.58v-.84a1.34 1.34 0 0 1 .13-.58 1 1 0 0 1 .38-.39 1.27 1.27 0 0 1 1.12 0 .93.93 0 0 1 .35.37 1.21 1.21 0 0 1 .14.58v.84a1.21 1.21 0 0 1-.14.58.85.85 0 0 1-.37.38 1.19 1.19 0 0 1-1.12 0zm.86-.42a.48.48 0 0 0 .19-.21.62.62 0 0 0 .07-.31v-.88a.62.62 0 0 0-.07-.31.48.48 0 0 0-.19-.21.6.6 0 0 0-.6 0 .48.48 0 0 0-.19.21.62.62 0 0 0-.07.31v.88a.62.62 0 0 0 .07.31.48.48 0 0 0 .19.21.6.6 0 0 0 .6 0zm1.4-2.45h.54l1.28 2.3-.05.06v-2.35h.44v3h-.54l-1.28-2.26v2.3h-.48z" class="H"/><path d="M452.67 40.1v-3.34m-2.1 3.34l-2.36-2.36m6.68 2.36l2.36-2.36m-4.57 6.4v3.34m-2.1-3.34l-2.36 2.36m6.68-2.36l2.36 2.36" stroke="#0d90e8" class="I J"/><path d="M449.82 40.77h5.7v2.84h-5.7z" class="F"/><path d="M529.8 21.04h9.26V56.6h-9.26z" class="D"/><path d="M539.6 24.3v-3.78h-10.3V56.6h1.05V21.57h8.2V56.6h1.05V24.3z" class="B"/><path d="M539.08,11h-3.76v8h-1.75V11h-3.76v1.13a3.63,3.63,0,0,1,0,5V21h9.27V16.86a3.56,3.56,0,0,1,0-4.4Z" class="E"/><path d="M539.6 21.57h-10.3V17l.14-.15a3.09 3.09 0 0 0 0-4.28l-.14-.15v-1.9h4.8v8h.7v-8h4.8v2.12l-.1.14a3.1 3.1 0 0 0 0 3.77l.1.15zm-9.26-1.05h8.2V17a4.15 4.15 0 0 1 0-4.76v-.72h-2.7v8H533v-8h-2.7V12a4.15 4.15 0 0 1 0 5.4z" class="B"/><path d="M536.6 21.9h1.67v34.7h-1.67z" class="E"/><path d="M530.8 21.9h.33v34.7h-.33zm.68 0h1v34.7h-1z" class="H"/><path d="M524.1 72.86h21.16V95.4H524.1z" class="C"/><path d="M545.8 95.9h-22.2V72.33h22.2zm-21.15-1h20.1V73.38h-20.1z" class="B"/><path d="M545.27 75.92h31.18v16.4h-31.18z" class="C"/><path d="M577 92.85h-32.26V75.4H577zm-31.2-1h30.14v-15.4H545.8z" class="B"/><path d="M526.06 70.6h16.77v2.25h-16.77z" class="D"/><path d="M543.35,73.38H525.53v-3.3h17.82Zm-16.77-1H542.3v-1.2H526.58Z" class="B"/><path d="M526.06 59.6h16.77V70.6h-16.77z" class="C"/><path d="M543.35,71.13H525.53V59.07h17.82Zm-16.77-1H542.3v-10H526.58Z" class="B"/><path d="M527.8 38.06h13.27V59.6H527.8z" class="D"/><path d="M541.6 60.12h-14.3V37.54h14.3zm-13.26-1h12.2V38.6h-12.2z" class="B"/><path d="M527.06 27.55h14.77v10.5h-14.77z" class="C"/><path d="M542.35 38.6h-15.8V27h15.8zm-14.76-1.05h13.7v-9.46h-13.7z" class="B"/><path d="M529.84 109h3.8v-9.3h1.76v9.3h3.8v-1.34a4.84 4.84 0 0 1 0-5.92v-4.6h-9.34v5a4.74 4.74 0 0 1 .76 2.61 4.69 4.69 0 0 1-.76 2.61z" class="E"/><path d="M539.7 109.56h-4.83v-9.3h-.72v9.3h-4.83v-2.37l.08-.13a4.37 4.37 0 0 0 0-4.65l-.08-.13v-5.63h10.38V102l-.12.14a4.33 4.33 0 0 0 0 5.26l.12.14zm-3.78-1h2.73v-.64a5.39 5.39 0 0 1 0-6.28V97.7h-8.28v4.3a5.45 5.45 0 0 1 0 5.52v1h2.73v-9.3h2.82z" class="B"/><path d="M526.06 95.45h16.9v2.08h-16.9z" class="D"/><path d="M543.48,98.06h-18V94.93h18Zm-16.9-1h15.85V96H526.58Z" class="B"/><path d="M537.6 38.88h2.4V58.7h-2.4z" class="E"/><path d="M538.26 28.43h2.5v8.7h-2.5zm3.4 45.27h2.63v20.8h-2.63z" class="G"/><path d="M575.64 79.17h-29.47v-1.4h29.47zm0-1.84h-29.47v-.56h29.47zm-49.8-3.63h1.67v20.8h-1.67zm-.84 0h.4v20.8h-.4z" class="F"/><path d="M539.03 60.5h2.78v9.2h-2.78zm7.14 27.4h29.47v3.57h-29.47z" class="G"/><path d="M527.23 60.5h.54v9.2h-.54zm1 0h1.67v9.2h-1.67z" class="F"/><path d="M539.03 71.4h2.78v.72h-2.78z" class="E"/><path d="M527.23 71.4h.54v.72h-.54zm1 0h1.67v.72h-1.67zm.64-32.52h.28V58.7h-.28zm.6 0h1.3V58.7h-1.3z" class="H"/><path d="M528.15 28.43h.62v8.7h-.62zm1.02 0h1.67v8.7h-1.67z" class="F"/><path d="M539.02 96.24h2.78v.54h-2.78z" class="E"/><path d="M527.2 96.24h.54v.54h-.54zm1.02 0h1.67v.54h-1.67z" class="H"/><path d="M658.45 10.77v56.8h6.17v-56.8zm3.1 2a.59.59 0 1 1-.59.59.58.58 0 0 1 .59-.58z" class="E"/><path d="M661.54 15a1.64 1.64 0 1 1 1.63-1.63 1.63 1.63 0 0 1-1.63 1.63zm0-2.22a.59.59 0 1 0 .58.59.58.58 0 0 0-.58-.59z" class="B"/><path d="M659.72 16.43h.84v51.14h-.84z" class="D"/><path d="M665.15 10.25h-7.22v4.2h-.01v53.1h1.06V11.3h5.12v56.27h1.05V10.25z" class="B"/><path d="M644 88.58h23.45v10.57H644z" class="C"/><path d="M668 99.67h-24.52V88.05H668zm-23.46-1h22.4V89.1h-22.42z" class="B"/><path d="M644 99.15h23.45v3.7H644z" class="C"/><path d="M668 103.38h-24.52v-4.76H668zm-23.46-1h22.4v-2.7h-22.42z" class="B"/><path d="M644 86.3h23.45v2.27H644z" class="C"/><path d="M668 89.1h-24.52v-3.3H668zm-23.46-1h22.4v-1.26h-22.42z" class="B"/><path d="M644 58.9h11.6v27.4H644z" class="C"/><path d="M656.14 86.84h-12.66V58.4h12.66zm-11.6-1h10.56v-26.4h-10.56z" class="B"/><path d="M655.6 18.92h11.85v67.4H655.6z" class="D"/><path d="M668,86.84h-12.9V18.4H668Zm-11.85-1h10.8V19.45h-10.8Z" class="B"/><path d="M655.6 16.73h11.85v2.2H655.6z" class="D"/><path d="M668 19.45h-12.9V16.2H668zm-11.86-1.05h10.8v-1.14h-10.8z" class="B"/><path d="M658.57 102.85v5.92h5.68v-5.92zm2.84 3.64a.59.59 0 1 1 .59-.59.58.58 0 0 1-.59.59z" class="E"/><path d="M664.78 109.3h-6.73v-7h6.73zm-5.68-1h4.63v-4.87h-4.63zm2.3-.76a1.64 1.64 0 1 1 1.64-1.64 1.63 1.63 0 0 1-1.64 1.64zm0-2.22a.59.59 0 1 0 .59.58.58.58 0 0 0-.59-.58z" class="B"/><path d="M664.2 89.38h2.42v9h-2.42zm-11.67-29.72h2.27v25.86h-2.27z" class="G"/><path d="M645.9 59.66h1.4v25.86h-1.4zm-.96 0h.53v25.86h-.53zm.96 40.26h1.4v2.16h-1.4zm-.96 0h.53v2.16h-.53zm.96-10.54h1.4v9h-1.4zm-.96 0h.53v9h-.53zm.96-2.28h1.4v.65h-1.4zm-.96 0h.53v.65h-.53z" class="F"/><path d="M664.2 99.92h2.42v2.16h-2.42zm0-12.78h2.42v.63h-2.42z" class="G"/><path d="M664.14 19.76h2.46v65.76h-2.46z" class="E"/><path d="M656.6 19.76h.5v65.76h-.5zm.9 0h1.53v65.76h-1.53z" class="H"/><path d="M772.33 18.18h9.52v54.28h-9.52z" class="D"/><path d="M779.4 19.2h1.45v53.3h-1.45z" class="E"/><path d="M773.18 19.2h.36v53.3h-.36zm.72 0h1.08v53.3h-1.08z" class="H"/><path d="M771.8 17.7h1.05v54.75h-1.05zm9.52 0h1.05v54.75h-1.05z" class="B"/><path d="M770.98 16.55h12.35v1.65h-12.35z" class="D"/><path d="M783.86,18.72h-13.4V16h13.4Zm-12.35-1h11.3v-.6h-11.3Z" class="B"/><path d="M770.98 11.34h16.46v5.2h-16.46z" class="E"/><path d="M788 17.07h-17.54V10.8H788zM771.5 16h15.4v-4.14h-15.4z" class="B"/><path d="M770.16 80.7h17v20.03h-17z" class="C"/><path d="M787.7,101.25H769.64V80.17H787.7Zm-17-1h16v-19h-16Z" class="B"/><path d="M771.8 38.5h10.7v42.2h-10.7z" class="D"/><path d="M783,81.22H771.28V38H783Zm-10.7-1H782V39h-9.65Z" class="B"/><path d="M787.17 85.53h20.3v13.72h-20.3z" class="C"/><path d="M808,99.78H786.65V85H808Zm-20.3-1H807V86.06H787.7Z" class="B"/><path d="M769.6 25.88h18.93V38.5H769.6z" class="C"/><path d="M789.07 39h-20V25.35h20zm-18.93-1H788V26.4h-17.86z" class="B"/><path d="M774.72 109.26h3.2v-6.37h1.5v6.37h3.2v-1.1a4 4 0 0 1 0-4.94v-2.48h-7.9v2.77a4 4 0 0 1 0 4.36z" class="E"/><path d="M783.14 109.8h-4.25v-6.37h-.44v6.37h-4.25v-2.1l.08-.13a3.47 3.47 0 0 0 0-3.78l-.08-.13v-3.46h8.94v3.2l-.12.15a3.44 3.44 0 0 0 0 4.26l.12.15zm-3.2-1.05h2.15v-.4a4.51 4.51 0 0 1 0-5.3v-1.78h-6.84v2.1a4.56 4.56 0 0 1 0 4.66v.73h2.15v-6.37h2.54z" class="B"/><path d="M773.18 81.58v18.4h-1.3v-18.4zm-1.56 0v18.4h-.52v-18.4z" class="F"/><path d="M783.7 99.97v-18.4h2.63v18.4z" class="G"/><path d="M806.65 87.92H788v-.95h18.65zm0-1.18H788v-.38h18.65z" class="F"/><path d="M788 96.7h18.65v1.76H788z" class="G"/><path d="M779.43 39.32h1.9v40.46h-1.9z" class="E"/><path d="M772.72 39.32h.46v40.46h-.46zm.9 0h1.4v40.46h-1.4z" class="H"/><path d="M772.72 26.67v10.97h-1.4V26.67zm-1.72 0v10.97h-.47V26.67z" class="F"/><path d="M784.94 37.63V26.66h2.82v10.97z" class="G"/><path d="M891.66 106.23V36.8h17.1v69.44z" class="C"/><path d="M908.23 36.78v68.92h-16.05V36.78h-1.05v69.97h18.15V36.78h-1.05z" class="B"/><path d="M882.82 106.23h34.5v2.8h-34.5z" class="C"/><path d="M917.84 109.55H882.3v-3.85h35.55zm-34.5-1h33.45v-1.75h-33.45z" class="B"/><path d="M888.57 11.02h23V88.9h-23z" class="H"/><path d="M912.1 89.43h-24V10.5h24zm-23-1.05H911V11.55h-21.9z" class="B"/><path d="M906.32 12.06h2.3v75.16h-2.3zm-14.77.1h2.3V87.3h-2.3z" class="E"/><path d="M854.16 15v5.66H946V15zm7 3.42a.59.59 0 0 1-.58-.59.59.59 0 0 1 1.17 0 .59.59 0 0 1-.64.54zm5.64 0a.58.58 0 0 1-.59-.59.59.59 0 0 1 1.18 0 .58.58 0 0 1-.64.54zm66.63 0a.59.59 0 0 1-.58-.59.58.58 0 0 1 .58-.58.59.59 0 0 1 .59.58.6.6 0 0 1-.64.54zm5.64 0a.59.59 0 0 1-.58-.59.58.58 0 1 1 1.16 0 .59.59 0 0 1-.65.54z" class="C"/><g class="B"><path d="M946.5 21.14h-92.87v-6.7h92.87zm-91.82-1.05h90.77v-4.6h-90.77zm6.42-.67a1.64 1.64 0 1 1 1.64-1.64 1.65 1.65 0 0 1-1.64 1.64zm0-2.22a.58.58 0 0 0-.58.58.59.59 0 1 0 1.17 0 .58.58 0 0 0-.59-.58z"/><use xlink:href="#C"/></g><circle cx="892.7" cy="17.78" r="1.11" class="D"/><use xlink:href="#C" x="25.95" class="B"/><circle cx="907.47" cy="17.78" r="1.11" class="D"/><use xlink:href="#C" x="40.72" class="B"/><g class="D"><circle cx="907.47" cy="24.3" r=".56"/><circle cx="907.47" cy="30.82" r=".56"/><circle cx="907.45" cy="37.34" r=".56"/><circle cx="907.45" cy="43.86" r=".56"/><circle cx="892.69" cy="24.3" r=".56"/><circle cx="892.69" cy="30.82" r=".56"/><circle cx="892.67" cy="37.34" r=".56"/><circle cx="892.67" cy="43.86" r=".56"/><circle cx="907.47" cy="58.67" r=".56"/><circle cx="907.47" cy="65.19" r=".56"/><circle cx="907.45" cy="71.71" r=".56"/><circle cx="907.45" cy="78.23" r=".56"/><circle cx="892.69" cy="58.67" r=".56"/><circle cx="892.69" cy="65.19" r=".56"/><circle cx="892.67" cy="71.71" r=".56"/><circle cx="892.67" cy="78.23" r=".56"/></g><path d="M854.16 49.08v5.66H946v-5.66zm7.34 3.4a.59.59 0 1 1 .58-.58.58.58 0 0 1-.58.58zm5.64 0a.59.59 0 1 1 .58-.58.58.58 0 0 1-.58.58zm66.24 0a.59.59 0 0 1 0-1.17.59.59 0 1 1 0 1.17zm5.64 0a.59.59 0 1 1 .58-.58.58.58 0 0 1-.6.58z" class="C"/><circle cx="892.68" cy="51.91" r="1.11" class="D"/><use xlink:href="#D" class="B"/><circle cx="907.45" cy="51.91" r="1.11" class="D"/><g class="B"><use xlink:href="#E"/><use xlink:href="#E" x="-45.95"/><use xlink:href="#E" x="-40.31"/><use xlink:href="#C" x="72.25"/><path d="M933.38 19.42a1.64 1.64 0 1 1 1.62-1.64 1.64 1.64 0 0 1-1.62 1.64zm0-2.22a.58.58 0 0 0-.58.58.59.59 0 0 0 .58.59.6.6 0 0 0 .59-.59.59.59 0 0 0-.59-.58z"/><use xlink:href="#D" x="46.32"/><path d="M933.38 53.54a1.64 1.64 0 0 1 0-3.27 1.64 1.64 0 1 1 0 3.27zm0-2.22a.59.59 0 0 0-.58.59.58.58 0 0 0 .58.58.59.59 0 0 0 .59-.58.6.6 0 0 0-.59-.59zm13.12 3.94h-92.87v-6.7h92.87zm-91.82-1h90.77V49.6h-90.77z"/></g><path d="M1008.14 10.65h5.2v98h-5.2z" class="D"/><path d="M1013.86 109.17h-6.25v-99h6.25zm-5.2-1h4.15v-97h-4.15z" class="B"/><path d="M1026.57 10.65h5.2v98h-5.2z" class="D"/><path d="M1032.3 109.17h-6.25v-99h6.25zm-5.2-1h4.15v-97h-4.15z" class="B"/><path d="M1013.34 11.9h13.23v95.52h-13.23z" class="D"/><path d="M1027.1 107.93h-14.3V11.36h14.3zm-13.24-1.05h12.2V12.4h-12.2z" class="B"/><path d="M1027.96 11.9h1.05v95.52h-1.05zm-16 95.5h-1.05V11.9h1.05z" class="H"/><path d="M1014.76 13.44H1025v92.75h-10.25z" class="E"/><path d="M1015.24 13.44h1.43v92.75h-1.43zm7.86 0h1.43v92.75h-1.43z" class="H"/><path d="M1006.5 40.64h26.92v38.02h-26.92z" class="C"/><path d="M1033.94 79.18h-28V40.1h28zM1007 78.13h25.87v-37H1007z" class="B"/><circle cx="1019.95" cy="59.77" r="4.72" class="F"/><path d="M1020 65a5.25 5.25 0 1 1 5.24-5.24A5.25 5.25 0 0 1 1020 65zm0-9.44a4.2 4.2 0 1 0 4.19 4.2 4.2 4.2 0 0 0-4.19-4.19z" class="B"/><circle cx="1019.95" cy="71.57" r="4.72" class="F"/><path d="M1020 76.82a5.25 5.25 0 1 1 5.24-5.25 5.25 5.25 0 0 1-5.24 5.25zm0-9.44a4.2 4.2 0 1 0 4.19 4.19 4.2 4.2 0 0 0-4.19-4.19z" class="B"/><circle cx="1019.95" cy="47.96" r="4.72" class="F"/><path d="M1020 53.2a5.25 5.25 0 1 1 5.2-5.21 5.26 5.26 0 0 1-5.2 5.21zm0-9.45a4.2 4.2 0 1 0 4.19 4.2 4.21 4.21 0 0 0-4.19-4.2z" class="B"/><circle cx="1029.52" cy="51.62" r="1.53" class="F"/><use xlink:href="#F" class="B"/><circle cx="1010.39" cy="51.62" r="1.53" class="F"/><use xlink:href="#F" x="-19.12" class="B"/><circle cx="1010.39" cy="67.68" r="1.53" class="F"/><path d="M1010.4 69.74a2.06 2.06 0 1 1 2.06-2.06 2.07 2.07 0 0 1-2.06 2.06zm0-3.07a1 1 0 1 0 1 1 1 1 0 0 0-1-1z" class="B"/><circle cx="1029.52" cy="67.68" r="1.53" class="F"/><use xlink:href="#F" y="16.06" class="B"/><path d="M1006.5 38.66h26.92v1.98h-26.92z" class="C"/><path d="M1033.94,41.16h-28v-3h28Zm-26.92-1h25.87v-.92H1007Z" class="B"/><path d="M1006.5 78.66h26.92v1.98h-26.92z" class="C"/><path d="M1033.94,81.16h-28v-3h28Zm-26.92-1h25.87v-.93H1007Z" class="B"/><path d="M1134.9 10.77h9.04V53.6h-9.04z" class="D"/><path d="M1141.94 11.92h.95V53.6h-.95z" class="E"/><path d="M1135.97 11.92h.38V53.6h-.38zm.76 0h1.14V53.6h-1.14z" class="H"/><path d="M1135.43 53.76V11.3h8v42.47h1.05V10.24h-10.1v43.52h1.05z" class="B"/><path d="M1134 36.95h10.82v44.43H1134z" class="D"/><path d="M1142.24 38.03h1.58V81.4h-1.58z" class="E"/><path d="M1134.98 38.03h.44V81.4h-.44zm.8 0h1.32V81.4h-1.32z" class="H"/><path d="M1133.5 36.43v44.95h1.05v-43.9h9.77v43.9h1.05V36.43h-11.87z" class="B"/><g class="C"><path d="M1145.72 96.03V63.55h-12.6v37.65h22.4l-9.8-5.17z"/><path d="M1131.9 101.2h28.4v7.56h-28.4z"/></g><g class="B"><path d="M1160.8 109.3h-29.44v-8.6h29.44zm-28.4-1.05h27.34v-6.5h-27.34z"/><path d="M1146.25 95.7V62.9h-13.66v38.84h25.06zm-12.6-7.85V63.94h11.56v32.4l8.2 4.33h-19.76z"/></g><path d="M1134.9 64.66h1.56v35.7h-1.56zm-.68 0h.3v35.7h-.3zm-.55 37.4h1.46v5.78h-1.46zm-.64 0h.28v5.78h-.28z" class="F"/><path d="M1238.52 20.47h70v10.95h-70z" class="D"/><path d="M1309 32h-71V20h71zm-70-1.05h69V21h-68.94z" class="B"/><path d="M1301.7 16.53h6.83v18.83h-6.83z" class="D"/><path d="M1309 35.9h-7.88V16h7.88zm-6.83-1h5.83V17.05h-5.78z" class="B"/><path d="M1300.53 21.48v.42h-61.03v-.42zm0 .8v1.17h-61.03v-1.17z" class="H"/><path d="M1300.53 27.68v2.76h-61.03v-2.76z" class="E"/><path d="M1307.5 17.58v.54h-4.84v-.54zm0 .97v1.33h-4.84v-1.33z" class="H"/><path d="M1307.5 31.57v2.76h-4.84v-2.76zm-15.35-20.37v61.54h-37.26V11.2h-9.54V77a4.53 4.53 0 0 0 4.77 4.23h46.8a4.53 4.53 0 0 0 4.77-4.23V11.2z" class="E"/><path d="M1296.92 81.7h-46.8a5 5 0 0 1-5.29-4.75V10.67h10.58V72.2h36.22V10.67h10.58V77a5 5 0 0 1-5.29 4.7zm-51-70V77a4 4 0 0 0 4.24 3.7h46.8a4 4 0 0 0 4.24-3.7V11.72h-8.48v61.53h-38.32V11.72z" class="B"/><path d="M1241.13 43.26a16 16 0 0 0-27.21 11.36v54.57h71V95.74zm-10.8 16.24a6.66 6.66 0 1 1 6.66-6.66 6.66 6.66 0 0 1-6.66 6.66z" class="C"/><path d="M1285.44 109.72h-72v-55.1a16.5 16.5 0 0 1 28.09-11.74h0l43.9 52.63zm-71-1h69.94v-12.8l-43.65-52.32a15.45 15.45 0 0 0-26.29 11zm15.9-48.72a7.18 7.18 0 1 1 7.18-7.18 7.19 7.19 0 0 1-7.18 7.18zm0-13.3a6.13 6.13 0 1 0 6.13 6.13 6.14 6.14 0 0 0-6.13-6.11z" class="B"/><path d="M1380 74.8h0c-1.34 0-2.43-4.34-2.43-9.7L1370.3 20a9.69 9.69 0 0 1 9.69-9.69h0a9.69 9.69 0 0 1 9.69 9.69l-7.27 45.08c0 5.4-1.1 9.73-2.4 9.73z" class="D"/><path d="M1385.9 21.14v.12l-6 53.2 8-53.13v-.12a11.81 11.81 0 0 0-.18-1.33z" class="E"/><path d="M1372.53 21.55l5.6 41.44-4.26-40.63-1.33-.8z" class="H"/><path d="M1380 75.34c-2 0-3-5.27-3-10.18L1369.77 20a10.22 10.22 0 0 1 20.43 0v.08l-7.26 45c-.01 5-.94 10.26-2.94 10.26zM1370.82 20l7.27 45.12c0 5.93 1.25 9.17 1.9 9.17s1.9-3.24 1.9-9.17V65l7.26-45a9.17 9.17 0 0 0-18.33 0z" class="B"/><path d="M1356.04 56.74h47.9v30.64h-47.9z" class="C"/><path d="M1404.46 87.9h-49V56.2h49zm-47.9-1.05h46.85v-29.6h-46.85z" class="B"/><path d="M1367.3 53.43h25.36v3.3h-25.36z" class="E"/><path d="M1393.2 57.26h-26.4V52.9h26.4zm-25.36-1h24.3V54h-24.3z" class="B"/><path d="M1383.48 44.33h.6l.17-1.77h-.62l-.15 1.77zm-7.54 0h.46l-.17-1.77h-.46l.17 1.77zm.86 0h1.3l-.17-1.77h-1.3l.17 1.77z" fill="#3995aa"/><path d="M1371.15 43.1h17.67v10.3h-17.67z" class="E"/><path d="M1389.35,54h-18.73V42.58h18.73Zm-17.68-1.05h16.63V43.63h-16.63Z" class="B"/><path d="M1359.04 86.06h2.8v22.45h-2.8z" class="E"/><path d="M1362.36,109h-3.85V85.53h3.85Zm-2.8-1.05h1.75V86.58h-1.75Z" class="B"/><path d="M1398.13 86.06h2.8v22.45h-2.8z" class="E"/><path d="M1401.46,109h-3.85V85.53h3.85Zm-2.8-1.05h1.75V86.58h-1.75Z" class="B"/><path d="M1390.53 44.34v-1.5l-21.1 2.26v1.48l21.1-2.25z" class="E"/><path d="M1368.92,47.18V44.64l22.13-2.37v2.54Zm1-1.6V46l20-2.14v-.43Z" class="B"/><path d="M1369.44 49.56l21.1-2.25v-1.5l-21.1 2.26v1.48z" class="E"/><path d="M1368.92 50.15V47.6l22.13-2.37v2.54zm1-1.6V49l20-2.15v-.42z" class="B"/><path d="M1369.44 52.53l21.1-2.25v-1.5l-21.1 2.26v1.48z" class="E"/><path d="M1368.92,53.12V50.58l22.13-2.37v2.54Zm1-1.6V52l20-2.15v-.42Z" class="B"/><path d="M1384.48 91.08v-5h-9v5h-1.84v14.53l3.17 3h6.34l3.17-3V91.08zm-4.48 11.07a2.36 2.36 0 1 1 2.36-2.36 2.36 2.36 0 0 1-2.36 2.36z" class="E"/><path d="M1383.37 109.17h-6.76l-3.5-3.34V90.55h1.88v-5h10v5h1.85v15.28zm-6.34-1h5.9l2.86-2.74V91.6h-1.8v-5h-8v5h-1.85v13.78zm2.97-5.47a2.91 2.91 0 1 1 2.9-2.91 2.92 2.92 0 0 1-2.9 2.91zm0-4.76a1.86 1.86 0 1 0 1.85 1.85 1.85 1.85 0 0 0-1.85-1.85z" class="B"/><path stroke="#0d90e8" d="M1479.5 32.52l4.57-5.87 3.43 6.67 2.57-5.02 2.3 3.35 5.43-6.8 5.43 8.66 3-6.85 3.3 5.5 3.6-4.46 2.68 3.93 3.76-2.24" class="I J"/><path d="M1469.2 26.72h11.15v11.6h-11.15z" class="D"/><path d="M1480.5 38.85h-11.83V26.2h11.83zm-10.8-1.05h9.8V27.24h-9.8zm8.44-5.8h-2.83v-2.83h-1.05V32h-2.83v1.05h2.83v2.82h1.05v-2.82h2.83V32z" class="B"/><path d="M1519.55 26.72h11.15v11.6h-11.15z" class="D"/><path d="M1531.23 38.85H1519V26.2h12.2zm-11.15-1.05h10.1V27.24h-10.1zm1.7-5.8h6.7v1.05h-6.7z" class="B"/><path d="M1460.62 52.35h78.66v41h-78.66z" class="C"/><path d="M1539.8 93.85h-79.72v-42h79.72zm-78.67-1h77.62v-40h-77.62z" class="B"/><path d="M1499.04 66.92v8.8l1.84-2.94v13.66l4.2-19.43-2.36 2.86.5-8.7-2.35 2.86v-8.05l-3.7 5.24v8.65l1.85-2.94z" class="E"/><path d="M1500.36 91.35V74.6l-1.85 3v-8.84l-1.84 2.94V61.05l4.74-6.74v8.24l2.44-3-.5 8.7 2.7-3.3zm1.05-20.4V81.5l2.7-12.5-2 2.43.5-8.7-2.26 2.75v-7.85l-2.64 3.75V68l1.84-3v8.8z" class="B"/><path d="M1460.62 47.93h78.66v4.47h-78.66z" class="F"/><path d="M1539.8 52.92h-79.72V47.4h79.72zm-78.67-1.05h77.62v-3.42h-77.62z" class="B"/><path d="M1460.62 38.25h78.66v9.68h-78.66z" class="C"/><path d="M1539.8 48.45h-79.72V37.73h79.72zm-78.67-1.05h77.62v-8.62h-77.62z" class="B"/><path d="M1533.24 53.53h3.93v38.44h-3.93zm0-14.06h3.93v7.36h-3.93z" class="G"/><path d="M1462.64 53.53h.82v38.44h-.82zm1.73 0h2.24v38.44h-2.24zm-2-14.06h.82v7.36h-.82zm1.72 0h2.24v7.36h-2.24z" class="F"/><path d="M1621.14 13.45l1.424-4.448 1 .32-1.424 4.448zm-4.895-4.226l.997-.33 1.462 4.435-.997.33zm-4.875 4.066l.614-.852 3.8 2.73-.614.852zm12.687 1.85l3.766-2.762.62.847-3.766 2.762z" class="B"/><path d="M1650.83 83.34h-8.3v7.95h2.64v-5.3h5.67v5.3h2.64v-7.95h-2.64z" class="F"/><path d="M1654 91.82h-3.7v-5.3h-4.6v5.3h-3.7v-9h12zm-2.64-1h1.6v-6.9h-9.9v6.9h1.6v-5.36h6.7z" class="B"/><path d="M1646.73 65.87h2.53v17.47h-2.53z" class="D"/><path d="M1649.8 83.87h-3.58V65.35h3.58zm-2.53-1.05h1.48V66.4h-1.48z" class="B"/><path d="M1594.76 83.34h-8.3v7.95h2.64v-5.3h5.66v5.3h2.64v-7.95h-2.64z" class="F"/><path d="M1597.93 91.82h-3.7v-5.3h-4.62v5.3h-3.7v-9h12zm-2.64-1h1.6v-6.9H1587v6.9h1.6v-5.36h6.72z" class="B"/><path d="M1590.67 65.87h2.53v17.47h-2.53z" class="D"/><path d="M1593.72,83.87h-3.58V65.35h3.58Zm-2.53-1.05h1.48V66.4h-1.48Z" class="B"/><path d="M1606.67 27.85h26.5v26.5h-26.5z" class="C"/><path d="M1633.7 54.88h-27.56V27.32h27.56zm-26.5-1.05h25.46V28.37h-25.46z" class="B"/><path d="M1630.88 28.8h1.37v24.54h-1.37z" class="G"/><g class="F"><path d="M1607.74 28.8h.43v24.54h-.43zm.66 0h.77v24.54h-.77z"/><circle cx="1614.4" cy="37.43" r="3.25"/></g><path d="M1614.4 41.2a3.78 3.78 0 1 1 3.77-3.78 3.79 3.79 0 0 1-3.77 3.78zm0-6.5a2.73 2.73 0 1 0 2.72 2.72 2.73 2.73 0 0 0-2.72-2.72z" class="B"/><circle cx="1625.45" cy="37.43" r="2.3" class="F"/><path d="M1625.45 40.26a2.83 2.83 0 1 1 2.82-2.83 2.83 2.83 0 0 1-2.82 2.83zm0-4.6a1.78 1.78 0 1 0 1.77 1.77 1.78 1.78 0 0 0-1.77-1.77zM1611.4 50.4l-.5-.92 4.32-2.4 2.44 1.55 2.3-1.5 2.8 1.7 2.36-3.7 4 4.47-.78.7-3.07-3.44-2.17 3.4-3.1-1.88-2.32 1.5-2.47-1.57-3.78 2.1z" class="B"/><circle cx="1619.92" cy="18.85" r="2.3" class="F"/><g class="B"><path d="M1619.92 21.68a2.83 2.83 0 1 1 2.83-2.83 2.83 2.83 0 0 1-2.83 2.83zm0-4.6a1.78 1.78 0 1 0 1.78 1.77 1.77 1.77 0 0 0-1.78-1.77z"/><path d="M1619.44 21.15h1.05v6.7h-1.05z"/></g><path d="M1599.82 60.47h40.28V93.1h-40.28z" class="C"/><path d="M1640.63,93.63H1599.3V60h41.33Zm-40.28-1h39.23V61h-39.23Z" class="B"/><path d="M1601.3 61.73h.56v30.15h-.56zm1.2 0h1.44v30.15h-1.44z" class="F"/><path d="M1635.2 61.73h3.46v30.15h-3.46z" class="G"/><path d="M1616.7 54.36h6.45v6.1h-6.45z" class="D"/><path d="M1623.67,61h-7.5V53.83h7.5Zm-6.45-1h5.4V54.88h-5.4Z" class="B"/><path d="M1621.64 107.77h9.96v2.34h-9.96z" class="C"/><path d="M1632.13,110.63h-11v-3.38h11Zm-10-1h8.92V108.3h-8.92Z" class="B"/><path d="M1623.4 93.1h6.45v14.66h-6.45z" class="D"/><path d="M1630.37,108.3h-7.5V92.58h7.5Zm-6.45-1h5.4V93.63h-5.4Z" class="B"/><path d="M1608.32 107.77h9.96v2.34h-9.96z" class="C"/><path d="M1618.8 110.63h-11v-3.38h11zm-10-1h8.9v-1.33h-8.9z" class="B"/><path d="M1610.08 93.1h6.45v14.66h-6.45z" class="D"/><path d="M1617.06,108.3h-7.5V92.58h7.5Zm-6.45-1h5.4V93.63h-5.4Z" class="B"/><path d="M1652.1 68.34h-12V63.4h12z" class="F"/><path d="M1652.62,68.86h-13v-6h13Zm-12-1h10.94V63.93h-10.94Z" class="B"/><path d="M1587.83 63.4h12v4.93h-12z" class="F"/><path d="M1600.35,68.86h-13v-6h13Zm-12-1h11V63.93h-11Z" class="B"/><path d="M1771 40.02h3.5v62.5h-3.5z" class="C"/><path d="M1775 103.05h-4.55V39.5h4.55zm-3.5-1h2.5v-61.5h-2.45z" class="B"/><path d="M1773.14 41.3h.6v60.15h-.6z" class="G"/><path d="M1766.23 44.53h13.04V61h-13.04z" class="C"/><path d="M1779.8 61.5h-14.1V44h14.1zm-13-1h12V45.05h-12z" class="B"/><path d="M1776.53 45.43h1.63v14.64h-1.63z" class="G"/><path d="M1767.18 45.43h.34v14.64h-.34zm.6 0h.9v14.64h-.9z" class="F"/><path d="M1768.46 35.95h8.6v8.58h-8.6z" class="D"/><path d="M1777.57 45.05h-9.64v-9.63h9.64zM1769 44h7.54v-7.53H1769zm1.48-5.17h1.05v2.4h-1.05zm3.5 0h1.05v2.4h-1.05z" class="B"/><path d="M1753.12 35.28h3.5v67.25h-3.5z" class="C"/><path d="M1757.15 103.05h-4.55v-68.3h4.55zm-3.5-1h2.45V35.8h-2.45z" class="B"/><path d="M1755.26 36.67h.6v64.72h-.6z" class="G"/><path d="M1748.36 39.57h13.04v16.46h-13.04z" class="C"/><path d="M1761.92 56.55h-14.1V39h14.1zm-13-1h12V40.1h-12z" class="B"/><path d="M1758.65 40.48h1.63v14.64h-1.63z" class="G"/><path d="M1749.3 40.48h.34v14.64h-.34zm.6 0h.9v14.64h-.9z" class="F"/><path d="M1750.58 31h8.6v8.58h-8.6z" class="D"/><path d="M1759.7 40.1h-9.63v-9.62h9.63zm-8.58-1.1h7.53v-7.48h-7.53zm1.48-5.13h1.05v2.4h-1.05zm3.5 0h1.05v2.4h-1.05z" class="B"/><path d="M1735.45 30.08h3.5v72.54h-3.5z" class="C"/><path d="M1739.48,103.15h-4.55V29.55h4.55Zm-3.5-1.05h2.45V30.6H1736Z" class="B"/><path d="M1737.6 31.57h.6v69.82h-.6z" class="G"/><path d="M1730.7 34.3h13.04v16.46h-13.04z" class="C"/><path d="M1744.25 51.28h-14.1v-17.5h14.1zm-13-1.05h12v-15.4h-12z" class="B"/><path d="M1740.98 35.2h1.63v14.64h-1.63z" class="G"/><path d="M1731.63 35.2h.34v14.64h-.34zm.6 0h.9v14.64h-.9z" class="F"/><path d="M1732.9 25.72h8.6v8.58h-8.6z" class="D"/><path d="M1742 34.82h-9.64V25.2h9.64zm-8.6-1h7.6v-7.58h-7.54zm1.53-5.22h1.05V31h-1.05zm3.5 0h1.05V31h-1.05z" class="B"/><path d="M1710.6 30.05h4.77v72.55h-4.77z" class="F"/><path d="M1715.9,103.13h-5.82V29.52h5.82Zm-4.77-1h3.72V30.57h-3.72Z" class="B"/><path d="M1713.7 31.5h.7v69.85h-.7z" class="C"/><path d="M1705.4 17.27h3.03v10.78h-3.03z" class="D"/><path d="M1709 28.57h-4.08V16.74h4.08zm-3-1.05h2V17.8h-2z" class="B"/><path d="M1717.55 17.27h3.03v10.78h-3.03z" class="D"/><path d="M1721.1 28.57h-4.1V16.74h4.08zm-3-1.05h2V17.8h-2z" class="B"/><path d="M1700.65 28.05v15.62l7.98 5.73h8.73l7.97-5.73V28.05h-24.68z" class="F"/><path d="M1717.53 49.93h-9.07l-8.33-6v-16.4h25.73v16.42zm-8.74-1h8.4l7.62-5.47v-14.9h-23.63V43.4z" class="B"/><path d="M1722.58 29.1v13.16l-8.66 6.2h2.17l7.87-5.65V29.1h-1.38z" class="C"/><path d="M1905.85 54.62v3.93h-18.73V54.4h-2.86v7h24.45v-6.8h-2.86z" class="D"/><path d="M1909.23 61.93h-25.5v-8h3.9V58h17.7v-3.9h3.9zm-24.44-1h23.4v-5.8h-1.8v3.94h-19.8v-4.15h-1.8z" class="B"/><path d="M1830.35 46.92h36.25V73.4h-36.25z" class="D"/><path d="M1867.13 73.92h-37.3V46.4h37.3zm-36.26-1h35.2V47.44h-35.2z" class="B"/><path d="M1816.84 48.4h13.5v22.77h-13.5z" class="C"/><path d="M1830.87 71.68h-14.56V47.86h14.56zm-13.5-1.05h12.46V48.9h-12.46z" class="B"/><path d="M1866.6 45.08h23.13v30.15h-23.13z" class="C"/><path d="M1890.25 75.76h-24.17v-31.2h24.17zm-23.12-1.05h22.07V45.6h-22.07z" class="B"/><path d="M1810.3 64.94h6.54v1.94h-6.54z" class="D"/><path d="M1817.36 67.4h-7.6v-3h7.6zm-6.54-1h5.5v-.9h-5.5z" class="B"/><path d="M1810.3 53.43h6.54v1.94h-6.54z" class="D"/><path d="M1817.36 55.9h-7.6v-3h7.6zm-6.54-1h5.5V54h-5.5z" class="B"/><path d="M1889.73 55.48h3.27v8.58h-3.27z" class="D"/><path d="M1893.52 64.6h-4.32V55h4.32zm-3.27-1.05h2.22V56h-2.22z" class="B"/><path d="M1890.44 56.3h1.85v.52h-1.85z" class="H"/><path d="M1890.44 62.48h1.85v.86h-1.85z" class="E"/><path d="M1831.4 48.3h33.97v.98h-33.97zm0 1.57h33.97v1.63h-33.97z" class="H"/><path d="M1867.72 46.3h20.97v.63h-20.97zm0 1.1h20.97v1.4h-20.97z" class="F"/><path d="M1867.72 71.53h20.97v2.5h-20.97z" class="G"/><path d="M1817.72 49.3h11.73v.4h-11.73zm0 .68h11.73v.8h-11.73z" class="F"/><path d="M1817.72 68.75h11.73v1.52h-11.73z" class="G"/><path d="M1831.5 69.22h33.97v2.72h-33.97z" class="E"/><path d="M1953.75 48.34c0 17.85 4 33.7 10.25 43.8h31.9c6.24-10.1 10.26-25.95 10.26-43.8a102.47 102.47 0 0 0-4.47-30.83h-43.47a102.48 102.48 0 0 0-4.46 30.83z" class="C"/><path d="M1996.18 92.66h-32.47l-.15-.25c-6.57-10.63-10.34-26.7-10.34-44.07a103 103 0 0 1 4.49-31l.12-.37h44.24l.1.37a103 103 0 0 1 4.5 31c0 17.38-3.77 33.44-10.34 44.07zm-31.88-1h31.3c6.37-10.47 10-26.22 10-43.27a102.46 102.46 0 0 0-4.3-30.39h-42.7a102.41 102.41 0 0 0-4.33 30.31c0 17.08 3.65 32.83 10.03 43.3z" class="B"/><path d="M1966.14 92.14a14.78 14.78 0 0 0 5.35 9.9h16.92a14.82 14.82 0 0 0 5.35-9.9zm19.35 7h-11.08a6.15 6.15 0 0 1-3.51-4.14h18.1a6.11 6.11 0 0 1-3.51 4.15z" class="D"/><path d="M1988.6 102.56h-17.3l-.14-.1a15.46 15.46 0 0 1-5.55-10.26l-.06-.58h28.8l-.07.58a15.41 15.41 0 0 1-5.54 10.26zm-16.93-1h16.55a14.35 14.35 0 0 0 4.94-8.85h-26.43a14.39 14.39 0 0 0 4.94 8.8zm13.95-1.84h-11.34l-.1-.06a6.62 6.62 0 0 1-3.78-4.49l-.1-.62h19.34l-.1.62a6.62 6.62 0 0 1-3.78 4.49zm-11.08-1h10.82a6 6 0 0 0 3-3.07h-16.72a5.92 5.92 0 0 0 2.9 2.97z" class="B"/><path d="M2004.54 46.84a105 105 0 0 0-3.61-28h-2.68a105.31 105.31 0 0 1 3.42 27.21c0 17.85-4 33.7-10.26 43.8h-24.64l.42.74h27.1c6.24-10.05 10.26-25.9 10.26-43.75z" class="G"/><path d="M1957.8 48.34a103.74 103.74 0 0 1 4-29.46h-1.5a103.75 103.75 0 0 0-4 29.46c0 16.58 3.47 31.43 9 41.55h1.5c-5.52-10.12-9-24.97-9-41.55z" class="F"/><path d="M1993.86 48.2a54.58 54.58 0 0 0-2.37-16.36h-23.08A54.27 54.27 0 0 0 1966 48.2l.1 3.44h27.62l.14-3.44z" class="E"/><path d="M1994.26 52.17h-28.62v-.5l-.1-3.47a54.89 54.89 0 0 1 2.39-16.52l.12-.37h23.84l.12.37a55.16 55.16 0 0 1 2.39 16.52l-.1 3.47zm-27.63-1.05h26.63l.07-2.92a54.28 54.28 0 0 0-2.23-15.84h-22.3a54.28 54.28 0 0 0-2.23 15.84l.06 2.92z" class="B"/><path d="M1966.14 56.8c.44 8.06 2.44 15.1 5.35 19.8h16.92c2.9-4.7 4.9-11.75 5.35-19.8z" class="E"/><path d="M1988.7 77.13h-17.5l-.15-.24c-3-4.88-5-12.2-5.43-20.06v-.55h28.74v.55c-.45 8-2.37 15.1-5.43 20.06zm-16.92-1h16.34c2.77-4.6 4.6-11.4 5.08-18.75h-26.5c.48 7.3 2.3 14.1 5.1 18.7z" class="B"/><path d="M1970.93 33h-1.35a55.35 55.35 0 0 0-2 15.19v2.2h1.42v-2.2a55.35 55.35 0 0 1 1.93-15.19zm-3.2 24.93a44.42 44.42 0 0 0 4.57 17.46h1.36c-2.4-4.42-4.06-10.53-4.58-17.46zM1986.7 64l-6.74 6.74-6.74-6.74h13.48zm-13.5-19.27l6.74-6.74 6.74 6.74h-13.48z" class="H"/><path d="M1975.7 23.07h8.3v2.9h-8.3z" class="F"/><path d="M1980 71.48l-8-8h16zm-5.47-7L1980 70l5.47-5.47zM1988 45.25h-16l8-8zm-13.47-1h10.94l-5.47-5.52z" class="B"/><path d="M2143.1 40.38h-89.8a4.83 4.83 0 0 1-4.83 4.83v29.36a4.84 4.84 0 0 1 4.83 4.84h89.8a4.82 4.82 0 0 1 4.78-4.83V45.2a4.83 4.83 0 0 1-4.78-4.83zM2053 73.63a1.93 1.93 0 1 1 1.92-1.92 1.92 1.92 0 0 1-1.92 1.92zm0-23.55a1.92 1.92 0 1 1 1.93-1.92 1.92 1.92 0 0 1-1.93 1.92zm90.35 23.47a1.92 1.92 0 1 1 .03 0zm0-23.47a1.92 1.92 0 1 1 .03 0z" class="E"/><path d="M2143.63 79.93h-90.84v-.52a4.32 4.32 0 0 0-4.31-4.31h-.48V44.7h.53a4.32 4.32 0 0 0 4.31-4.31v-.53h90.84v.53a4.33 4.33 0 0 0 4.27 4.31h.5v30.4h-.5a4.33 4.33 0 0 0-4.27 4.31zm-89.82-1.05h88.8a5.37 5.37 0 0 1 4.75-4.8V45.7a5.38 5.38 0 0 1-4.75-4.81h-88.8a5.36 5.36 0 0 1-4.81 4.81v28.36a5.38 5.38 0 0 1 4.81 4.81zm-.8-4.73a2.45 2.45 0 1 1 2.45-2.44 2.45 2.45 0 0 1-2.47 2.44zm0-3.84a1.4 1.4 0 1 0 1.4 1.4 1.4 1.4 0 0 0-1.42-1.4zm90.36 3.77a2.45 2.45 0 1 1 2.45-2.45 2.45 2.45 0 0 1-2.45 2.45zm0-3.85a1.4 1.4 0 1 0 1.4 1.4 1.4 1.4 0 0 0-1.4-1.4zm0-19.62a2.45 2.45 0 1 1 2.45-2.45 2.45 2.45 0 0 1-2.45 2.45zm0-3.85a1.4 1.4 0 1 0 1.4 1.4 1.4 1.4 0 0 0-1.4-1.4zM2053 50.6a2.45 2.45 0 1 1 2.45-2.45 2.45 2.45 0 0 1-2.45 2.45zm0-3.85a1.4 1.4 0 1 0 1.4 1.4 1.4 1.4 0 0 0-1.4-1.4z" class="B"/><path d="M2078.34 48.6h8.66m-8.66 2.08h8.66m-8.66 2.02h8.66m-8.66 2.08h8.66m-20.25 5.42v3.02l-4.12 6.76m15.7-13.16h8.66m-18.2 3.38v3.02l5.66 7.55m-3.62-10.57v3.02l5.66 7.55m-3.6-10.57v3.02l5.66 7.55m-3.6-10.57v3.02l5.66 7.55m-25.2-10.97l5.74-7.07h2.2m-7.94 9.14l5.74-7.07h2.2m-7.94 9.1l5.74-7.07h2.2" stroke="#badce5" class="I J K"/><path d="M2084.06 42.46h2.6v2.6h-2.6zm3.66 0h2.6v2.6h-2.6zm3.66 0h2.6v2.6h-2.6zm3.67 0h2.6v2.6h-2.6zm3.65 0h2.6v2.6h-2.6zm3.67 0h2.6v2.6h-2.6zm3.66 0h2.6v2.6h-2.6zm3.67 0h2.6v2.6h-2.6z" class="G"/><path d="M2109.7 41.4H2083v4.7h30.35v-4.7zm2.6 3.66h-2.6v-2.6h2.6zm-3.66 0H2106v-2.6h2.62zm-3.67 0h-2.6v-2.6h2.63zm-3.66 0h-2.6v-2.6h2.6zm-3.66 0h-2.6v-2.6h2.6zm-3.66 0h-2.62v-2.6h2.62zm-3.67 0h-2.6v-2.6h2.6zm-3.66 0h-2.6v-2.6h2.6z" class="B"/><path d="M2152.3 70.06h-4.46V51.8h4.46z" class="D"/><path d="M2147.3 51.27h5.5V70.6h-5.5zm4.46 1h-3.4v17.27h3.4z" class="B"/><path d="M2147.84 67.95h-16.02V53.9h16.02z" class="D"/><path d="M2131.3,53.38h17.06v15.1H2131.3Zm16,1h-15v13h15Z" class="B"/><path d="M2146.14 58h-12.66v-2.65h12.66z" class="E"/><path d="M2146.14 66.47h-12.66v-.93h12.66zm0-1.64h-12.66v-2.05h12.66z" class="H"/><path d="M2090.27 75.7v1.82m0-6.12v1.83" class="I J K L"/><path d="M2091.1 73.22v2.47h-1.65v-2.47z" class="C"/><path d="M2093.1 75.7v1.82m0-6.12v1.83" class="I J K L"/><path d="M2093.93 73.2v2.47h-1.65V73.2z" class="C"/><path d="M2095.8 75.7v1.82m0-6.12v1.83" class="I J K L"/><path d="M2096.63 73.22v2.47h-1.65v-2.47z" class="C"/><path d="M2098.65 75.7v1.82m0-6.12v1.83" class="I J K L"/><path d="M2099.47 73.2v2.47h-1.65V73.2z" class="C"/><path d="M2115 75.7v1.82m0-6.12v1.83" class="I J K L"/><path d="M2115.83 73.2v2.47h-1.65V73.2z" class="C"/><path d="M2118.28 75.7v1.82m0-6.12v1.83" class="I J K L"/><path d="M2119.1 73.22v2.47h-1.65v-2.47z" class="C"/><path d="M2121.1 45.7v1.83m0-6.13v1.83" class="I J K L"/><path d="M2121.93 43.24v2.47h-1.65v-2.47z" class="C"/><path d="M2124.38 45.7v1.83m0-6.13v1.83" class="I J K L"/><path d="M2125.2 43.23v2.47h-1.65v-2.47z" class="C"/><g class="I J K L"><path d="M2066.75 58.38v1.83m2.05-1.83v1.83m2.04-1.83v1.83m2.06-1.83v1.83m2.07-1.83v1.83m-8.22-15v1.83m2.05-1.83v1.83m2.04-1.83v1.83m2.06-1.83v1.83m2.07-1.83v1.83m-11.62 9.8h1.82m-1.82-2.04h1.82m-1.82-2.05h1.82m-1.82-2.05h1.82m-1.82-2.08h1.82m11.35 8.22h1.82"/><path d="M2076.52 54.78h1.82m-1.82-2.05h1.82m-1.82-2.05h1.82m-1.82-2.08h1.82"/></g><path d="M2065.17 47.04h11.35V58.4h-11.35z" class="C"/><rect x="2122.29" y="72.97" width="13.48" height="4.67" rx="2.34" class="H"/><path d="M2123.1,75.86a1.64,1.64,0,0,0,1.53,1.08h8.8a1.64,1.64,0,0,0,1.54-1.08Z" class="D"/><circle cx="2056.2" cy="62.78" r="3.82" class="H"/><path d="M2053.36,64.06a3.1,3.1,0,0,0,5.67,0Z" class="D"/><path d="M2110.15 47.53h21.37v23.32h-21.37z" class="G"/><path d="M2132,71.38h-22.42V47H2132Zm-21.37-1H2131V48.05h-20.32Z" class="B"/><path d="M2085.78 47.53h21.37v23.32h-21.37z" class="G"/><path d="M2107.67,71.38h-22.42V47h22.42Zm-21.37-1h20.32V48.05H2086.3Z" class="B"/><path d="M2080.75 71.4v-1.82m-2.05 1.82v-1.82m-2.04 1.82v-1.82m-2.06 1.82v-1.82m6.15 8.02v-1.83m-2.05 1.83v-1.83m-2.04 1.83v-1.83m-2.06 1.83v-1.83" class="I J K L"/><path d="M2073.06 75.78V71.4h9.24v4.38z" class="C"/><path d="M2066.75 76.33V74.5m-2.05 1.83V74.5m-2.05 1.83V74.5m4.1-3.07V69.6m-2.04 1.83V69.6m-2.06 1.83V69.6" class="I J K L"/><path d="M2061.54 74.5v-3.1h6.3v3.1z" class="C"/><defs ><path id="B" d="M416.8 66.42h2.85v1.53h-2.85z"/><path id="C" d="M866.75 19.42a1.64 1.64 0 1 1 1.63-1.64 1.64 1.64 0 0 1-1.63 1.64zm0-2.22a.58.58 0 1 0 .58.58.58.58 0 0 0-.58-.58z"/><path id="D" d="M892.68 53.54a1.64 1.64 0 1 1 1.63-1.63 1.63 1.63 0 0 1-1.63 1.63zm0-2.22a.59.59 0 0 0-.58.59.58.58 0 1 0 1.16 0 .59.59 0 0 0-.58-.59z"/><path id="E" d="M907.45 53.54a1.64 1.64 0 1 1 1.63-1.63 1.63 1.63 0 0 1-1.63 1.63zm0-2.22a.59.59 0 0 0-.58.59.58.58 0 0 0 1.16 0 .59.59 0 0 0-.58-.59z"/><path id="F" d="M1029.52 53.68a2.06 2.06 0 1 1 2.06-2.06 2.06 2.06 0 0 1-2.06 2.06zm0-3.07a1 1 0 1 0 1 1 1 1 0 0 0-1-1z"/></defs></svg>