<svg data-name="remote-kinetic" xmlns="http://www.w3.org/2000/svg" viewBox="0 0 76.36 122.26"><g class="js-base"><path class="base-midtone" d="M.75 44.8C.75 70.29 6.5 93 15.4 107.36H61C69.87 93 75.61 70.29 75.61 44.8a146.45 146.45 0 0 0-6.38-44H7.13a146.45 146.45 0 0 0-6.38 44z"/><path class="outline" d="M61.38 108.11H15l-.22-.35C5.38 92.57 0 69.62 0 44.8 0 28.94 2.22 13.63 6.42.52L6.58 0h63.2l.22.52c4.19 13.11 6.41 28.42 6.41 44.28 0 24.82-5.38 47.77-14.76 63zm-45.56-1.5h44.72c9.11-15 14.32-37.45 14.32-61.81a146.11 146.11 0 0 0-6.18-43.3h-61A146.39 146.39 0 0 0 1.5 44.8c0 24.36 5.22 46.85 14.32 61.81z"/><path class="rod-midtone" d="M18.45 107.36a21.19 21.19 0 0 0 7.64 14.15h24.18a21.15 21.15 0 0 0 7.64-14.15zm27.65 10H30.27c-2.72-1.4-4.59-3.49-5-5.89H51.1c-.42 2.42-2.29 4.53-5 5.91z"/><path class="outline" d="M50.54 122.26H25.83l-.21-.17a22.07 22.07 0 0 1-7.92-14.65l-.09-.83h41.14l-.09.83a22 22 0 0 1-7.92 14.65zm-24.18-1.5H50a20.53 20.53 0 0 0 7.06-12.65H19.3a20.58 20.58 0 0 0 7.06 12.65zm19.92-2.63h-16.2l-.16-.09c-3-1.53-5-3.87-5.4-6.42l-.15-.88H52l-.15.88c-.45 2.55-2.41 4.89-5.4 6.42zm-15.83-1.5h15.46a8.56 8.56 0 0 0 4.22-4.39h-23.9a8.56 8.56 0 0 0 4.22 4.39z"/><path class="base-shadow" d="M73.31 42.65a149.69 149.69 0 0 0-5.16-39.94h-3.82a150.53 150.53 0 0 1 4.88 38.88c0 25.49-5.75 48.14-14.65 62.56H19.35l.6 1.06h38.71c8.9-14.41 14.65-37.07 14.65-62.56z"/><path class="base-hlight" d="M6.55 44.8a148.06 148.06 0 0 1 5.78-42.09h-2.16A148.43 148.43 0 0 0 4.4 44.8c0 23.68 5 44.9 12.8 59.35h2.15C11.51 89.7 6.55 68.48 6.55 44.8z"/><path class="rod-shadow" d="M58.05 44.6a77.69 77.69 0 0 0-3.39-23.38h-33a77.69 77.69 0 0 0-3.35 23.38c0 1.66.05 3.3.14 4.91h39.46c.09-1.61.14-3.25.14-4.91z"/><path class="outline" d="M58.62 50.26H17.74v-.7c-.09-1.65-.14-3.31-.14-5A78.87 78.87 0 0 1 21 21l.17-.52h34.04l.17.52a78.5 78.5 0 0 1 3.42 23.6c0 1.65 0 3.32-.14 5zm-39.46-1.5h38c.07-1.38.1-2.78.1-4.16A77.39 77.39 0 0 0 54.11 22H22.25a77.39 77.39 0 0 0-3.19 22.6c0 1.4.04 2.78.1 4.16z"/><path class="rod-shadow" d="M18.45 56.89c.64 11.5 3.49 21.58 7.64 28.29h24.18c4.15-6.71 7-16.79 7.64-28.29z"/><path class="outline" d="M50.69 85.93h-25l-.22-.35c-4.3-7-7.13-17.41-7.75-28.65v-.79h40.99l-.05.79c-.66 11.41-3.38 21.58-7.75 28.65zm-24.18-1.5h23.34c4-6.59 6.58-16.29 7.27-26.79H19.24c.69 10.5 3.32 20.2 7.27 26.79z"/><path class="rod-hlight" d="M25.3 22.89h-1.93a79.11 79.11 0 0 0-2.89 21.71c0 1.06 0 2.09.06 3.13h1.94c0-1-.07-2.07-.07-3.13a79.5 79.5 0 0 1 2.89-21.71zm-4.58 35.6c.74 9.9 3.12 18.64 6.54 24.95h1.94c-3.42-6.31-5.81-15-6.54-24.95zm27.09 8.68l-9.63 9.63-9.62-9.63h19.25zM28.56 39.63l9.62-9.62 9.63 9.62H28.56z"/></g><path class="js-blink base-hlight" d="M32.1 8.7h11.88v4.13H32.1z"/><path class="js-down-blink outline" d="M38.18 77.86L26.75 66.42h22.87zm-7.81-9.94l7.81 7.81L46 67.92z"/><path class="js-up-blink outline" d="M49.62 40.38H26.75L38.18 29zm-19.25-1.5H46l-7.82-7.81z"/></svg>