<svg data-name="table-kinetic" xmlns="http://www.w3.org/2000/svg" viewBox="0 0 151.54 140.74"><g class="js-rod-2"><path class="rod-midtone" d="M9.02 8.37h9.24v47.47H9.02zm124.31 0h9.24v47.47h-9.24z"/><path class="outline" d="M8.48 7.76v48.08h1.07V8.98h8.17v46.86h1.07V7.76H8.48zm124.31 0v48.08h1.07V8.98h8.17v46.86h1.07V7.76h-10.31z"/><path class="rod-shadow" d="M140.05 9.6h1.19v46.25h-1.19z"/><path class="rod-hlight" d="M134.54 9.6h.33v46.25h-.33zm.61 0h1v46.25h-1z"/><path class="rod-shadow" d="M15.74 9.6h1.19v46.25h-1.19z"/><path class="rod-hlight" d="M10.23 9.6h.33v46.25h-.33zm.61 0h1v46.25h-1z"/><path class="base-midtone" d="M.79.75h150v7.4H.79z"/><path class="outline" d="M151.54 8.9H0V0h151.5zm-150-1.5H150V1.5H1.54z"/></g><g class="js-rod-1"><path class="rod-midtone" d="M8.11 41.44h11.06v40.81H8.11z"/><path class="rod-shadow" d="M16.79 42.71h1.19v39.55h-1.19z"/><path class="rod-hlight" d="M9.41 42.71h.33v39.55h-.33zm.61 0h1v39.55h-1z"/><path class="outline" d="M7.57 40.83v41.45h1.07V42.05h9.99v40.23h1.08V40.83H7.57z"/><path class="rod-midtone" d="M132.41 41.44h11.06v40.82h-11.06z"/><path class="rod-shadow" d="M141.1 42.71h1.19v39.55h-1.19z"/><path class="rod-hlight" d="M133.72 42.71h.33v39.55h-.33zm.61 0h1v39.55h-1z"/><path class="outline" d="M131.88 40.83v41.43h1.07V42.04h9.99v40.22h1.07V40.83h-12.13z"/></g><g class="js-base"><path class="base-midtone" d="M.75 135.48h25.73v4.48H.75z"/><path class="outline" d="M27.23 140.71H0v-6h27.23zm-25.73-1.5h24.23v-3H1.5z"/><path class="base-midtone" d="M6.87 74.2h13.49v61.28H6.87z"/><path class="outline" d="M21.11 136.23h-15V73.45h15zm-13.49-1.5h12V75h-12z"/><path class="base-shadow" d="M16.86 75.24h2.21v59.03h-2.21z"/><path class="base-hlight" d="M8.24 75.32h.54v59.03h-.54zm1.11 0h1.42v59.03H9.35z"/><path class="base-midtone" d="M125.06 135.51h25.73v4.48h-25.73z"/><path class="outline" d="M151.54 140.74h-27.23v-6h27.23zm-25.73-1.5H150v-3h-24.19z"/><path class="base-midtone" d="M131.18 74.23h13.49v61.28h-13.49z"/><path class="outline" d="M145.42 136.26h-15V73.48h15zm-13.49-1.5h12V75h-12z"/><path class="base-shadow" d="M141.17 75.27h2.21v59.03h-2.21z"/><path class="base-hlight" d="M132.55 75.35h.54v59.03h-.54zm1.11 0h1.42v59.03h-1.42z"/></g></svg>