<svg data-name="power_supply-kinetic" xmlns="http://www.w3.org/2000/svg" viewBox="0 0 113.88 99.45"><path class="js-blink stroke-base-midtone" d="M27.72 11.83l6.53-8.39 4.9 9.54 3.67-7.18 3.27 4.79L53.85.86l7.76 12.37 4.29-9.79 4.7 7.88 5.16-6.38 3.82 5.62 5.37-3.19"/><g class="js-base"><path class="rod-midtone" d="M13.02 3.55h15.93v16.57H13.02z"/><path class="outline" d="M29.17 20.87h-16.9V2.8h16.9zm-15.44-1.5h14V4.3h-14z"/><path class="outline" d="M25.78 11.08h-4.04V7.05h-1.5v4.03H16.2v1.5h4.04v4.04h1.5v-4.04h4.04v-1.5z"/><path class="rod-midtone" d="M84.94 3.55h15.93v16.57H84.94z"/><path class="outline" d="M101.62 20.87H84.19V2.8h17.43zm-15.93-1.5h14.43V4.3H85.69z"/><path class="outline" d="M88.12 11.08h9.57v1.5h-9.57z"/><path class="base-midtone" d="M.75 40.17h112.38v58.59H.75z"/><path class="outline" d="M113.88 99.45H0v-60h113.88zM1.5 98.06h110.88v-57.2H1.5z"/><path class="rod-shadow" d="M55.64 60.98v12.55l2.63-4.2v19.52l6-27.76-3.37 4.09.73-12.44-3.36 4.09V45.34L53 52.82v12.36l2.64-4.2z"/><path class="outline" d="M57.52 95.87V71.94l-2.63 4.2V63.59l-2.64 4.2v-15.2L59 43v11.74l3.5-4.25-.73 12.44 3.86-4.7zM59 66.72v15.11L62.88 64 60 67.44 60.75 55l-3.23 3.92V47.71l-3.77 5.35v9.51l2.64-4.21v12.56z"/><path class="base-hlight" d="M.75 33.84h112.38v6.38H.75z"/><path class="outline" d="M113.88 41H0v-7.91h113.88zM1.5 39.47h110.88v-4.88H1.5z"/><path class="base-midtone" d="M.75 20.02h112.38v13.82H.75z"/><path class="outline" d="M113.88 34.59H0V19.27h113.88zM1.5 33.09h110.88V20.77H1.5z"/><path class="base-shadow" d="M104.49 41.85h5.62v54.91h-5.62zm0-20.09h5.62v10.52h-5.62z"/><path class="base-hlight" d="M3.64 41.85h1.17v54.91H3.64zm2.47 0h3.2v54.91h-3.2zM3.27 21.76h1.17v10.52H3.27zm2.48 0h3.2v10.52h-3.2z"/></g></svg>