<svg data-name="robotic-kinetic" xmlns="http://www.w3.org/2000/svg" viewBox="0 0 97.23 145.19"><g class="js-blink"><path class="outline" d="M50.31 6.36L52.344.006l1.428.457-2.033 6.353zM43.343.465l1.425-.47 2.088 6.335-1.425.47zm-6.994 5.668l.876-1.217 5.413 3.898-.877 1.217zm18.16 2.72l5.378-3.945.887 1.21-5.378 3.945z"/></g><g class="js-r-arm"><path class="base-hlight" d="M92.71 106.21H80.84v11.35h3.77v-7.58h8.1v7.58h3.77v-11.35h-3.77z"/><path class="outline" d="M97.23 118.31H92v-7.58h-6.6v7.58h-5.31v-12.85h17.14zm-3.77-1.5h2.27V107H81.59v9.85h2.27v-7.58h9.6z"/><path class="rod-midtone" d="M86.86 81.25h3.61v24.96h-3.61z"/><path class="outline" d="M91.22 107h-5.11V80.5h5.11zm-3.61-1.5h2.11V82h-2.11z"/></g><g class="js-l-arm"><path class="base-hlight" d="M12.62 106.21H.75v11.35h3.77v-7.58h8.1v7.58h3.77v-11.35h-3.77z"/><path class="outline" d="M17.14 118.31h-5.27v-7.58h-6.6v7.58H0v-12.85h17.14zm-3.77-1.5h2.27V107H1.5v9.85h2.27v-7.58h9.6z"/><path class="rod-midtone" d="M6.76 81.25h3.61v24.96H6.76z"/><path class="outline" d="M11.13 107H6V80.5h5.12zm-3.62-1.5h2.12V82H7.51z"/></g><g class="js-base"><path class="base-midtone" d="M29.63 26.93H67.5V64.8H29.63z"/><path class="outline" d="M68.25 65.55H28.88V26.18h39.37zm-37.87-1.5h36.37V27.68H30.38z"/><path class="base-shadow" d="M64.21 28.28h1.96v35.06h-1.96z"/><path class="base-hlight" d="M31.16 28.28h.61v35.06h-.61zm.92 0h1.1v35.06h-1.1z"/><circle class="base-hlight" cx="40.67" cy="40.62" r="4.64"/><path class="outline" d="M40.67 46a5.39 5.39 0 1 1 5.39-5.39A5.39 5.39 0 0 1 40.67 46zm0-9.28a3.89 3.89 0 1 0 3.89 3.89 3.89 3.89 0 0 0-3.89-3.88z"/><circle class="base-hlight" cx="56.45" cy="40.62" r="3.28"/><path class="outline" d="M56.45 44.65a4 4 0 1 1 4-4 4 4 0 0 1-4 4zm0-6.56A2.53 2.53 0 1 0 59 40.62a2.53 2.53 0 0 0-2.55-2.53zM36.39 59.13l-.73-1.31 6.17-3.45 3.48 2.21 3.29-2.13 3.98 2.41 3.37-5.27 5.7 6.39-1.12.99-4.38-4.91-3.1 4.84-4.42-2.68-3.31 2.15-3.54-2.25-5.39 3.01z"/><circle class="base-hlight" cx="48.56" cy="14.08" r="3.28"/><path class="outline" d="M48.56 18.11a4 4 0 1 1 4-4 4 4 0 0 1-4 4zm0-6.57a2.54 2.54 0 1 0 2.53 2.54 2.54 2.54 0 0 0-2.53-2.54z"/><path class="outline" d="M47.87 17.36h1.5v9.57h-1.5z"/><path class="base-midtone" d="M19.85 73.53h57.54v46.63H19.85z"/><path class="outline" d="M78.14 120.91h-59V72.78h59zm-57.54-1.5h56V74.28h-56z"/><path class="base-hlight" d="M21.94 75.33h.8v43.08h-.8zm1.74 0h2.05v43.08h-2.05z"/><path class="base-shadow" d="M70.4 75.33h4.94v43.08H70.4z"/><path class="rod-midtone" d="M43.95 64.8h9.22v8.73h-9.22z"/><path class="outline" d="M53.92 74.28H43.2V64.05h10.72zm-9.22-1.5h7.72v-7.23H44.7z"/><path class="base-midtone" d="M51.01 141.1h14.24v3.34H51.01z"/><path class="outline" d="M66 145.19H50.26v-4.84H66zm-14.23-1.5h12.72v-1.84H51.76z"/><path class="rod-midtone" d="M53.52 120.16h9.22v20.94h-9.22z"/><path class="outline" d="M63.48 141.85H52.77v-22.44h10.71zm-9.21-1.5H62v-19.44h-7.73z"/><path class="base-midtone" d="M31.99 141.1h14.24v3.34H31.99z"/><path class="outline" d="M47 145.19H31.24v-4.84H47zm-14.24-1.5h12.72v-1.84H32.74z"/><path class="rod-midtone" d="M34.5 120.16h9.22v20.94H34.5z"/><path class="outline" d="M44.47 141.85H33.75v-22.44h10.72zm-9.22-1.5H43v-19.44h-7.75z"/><path class="base-hlight" d="M94.52 84.77H77.39v-7.04h17.13z"/><path class="outline" d="M95.27 85.52H76.64V77h18.63zM78.14 84h15.63v-5.52H78.14z"/><path class="base-hlight" d="M2.71 77.73h17.13v7.04H2.71z"/><path class="outline" d="M20.6 85.52H2V77h18.6zM3.46 84H19.1v-5.52H3.46z"/></g></svg>