<svg data-name="linear-kinetic" xmlns="http://www.w3.org/2000/svg" viewBox="0 0 76.27 141.5"><g class="js-rod"><path class="rod-midtone" d="M8.9 15.05h13.23v50.79H8.9z"/><path class="outline" d="M22.88 19.7v-5.4H8.15v51.54h1.5V15.8h11.73v50.04h1.5V19.7z"/><path class="rod-shadow" d="M22.13.75h-5.37v11.48h-2.5V.75H8.9v1.62a5.16 5.16 0 0 1 0 7.13v5.55h13.23v-6a5.16 5.16 0 0 1 0-6.29z"/><path class="outline" d="M22.88 15.8H8.15V9.2l.2-.2a4.41 4.41 0 0 0 0-6.11l-.2-.21V0H15v11.48h1V0h6.87v3l-.16.2a4.45 4.45 0 0 0 0 5.39l.16.2zM9.65 14.3h11.73v-5a5.92 5.92 0 0 1 0-6.79v-1h-3.87V13h-4V1.5H9.65v.58a5.91 5.91 0 0 1 0 7.71z"/><path class="rod-shadow" d="M18.58 16.26h2.39v49.59h-2.39z"/><path class="rod-hlight" d="M10.32 16.26h.48v49.59h-.48zm.95 0h1.43v49.59h-1.43z"/></g><g class="js-base"><path class="base-midtone" d="M.75 89.07h30.23v32.18H.75z"/><path class="outline" d="M31.73 122H0V88.32h31.73zM1.5 120.51h28.73V89.82H1.5z"/><path class="base-midtone" d="M30.98 93.44h44.55v23.44H30.98z"/><path class="outline" d="M76.27 117.64h-46v-25h46zm-44.54-1.5h43v-22h-43z"/><path class="rod-midtone" d="M3.53 85.86h23.96v3.21H3.53z"/><path class="outline" d="M28.24 89.82H2.78v-4.71h25.46zm-24-1.5h22.5v-1.71H4.28z"/><path class="base-midtone" d="M3.53 70.12h23.96v15.74H3.53z"/><path class="outline" d="M28.24 86.61H2.78V69.37h25.46zm-24-1.5h22.5V70.87H4.28z"/><path class="rod-midtone" d="M6.04 39.37h18.95v30.75H6.04z"/><path class="outline" d="M25.74 70.87H5.29V38.62h20.45zm-18.95-1.5h17.45V40.12H6.79z"/><path class="base-midtone" d="M4.96 24.35h21.1v15.02H4.96z"/><path class="outline" d="M26.81 40.12H4.21V23.6h22.6zm-21.1-1.5h19.6V25.1H5.71z"/><path class="rod-shadow" d="M8.94 140.75h5.4v-13.27h2.56v13.27h5.4v-1.91a6.93 6.93 0 0 1 0-8.46v-6.57H8.94v7.07a7 7 0 0 1 0 7.46z"/><path class="outline" d="M23 141.5h-6.9v-13.27h-1v13.27H8.19v-3.38l.12-.19a6.22 6.22 0 0 0 0-6.64l-.12-.19v-8H23v7.59l-.16.21a6.13 6.13 0 0 0 0 7.5l.16.21zm-5.4-1.5h3.9v-.91a7.69 7.69 0 0 1 0-9v-5.57H9.69v6.1a7.76 7.76 0 0 1 0 7.9V140h3.91v-13.27h4z"/><path class="rod-midtone" d="M3.53 121.35h24.14v2.98H3.53z"/><path class="outline" d="M28.43 125.08H2.78v-4.48h25.65zm-24.15-1.5h22.65v-1.48H4.28z"/><path class="rod-shadow" d="M20.01 40.54h3.42v28.31h-3.42z"/><path class="base-shadow" d="M20.97 25.61h3.56v12.44h-3.56zm4.86 64.65h3.76v29.73h-3.76z"/><path class="base-hlight" d="M74.36 98.09H32.27V96.1h42.09zm0-2.62H32.27v-.8h42.09zM3.22 90.26h2.39v29.73H3.22zm-1.19 0h.57v29.73h-.57z"/><path class="base-shadow" d="M22.07 71.41h3.98v13.16h-3.98zm10.2 39.16h42.09v5.1H32.27z"/><path class="base-hlight" d="M5.2 71.41h.77v13.16H5.2zm1.44 0h2.39v13.16H6.64z"/><path class="rod-shadow" d="M22.07 86.98h3.98v1.03h-3.98z"/><path class="rod-hlight" d="M5.2 86.98h.77v1.03H5.2zm1.44 0h2.39v1.03H6.64zm.91-46.44h.4v28.31h-.4zm.86 0h1.86v28.31H8.41z"/><path class="base-hlight" d="M6.52 25.61h.89v12.44h-.89zm1.46 0h2.39v12.44H7.98z"/><path class="rod-shadow" d="M22.05 122.48h3.98v.77h-3.98z"/><path class="rod-hlight" d="M5.18 122.48h.77v.77h-.77zm1.44 0h2.39v.77H6.62z"/></g></svg>