<svg data-name="column-kinetic" xmlns="http://www.w3.org/2000/svg" viewBox="0 0 42.05 141.5"><g class="js-rod-2"><path class="rod-midtone" d="M5.05.75h12.91v61.2H5.05z"/><path class="rod-shadow" d="M15.1 2.4h1.35v59.55H15.1z"/><path class="rod-hlight" d="M6.57 2.4h.54v59.55h-.54zm1.08 0h1.62v59.55H7.65z"/><path class="outline" d="M5.8 62.17V1.5h11.41v60.67h1.5V0H4.3v62.17h1.5z"/></g><g class="js-rod-1"><path class="rod-midtone" d="M3.77 38.16h15.46v63.47H3.77z"/><path class="rod-shadow" d="M15.53 39.69h2.25v61.94h-2.25z"/><path class="rod-hlight" d="M5.15 39.69h.63v61.94h-.63zm1.15 0h1.89v61.94H6.3z"/><path class="outline" d="M3.02 37.41v64.22h1.5V38.91h13.96v62.72h1.5V37.41H3.02z"/></g><g class="js-base"><path class="base-midtone" d="M20.5 122.56V76.15h-18v53.79h32l-14-7.38zM.75 129.95H41.3v10.8H.75z"/><path class="outline" d="M42.05 141.5H0v-12.3h42.05zM1.5 140h39.05v-9.3H1.5z"/><path class="outline" d="M21.25 122.1V75.22H1.75v55.47h35.78zm-18-11.21V76.72h16.5V123l11.72 6.18H3.25z"/><path class="base-hlight" d="M5.04 77.74h2.22v51.01H5.04zm-.97 0h.42v51.01h-.42zm-.79 53.41h2.08v8.26H3.28zm-.91.01h.4v8.26h-.4z"/></g></svg>