<svg xmlns="http://www.w3.org/2000/svg" viewBox="0 0 400 107.1"><g id="Layer_2" data-name="Layer 2"><g id="Standard"><path d="M323.62,83.65h-4.51l-.93,2.12h-1.25l3.84-8.48H322l3.86,8.48h-1.27Zm-.42-1-1.83-4.16-1.83,4.16Z" fill="#bc1d1d"/><path d="M326.83,82.11V77.29H328v4.77c0,1.88.86,2.73,2.39,2.73s2.4-.85,2.4-2.73V77.29H334v4.82c0,2.46-1.35,3.76-3.59,3.76S326.83,84.57,326.83,82.11Z" fill="#bc1d1d"/><path d="M335.71,84.8l.45-.94a4.37,4.37,0,0,0,2.8,1c1.47,0,2.1-.57,2.1-1.31,0-2.07-5.14-.76-5.14-3.92,0-1.31,1-2.42,3.25-2.42a5.07,5.07,0,0,1,2.73.75l-.4,1a4.42,4.42,0,0,0-2.33-.69c-1.44,0-2.06.61-2.06,1.34,0,2.08,5.14.78,5.14,3.9,0,1.29-1,2.41-3.29,2.41A5.06,5.06,0,0,1,335.71,84.8Z" fill="#bc1d1d"/><path d="M345.58,78.34h-2.91v-1h7v1h-2.91v7.43h-1.2Z" fill="#bc1d1d"/><path d="M356.68,85.77l-1.83-2.6-.53,0h-2.1v2.58H351V77.29h3.31c2.2,0,3.54,1.11,3.54,2.95A2.68,2.68,0,0,1,356,82.92l2,2.85Zm0-5.53c0-1.21-.81-1.9-2.36-1.9h-2.06v3.82h2.06C355.83,82.16,356.64,81.46,356.64,80.24Z" fill="#bc1d1d"/><path d="M365.22,83.65h-4.51l-.93,2.12h-1.25l3.84-8.48h1.21l3.85,8.48h-1.27Zm-.42-1L363,78.52l-1.83,4.16Z" fill="#bc1d1d"/><path d="M368.69,77.29h1.21v7.43h4.59v1h-5.8Z" fill="#bc1d1d"/><path d="M375.89,77.29h1.21v8.48h-1.21Z" fill="#bc1d1d"/><path d="M385.05,83.65h-4.51l-.93,2.12h-1.25l3.84-8.48h1.2l3.86,8.48H386Zm-.43-1-1.83-4.16L381,82.68Z" fill="#bc1d1d"/><path d="M301.24,77.8a.72.72,0,0,1,.39.22l.27.26c.11.11.2.1.31,0a1.49,1.49,0,0,0,.18-.3,1.11,1.11,0,0,1,.51-.45s.07,0,.07,0a1.09,1.09,0,0,1-.23.9c-.19.19-.19.29,0,.5l.33.35a.54.54,0,0,0,.53.13,1.56,1.56,0,0,0,.57-.3,16,16,0,0,1,1.54-1,4.43,4.43,0,0,1,1.65-.56,4.25,4.25,0,0,1,3,.67,6,6,0,0,1,1.78,1.86c.42.68.74,1.41,1.14,2.1a3.22,3.22,0,0,0,2.11,1.66c.28.07.56.12.84.21.06,0,.16,0,.15.13s-.09.1-.17.11a3.23,3.23,0,0,1-1,0,4.21,4.21,0,0,1-2.85-2c-.28-.44-.53-.9-.84-1.33a4,4,0,0,0-.85-.89l-.12-.08c-.15-.09-.27-.07-.35.09a2.23,2.23,0,0,1-.54.68.41.41,0,0,0-.12.39,2.35,2.35,0,0,0,.6,1.34,10.32,10.32,0,0,0,1.14,1.15.58.58,0,0,1,.19.39,5.19,5.19,0,0,1,0,1,7.9,7.9,0,0,0-.07.85.47.47,0,0,0,.08.26.81.81,0,0,1,.21.56,3.42,3.42,0,0,0,.09.63c0,.08.06.19,0,.24s-.14-.07-.19-.12a3.25,3.25,0,0,1-.41-.42,1.65,1.65,0,0,1-.39-1c0-.34,0-.68,0-1,0-.14,0-.27,0-.4a.53.53,0,0,0-.17-.33,18.8,18.8,0,0,0-1.67-1.55c-.6-.5-1.2-1-1.75-1.54-.05,0-.09-.07-.16,0a3.13,3.13,0,0,1-1.13.28l-.56,0c-.07,0-.1,0-.1.09a3.36,3.36,0,0,0,.15,1.18.14.14,0,0,0,.19.11l.18,0A.28.28,0,0,1,306,83a.14.14,0,0,0,.13.08s.06,0,.07,0a.07.07,0,0,1,0,.08.64.64,0,0,1-.61.11,1.08,1.08,0,0,1-.63-.54c-.22-.35-.43-.7-.64-1.06a.24.24,0,0,0-.15-.11,3.32,3.32,0,0,1-1.88-1.15.71.71,0,0,0-.94-.16.7.7,0,0,1-.7,0l-.09-.06c-.14-.1-.15-.21,0-.34a6.91,6.91,0,0,0,.61-.71s.07-.09.1-.15a.5.5,0,0,1,.29-.26.23.23,0,0,0,.14-.32,1.67,1.67,0,0,0-.23-.39A.77.77,0,0,1,301.24,77.8Z" fill="#bc1d1d"/><path d="M301.24,77.8a.72.72,0,0,1,.39.22l.27.26c.11.11.2.1.31,0a1.49,1.49,0,0,0,.18-.3,1.11,1.11,0,0,1,.51-.45s.07,0,.07,0a1.09,1.09,0,0,1-.23.9c-.19.19-.19.29,0,.5l.33.35a.54.54,0,0,0,.53.13,1.56,1.56,0,0,0,.57-.3,16,16,0,0,1,1.54-1,4.43,4.43,0,0,1,1.65-.56,4.25,4.25,0,0,1,3,.67,6,6,0,0,1,1.78,1.86c.42.68.74,1.41,1.14,2.1a3.22,3.22,0,0,0,2.11,1.66c.28.07.56.12.84.21.06,0,.16,0,.15.13s-.09.1-.17.11a3.23,3.23,0,0,1-1,0,4.21,4.21,0,0,1-2.85-2c-.28-.44-.53-.9-.84-1.33a4,4,0,0,0-.85-.89l-.12-.08c-.15-.09-.27-.07-.35.09a2.23,2.23,0,0,1-.54.68.41.41,0,0,0-.12.39,2.35,2.35,0,0,0,.6,1.34,10.32,10.32,0,0,0,1.14,1.15.58.58,0,0,1,.19.39,5.19,5.19,0,0,1,0,1,7.9,7.9,0,0,0-.07.85.47.47,0,0,0,.08.26.81.81,0,0,1,.21.56,3.42,3.42,0,0,0,.09.63c0,.08.06.19,0,.24s-.14-.07-.19-.12a3.25,3.25,0,0,1-.41-.42,1.65,1.65,0,0,1-.39-1c0-.34,0-.68,0-1,0-.14,0-.27,0-.4a.53.53,0,0,0-.17-.33,18.8,18.8,0,0,0-1.67-1.55c-.6-.5-1.2-1-1.75-1.54-.05,0-.09-.07-.16,0a3.13,3.13,0,0,1-1.13.28l-.56,0c-.07,0-.1,0-.1.09a3.36,3.36,0,0,0,.15,1.18.14.14,0,0,0,.19.11l.18,0A.28.28,0,0,1,306,83a.14.14,0,0,0,.13.08s.06,0,.07,0a.07.07,0,0,1,0,.08.64.64,0,0,1-.61.11,1.08,1.08,0,0,1-.63-.54c-.22-.35-.43-.7-.64-1.06a.24.24,0,0,0-.15-.11,3.32,3.32,0,0,1-1.88-1.15.71.71,0,0,0-.94-.16.7.7,0,0,1-.7,0l-.09-.06c-.14-.1-.15-.21,0-.34a6.91,6.91,0,0,0,.61-.71s.07-.09.1-.15a.5.5,0,0,1,.29-.26.23.23,0,0,0,.14-.32,1.67,1.67,0,0,0-.23-.39A.77.77,0,0,1,301.24,77.8Z" fill="#bc1d1d"/><path d="M96.79,0h45L109.1,16.85c-7.73,0-7,.46-12.27,6.2l-22,24.21c-10.1,0-19.33.09-29.43,0a36.28,36.28,0,0,0-11.75,2.31L72.2,11C75.92,7.31,81.48,0,96.79,0Z" fill="#0d90e8" fill-rule="evenodd"/><rect x="193.11" y="13.99" width="6.15" height="32.83" fill="#0d90e8"/><path d="M238.34,32.94a12.52,12.52,0,0,0,1.8-6.92,14.18,14.18,0,0,0-.82-5,10.43,10.43,0,0,0-2.37-3.8,10.24,10.24,0,0,0-3.77-2.42,14.34,14.34,0,0,0-5-.83H204.68V46.82h6.15V20.13h17.34a6.12,6.12,0,0,1,4.37,1.47,6,6,0,0,1,1.54,4.51,6.62,6.62,0,0,1-1.49,4.66,5.82,5.82,0,0,1-4.44,1.58H214.42v5.49h12.24l8.11,8.9.07.08h8.72l-9.89-10A9.91,9.91,0,0,0,238.34,32.94Z" fill="#0d90e8"/><rect x="171.18" y="27.99" width="16.87" height="5.44" fill="#0d90e8"/><polygon points="161.44 46.82 167.59 46.82 167.59 20.13 189.43 20.13 189.43 13.99 161.44 13.99 161.44 46.82" fill="#0d90e8"/><path d="M258.91,32.77H273.5v7.9H259.91a9.85,9.85,0,0,1-3.93-.78,9.44,9.44,0,0,1-3.1-2.14,9.89,9.89,0,0,1-2-3.28,11.45,11.45,0,0,1-.74-4.14,11.24,11.24,0,0,1,.74-4.13,9.81,9.81,0,0,1,2-3.21,9.49,9.49,0,0,1,3.1-2.1,10.09,10.09,0,0,1,3.93-.76h17.78V14H259.91a17.22,17.22,0,0,0-6.34,1.14,15.29,15.29,0,0,0-5.07,3.26,14.75,14.75,0,0,0-3.35,5.1A17.63,17.63,0,0,0,244,30.07a18.28,18.28,0,0,0,1.19,6.63A16,16,0,0,0,248.49,42a15.77,15.77,0,0,0,5,3.52,15.57,15.57,0,0,0,6.35,1.29h19.75V27.51H258.91Z" fill="#0d90e8"/><rect x="381.36" y="13.99" width="6.15" height="32.83" fill="#0d90e8"/><polygon points="355.75 13.99 349.6 13.99 349.6 46.82 377.5 46.82 377.5 40.67 355.75 40.67 355.75 13.99" fill="#0d90e8"/><polygon points="290.55 20.13 313.81 20.13 313.81 13.99 284.39 13.99 284.39 46.82 313.85 46.82 313.85 40.67 290.55 40.67 290.55 20.13" fill="#0d90e8"/><polygon points="324.31 13.99 318.15 13.99 318.15 46.82 346.05 46.82 346.05 40.67 324.31 40.67 324.31 13.99" fill="#0d90e8"/><rect x="294.13" y="27.51" width="18.43" height="5.26" fill="#0d90e8"/><path d="M48.93,50.18c-11,0-18.12,2.22-26.11,10.23L0,83.22l41.84,0,5.21-5.69c7.55-8.26,10.6-9.68,21.63-9.65H85.29l15.92-17.67Z" fill="#0d90e8" fill-rule="evenodd"/><polygon points="143.5 2.49 128.95 83.22 98.26 83.22 110.65 19.44 143.5 2.49" fill="#6d6e6e"/><path d="M236.93,52.79h-3.86a7.52,7.52,0,0,0-7.82,7.89c0,4.69,3.36,8.22,7.82,8.22h3.86a7.88,7.88,0,0,0,7.89-8.22A7.55,7.55,0,0,0,236.93,52.79Zm4.87,8a4.81,4.81,0,0,1-4.87,5.07h-3.86a5,5,0,0,1,0-10.07h3.86A4.72,4.72,0,0,1,241.8,60.81Z" fill="#6d6e6e"/><polygon points="206.56 55.81 212.58 55.81 212.58 68.9 215.6 68.9 215.6 55.81 221.62 55.81 221.62 52.79 206.56 52.79 206.56 55.81" fill="#6d6e6e"/><path d="M171.67,52.57a1.67,1.67,0,0,0-1.46,1L161,68.9h3.45l7.13-12.05,3.31,5.56h-4.71l-1.46,2.5h7.65l2.34,3.93,0,.06h3.63l-9.25-15.37A1.69,1.69,0,0,0,171.67,52.57Z" fill="#6d6e6e"/><path d="M266,52.6a1.52,1.52,0,0,0-1.44,1l-4.77,10.94-4.77-10.94a1.62,1.62,0,0,0-1.51-1,1.44,1.44,0,0,0-1.5,1.22L248,68.74l0,.16h3l3-10.9,4.33,10a1.61,1.61,0,0,0,3.07,0l4.35-10,2.94,10.8,0,.1h3l-4.1-15.08A1.44,1.44,0,0,0,266,52.6Z" fill="#6d6e6e"/><path d="M199.41,61.77c0,3.22-1.48,4.37-5.65,4.37S188.1,65,188.1,61.77v-9H185v9c0,5.08,2.67,7.34,8.67,7.34s8.69-2.19,8.69-7.34v-9h-3Z" fill="#6d6e6e"/><path d="M362.62,64.09l-11-10.89a1.74,1.74,0,0,0-1.27-.6c-.95,0-1.54.68-1.54,1.78V68.9h2.89V57.47l10.93,11h0a1.86,1.86,0,0,0,1.35.62c.91,0,1.5-.7,1.5-1.78V52.66h-2.89Z" fill="#6d6e6e"/><path d="M285.54,52.57a1.65,1.65,0,0,0-1.46,1L275,68.71l-.11.19h3.45l7.13-12.05,3.31,5.56H284l-1.45,2.5h7.65l2.37,4h3.63L287,53.53A1.61,1.61,0,0,0,285.54,52.57Z" fill="#6d6e6e"/><path d="M382.82,59.42h-7.26a1.67,1.67,0,0,1-1.85-1.79,1.7,1.7,0,0,1,1.88-1.82H387.1v-3H375.59c-3,0-5,1.8-5,4.58s2,4.64,5,4.64h7.27c1.43,0,2.19.66,2.19,1.92s-.82,1.95-2.19,1.95h-12v3h12c3.17,0,5.06-1.79,5.06-4.77S386.13,59.42,382.82,59.42Z" fill="#6d6e6e"/><path d="M336.14,52.79h-3.86a7.52,7.52,0,0,0-7.82,7.89c0,4.69,3.36,8.22,7.82,8.22h3.86A7.88,7.88,0,0,0,344,60.68,7.55,7.55,0,0,0,336.14,52.79Zm4.87,8a4.81,4.81,0,0,1-4.87,5.07h-3.86a5,5,0,0,1,0-10.07h3.86A4.73,4.73,0,0,1,341,60.81Z" fill="#6d6e6e"/><rect x="316.37" y="52.79" width="3.01" height="16.11" fill="#6d6e6e"/><polygon points="296.7 55.81 302.72 55.81 302.72 68.9 305.74 68.9 305.74 55.81 311.76 55.81 311.76 52.79 296.7 52.79 296.7 55.81" fill="#6d6e6e"/><path d="M397.56,15.17c-.12-.23-.23-.45-.34-.68s-.18-.37-.28-.55a1.42,1.42,0,0,0-.38-.46.73.73,0,0,0-.3-.16l0,0a1.09,1.09,0,0,0,.25-.1,1.21,1.21,0,0,0,.42-.33,1,1,0,0,0,.17-.33,1.46,1.46,0,0,0,.05-.2v0h0s0,0,0,0h0v-.06s0,0,0,0V12s0,0,0-.05v-.07s0,0,0,0v-.06a1.11,1.11,0,0,0-.13-.4.92.92,0,0,0-.22-.26,1.17,1.17,0,0,0-.28-.17,1.42,1.42,0,0,0-.33-.11l-.16,0h-2.53s0,0,0,0v4.72s0,0,0,0h1.19s0,0,0,0V13.74h.42a1,1,0,0,1,.32.08.64.64,0,0,1,.23.2,2,2,0,0,1,.2.3,2,2,0,0,0,.1.21c.05.1.09.2.15.3s.09.2.14.29a2,2,0,0,1,.1.21,1.74,1.74,0,0,0,.1.19s0,0,0,0h1.28s0,0,0,0Zm-1.68-2.69a.48.48,0,0,1-.34.36,1.24,1.24,0,0,1-.33,0h-.53s0,0,0,0V11.68s0,0,0,0h.53a1,1,0,0,1,.35.05.43.43,0,0,1,.32.34A1,1,0,0,1,395.88,12.48Z" fill="#6d6e6e"/><path d="M395.43,8.68A4.57,4.57,0,1,0,400,13.25,4.57,4.57,0,0,0,395.43,8.68Zm0,8.21a3.64,3.64,0,1,1,3.64-3.64A3.64,3.64,0,0,1,395.43,16.89Z" fill="#6d6e6e"/><path d="M397.56,15.17c-.12-.23-.23-.45-.34-.68s-.18-.37-.28-.55a1.42,1.42,0,0,0-.38-.46.73.73,0,0,0-.3-.16l0,0a1.09,1.09,0,0,0,.25-.1,1.21,1.21,0,0,0,.42-.33,1,1,0,0,0,.17-.33,1.46,1.46,0,0,0,.05-.2v0h0s0,0,0,0h0v-.06s0,0,0,0V12s0,0,0-.05v-.07s0,0,0,0v-.06a1.11,1.11,0,0,0-.13-.4.92.92,0,0,0-.22-.26,1.17,1.17,0,0,0-.28-.17,1.42,1.42,0,0,0-.33-.11l-.16,0h-2.53s0,0,0,0v4.72s0,0,0,0h1.19s0,0,0,0V13.74h.42a1,1,0,0,1,.32.08.64.64,0,0,1,.23.2,2,2,0,0,1,.2.3,2,2,0,0,0,.1.21c.05.1.09.2.15.3s.09.2.14.29a2,2,0,0,1,.1.21,1.74,1.74,0,0,0,.1.19s0,0,0,0h1.28s0,0,0,0Zm-1.68-2.69a.48.48,0,0,1-.34.36,1.24,1.24,0,0,1-.33,0h-.53s0,0,0,0V11.68s0,0,0,0h.53a1,1,0,0,1,.35.05.43.43,0,0,1,.32.34A1,1,0,0,1,395.88,12.48Z" fill="#6d6e6e"/><path d="M395.43,8.68A4.57,4.57,0,1,0,400,13.25,4.57,4.57,0,0,0,395.43,8.68Zm0,8.21a3.64,3.64,0,1,1,3.64-3.64A3.64,3.64,0,0,1,395.43,16.89Z" fill="#6d6e6e"/><rect x="0.67" y="99.07" width="97.33" height="2.23" fill="#0d90e8"/><rect x="289.26" y="99.07" width="97.38" height="2.23" fill="#0d90e8"/><path d="M111.3,107h-2V92.55h2Z" fill="#6d6e6e"/><path d="M115.88,92.55h2V107h-2ZM117.25,105h3.26a3.48,3.48,0,0,0,2.47-.83,3.06,3.06,0,0,0,.87-2.33V97.63A3.06,3.06,0,0,0,123,95.3a3.48,3.48,0,0,0-2.47-.83h-3.26V92.55h3.2a6.71,6.71,0,0,1,3,.6,4.22,4.22,0,0,1,1.87,1.77,5.64,5.64,0,0,1,.64,2.79v4.08a5.64,5.64,0,0,1-.64,2.79,4.17,4.17,0,0,1-1.88,1.76,6.57,6.57,0,0,1-3,.61h-3.19Z" fill="#6d6e6e"/><path d="M130,92.55h2V107h-2Zm1,0h8.27v1.92H131Zm0,6.29h7.18v1.92H131Zm0,6.19h8.27V107H131Z" fill="#6d6e6e"/><path d="M147.07,92.55h1.72L154.1,107h-2.18l-4-11.62-4,11.62h-2.18Zm-2.87,9.32h7.58v1.92H144.2Z" fill="#6d6e6e"/><path d="M158.86,106.9a7.43,7.43,0,0,1-1.74-.59,7.86,7.86,0,0,1-1.51-1l1.25-1.55a5.71,5.71,0,0,0,1.82,1.07,6.22,6.22,0,0,0,2.15.36,4.35,4.35,0,0,0,2.42-.58,1.86,1.86,0,0,0,.86-1.64h0a1.77,1.77,0,0,0-.39-1.2,2.3,2.3,0,0,0-1-.65,11.38,11.38,0,0,0-1.6-.39H161l-.14,0a14.75,14.75,0,0,1-2.36-.56A3.36,3.36,0,0,1,156.93,99a3.74,3.74,0,0,1-.64-2.35h0a4.17,4.17,0,0,1,.6-2.28,3.75,3.75,0,0,1,1.75-1.44,6.91,6.91,0,0,1,2.76-.5,7,7,0,0,1,1.52.17,7.59,7.59,0,0,1,1.48.5,8.46,8.46,0,0,1,1.43.84l-1.15,1.6A7.29,7.29,0,0,0,163,94.6a4.7,4.7,0,0,0-1.64-.3,3.88,3.88,0,0,0-2.29.59,1.94,1.94,0,0,0-.82,1.67h0a1.58,1.58,0,0,0,.42,1.17,2.64,2.64,0,0,0,1,.63c.42.13,1,.27,1.75.42h.07l.08,0,.11,0,.11,0a12.36,12.36,0,0,1,2.18.63,3.51,3.51,0,0,1,1.47,1.19,3.74,3.74,0,0,1,.58,2.23v0a3.73,3.73,0,0,1-2.43,3.68,7.58,7.58,0,0,1-2.85.49A9.53,9.53,0,0,1,158.86,106.9Z" fill="#6d6e6e"/><path d="M178.48,107h-2V92.55h2Z" fill="#6d6e6e"/><path d="M183.06,92.55h1.83l7,11.13-.23.26V92.55h2v14.39h-1.85l-7-11,.24-.26v11.22h-2Z" fill="#6d6e6e"/><path d="M215.09,92.55H217V107h-2V96.16l.1.64L211.56,105h-1.41l-3.54-8,.1-.84V107h-2V92.55h1.89l4.23,9.51Z" fill="#6d6e6e"/><path d="M223.67,106.44a4.5,4.5,0,0,1-1.78-1.86,5.92,5.92,0,0,1-.63-2.79V97.71a5.92,5.92,0,0,1,.63-2.79,4.5,4.5,0,0,1,1.78-1.86,5.21,5.21,0,0,1,2.65-.66,5.28,5.28,0,0,1,2.66.66,4.54,4.54,0,0,1,1.77,1.86,5.92,5.92,0,0,1,.63,2.79v4.08a5.92,5.92,0,0,1-.63,2.79,4.54,4.54,0,0,1-1.77,1.86,5.28,5.28,0,0,1-2.66.66A5.21,5.21,0,0,1,223.67,106.44Zm4.22-1.73a2.76,2.76,0,0,0,1.05-1.14,3.71,3.71,0,0,0,.37-1.71V97.64a3.71,3.71,0,0,0-.37-1.71,2.76,2.76,0,0,0-1.05-1.14,3.28,3.28,0,0,0-3.14,0,2.76,2.76,0,0,0-1.05,1.14,3.71,3.71,0,0,0-.37,1.71v4.22a3.71,3.71,0,0,0,.37,1.71,2.76,2.76,0,0,0,1.05,1.14,3.28,3.28,0,0,0,3.14,0Z" fill="#6d6e6e"/><path d="M233.68,92.55h10.16v1.92H233.68Zm4.07,1.18h2V107h-2Z" fill="#6d6e6e"/><path d="M248.86,107h-2V92.55h2Z" fill="#6d6e6e"/><path d="M255.55,106.44a4.5,4.5,0,0,1-1.78-1.86,5.92,5.92,0,0,1-.63-2.79V97.71a5.92,5.92,0,0,1,.63-2.79,4.5,4.5,0,0,1,1.78-1.86,5.67,5.67,0,0,1,5.31,0,4.54,4.54,0,0,1,1.77,1.86,5.92,5.92,0,0,1,.63,2.79v4.08a5.92,5.92,0,0,1-.63,2.79,4.54,4.54,0,0,1-1.77,1.86,5.67,5.67,0,0,1-5.31,0Zm4.22-1.73a2.76,2.76,0,0,0,1.05-1.14,3.71,3.71,0,0,0,.37-1.71V97.64a3.71,3.71,0,0,0-.37-1.71,2.76,2.76,0,0,0-1.05-1.14,3.28,3.28,0,0,0-3.14,0,2.76,2.76,0,0,0-1,1.14,3.71,3.71,0,0,0-.37,1.71v4.22a3.71,3.71,0,0,0,.37,1.71,2.76,2.76,0,0,0,1,1.14,3.28,3.28,0,0,0,3.14,0Z" fill="#6d6e6e"/><path d="M267.35,92.55h1.83l7,11.13-.24.26V92.55h2v14.39h-1.85l-7-11,.24-.26v11.22h-2Z" fill="#6d6e6e"/></g></g></svg>