<svg xmlns="http://www.w3.org/2000/svg" viewBox="0 0 400 107.1"><g id="Layer_2" data-name="Layer 2"><g id="Standard"><path d="M333,80.86a4.29,4.29,0,0,1,4.5-4.34,4.16,4.16,0,0,1,3.22,1.32l-.79.76a3.13,3.13,0,0,0-2.39-1,3.26,3.26,0,1,0,0,6.52,3.15,3.15,0,0,0,2.39-1l.79.76a4.19,4.19,0,0,1-3.24,1.34A4.28,4.28,0,0,1,333,80.86Z" fill="#bc1d1d"/><path d="M347.65,83h-4.51l-.93,2.12H341l3.84-8.49H346l3.86,8.49h-1.27Zm-.42-1-1.83-4.16L343.57,82Z" fill="#bc1d1d"/><path d="M358.41,76.61V85.1h-1l-5.09-6.33V85.1h-1.22V76.61h1l5.09,6.33V76.61Z" fill="#bc1d1d"/><path d="M366.36,83h-4.51l-.93,2.12h-1.25l3.84-8.49h1.2l3.86,8.49H367.3Zm-.42-1-1.83-4.16L362.28,82Z" fill="#bc1d1d"/><path d="M369.82,76.61h3.58c2.73,0,4.58,1.73,4.58,4.25s-1.85,4.24-4.58,4.24h-3.58Zm3.51,7.44a3.2,3.2,0,1,0,0-6.38H371v6.38Z" fill="#bc1d1d"/><path d="M385.12,83h-4.51l-.93,2.12h-1.25l3.84-8.49h1.2l3.86,8.49h-1.28Zm-.42-1-1.84-4.16L381,82Z" fill="#bc1d1d"/><path d="M330.75,81.54a3.29,3.29,0,0,1-.42-.21.13.13,0,0,1-.07-.17,1.55,1.55,0,0,0,0-.21c.11-.47.25-.92.38-1.38,0-.06,0-.06,0,0l-.44.1a9.15,9.15,0,0,1-.91.18.2.2,0,0,1-.19-.08.42.42,0,0,1-.09-.14,1.68,1.68,0,0,1-.12-.38l0-.17-.18.21c-.27.31-.55.62-.85.91a1.44,1.44,0,0,1-.27.22.12.12,0,0,1-.18-.05.3.3,0,0,1,0-.1.88.88,0,0,1,0-.23,5.12,5.12,0,0,1,.1-.54c.12-.55.21-1.1.31-1.65l.06-.34-.07.05c-.16.09-.33.19-.51.27l-.21.08a.18.18,0,0,1-.23-.07l-.12-.16c-.26-.43-.49-.87-.72-1.31l-.12-.25,0,.05c-.2.4-.4.8-.61,1.18a4.43,4.43,0,0,1-.29.46.21.21,0,0,1-.23.08l-.14,0a6.27,6.27,0,0,1-.58-.29.15.15,0,0,0-.09,0v0c.13.65.26,1.3.38,2a6.42,6.42,0,0,1,.1.75.3.3,0,0,1,0,.16.12.12,0,0,1-.13.07.39.39,0,0,1-.15-.06,1.33,1.33,0,0,1-.3-.23,9.06,9.06,0,0,1-.9-1.05s0,0,0,0-.06.29-.1.44a.77.77,0,0,1-.12.24.14.14,0,0,1-.14.06h-.16c-.38-.06-.76-.15-1.14-.24l-.19,0,0,.06c.11.31.21.62.3.94a4.56,4.56,0,0,1,.13.62.18.18,0,0,1-.09.18,2.75,2.75,0,0,1-.38.2l-.16.07.05,0c.64.49,1.28,1,1.89,1.5a4.61,4.61,0,0,1,.51.48.28.28,0,0,1,.07.22,2.92,2.92,0,0,1-.14.6l-.06.2h0l.21,0c.63-.11,1.26-.22,1.91-.27a2,2,0,0,1,.34,0c.08,0,.1,0,.11.12a1,1,0,0,1,0,.25c0,.5,0,1,0,1.52,0,.26,0,.52,0,.78H326c0-.19,0-.38,0-.57a15.1,15.1,0,0,1,0-1.65,1.76,1.76,0,0,1,.06-.38c0-.07,0-.08.12-.07l.52,0,1.58.2.33,0c0-.11-.08-.21-.11-.32a1.73,1.73,0,0,1-.1-.45.17.17,0,0,1,.06-.15l.24-.23c.73-.62,1.48-1.21,2.22-1.8a.08.08,0,0,0,0,0Z" fill="#bc1d1d"/><path d="M96.79,0h45L109.1,16.85c-7.73,0-7,.46-12.27,6.2l-22,24.21c-10.1,0-19.33.09-29.43,0a36.28,36.28,0,0,0-11.75,2.31L72.2,11C75.92,7.31,81.48,0,96.79,0Z" fill="#0d90e8" fill-rule="evenodd"/><rect x="193.11" y="13.99" width="6.15" height="32.83" fill="#0d90e8"/><path d="M238.34,32.94a12.52,12.52,0,0,0,1.8-6.92,14.18,14.18,0,0,0-.82-5,10.43,10.43,0,0,0-2.37-3.8,10.24,10.24,0,0,0-3.77-2.42,14.34,14.34,0,0,0-5-.83H204.68V46.82h6.15V20.13h17.34a6.12,6.12,0,0,1,4.37,1.47,6,6,0,0,1,1.54,4.51,6.62,6.62,0,0,1-1.49,4.66,5.82,5.82,0,0,1-4.44,1.58H214.42v5.49h12.24l8.11,8.9.07.08h8.72l-9.89-10A9.91,9.91,0,0,0,238.34,32.94Z" fill="#0d90e8"/><rect x="171.18" y="27.99" width="16.87" height="5.44" fill="#0d90e8"/><polygon points="161.44 46.82 167.59 46.82 167.59 20.13 189.43 20.13 189.43 13.99 161.44 13.99 161.44 46.82" fill="#0d90e8"/><path d="M258.91,32.77H273.5v7.9H259.91a9.85,9.85,0,0,1-3.93-.78,9.44,9.44,0,0,1-3.1-2.14,9.89,9.89,0,0,1-2-3.28,11.45,11.45,0,0,1-.74-4.14,11.24,11.24,0,0,1,.74-4.13,9.81,9.81,0,0,1,2-3.21,9.49,9.49,0,0,1,3.1-2.1,10.09,10.09,0,0,1,3.93-.76h17.78V14H259.91a17.22,17.22,0,0,0-6.34,1.14,15.29,15.29,0,0,0-5.07,3.26,14.75,14.75,0,0,0-3.35,5.1A17.63,17.63,0,0,0,244,30.07a18.28,18.28,0,0,0,1.19,6.63A16,16,0,0,0,248.49,42a15.77,15.77,0,0,0,5,3.52,15.57,15.57,0,0,0,6.35,1.29h19.75V27.51H258.91Z" fill="#0d90e8"/><rect x="381.36" y="13.99" width="6.15" height="32.83" fill="#0d90e8"/><polygon points="355.75 13.99 349.6 13.99 349.6 46.82 377.5 46.82 377.5 40.67 355.75 40.67 355.75 13.99" fill="#0d90e8"/><polygon points="290.55 20.13 313.81 20.13 313.81 13.99 284.39 13.99 284.39 46.82 313.85 46.82 313.85 40.67 290.55 40.67 290.55 20.13" fill="#0d90e8"/><polygon points="324.31 13.99 318.15 13.99 318.15 46.82 346.05 46.82 346.05 40.67 324.31 40.67 324.31 13.99" fill="#0d90e8"/><rect x="294.13" y="27.51" width="18.43" height="5.26" fill="#0d90e8"/><path d="M48.93,50.18c-11,0-18.12,2.22-26.11,10.23L0,83.22l41.84,0,5.21-5.69c7.55-8.26,10.6-9.68,21.63-9.65H85.29l15.92-17.67Z" fill="#0d90e8" fill-rule="evenodd"/><polygon points="143.5 2.49 128.95 83.22 98.26 83.22 110.65 19.44 143.5 2.49" fill="#6d6e6e"/><path d="M236.93,52.79h-3.86a7.52,7.52,0,0,0-7.82,7.89c0,4.69,3.36,8.22,7.82,8.22h3.86a7.88,7.88,0,0,0,7.89-8.22A7.55,7.55,0,0,0,236.93,52.79Zm4.87,8a4.81,4.81,0,0,1-4.87,5.07h-3.86a5,5,0,0,1,0-10.07h3.86A4.72,4.72,0,0,1,241.8,60.81Z" fill="#6d6e6e"/><polygon points="206.56 55.81 212.58 55.81 212.58 68.9 215.6 68.9 215.6 55.81 221.62 55.81 221.62 52.79 206.56 52.79 206.56 55.81" fill="#6d6e6e"/><path d="M171.67,52.57a1.67,1.67,0,0,0-1.46,1L161,68.9h3.45l7.13-12.05,3.31,5.56h-4.71l-1.46,2.5h7.65l2.34,3.93,0,.06h3.63l-9.25-15.37A1.69,1.69,0,0,0,171.67,52.57Z" fill="#6d6e6e"/><path d="M266,52.6a1.52,1.52,0,0,0-1.44,1l-4.77,10.94-4.77-10.94a1.62,1.62,0,0,0-1.51-1,1.44,1.44,0,0,0-1.5,1.22L248,68.74l0,.16h3l3-10.9,4.33,10a1.61,1.61,0,0,0,3.07,0l4.35-10,2.94,10.8,0,.1h3l-4.1-15.08A1.44,1.44,0,0,0,266,52.6Z" fill="#6d6e6e"/><path d="M199.41,61.77c0,3.22-1.48,4.37-5.65,4.37S188.1,65,188.1,61.77v-9H185v9c0,5.08,2.67,7.34,8.67,7.34s8.69-2.19,8.69-7.34v-9h-3Z" fill="#6d6e6e"/><path d="M362.62,64.09l-11-10.89a1.74,1.74,0,0,0-1.27-.6c-.95,0-1.54.68-1.54,1.78V68.9h2.89V57.47l10.93,11h0a1.86,1.86,0,0,0,1.35.62c.91,0,1.5-.7,1.5-1.78V52.66h-2.89Z" fill="#6d6e6e"/><path d="M285.54,52.57a1.65,1.65,0,0,0-1.46,1L275,68.71l-.11.19h3.45l7.13-12.05,3.31,5.56H284l-1.45,2.5h7.65l2.37,4h3.63L287,53.53A1.61,1.61,0,0,0,285.54,52.57Z" fill="#6d6e6e"/><path d="M382.82,59.42h-7.26a1.67,1.67,0,0,1-1.85-1.79,1.7,1.7,0,0,1,1.88-1.82H387.1v-3H375.59c-3,0-5,1.8-5,4.58s2,4.64,5,4.64h7.27c1.43,0,2.19.66,2.19,1.92s-.82,1.95-2.19,1.95h-12v3h12c3.17,0,5.06-1.79,5.06-4.77S386.13,59.42,382.82,59.42Z" fill="#6d6e6e"/><path d="M336.14,52.79h-3.86a7.52,7.52,0,0,0-7.82,7.89c0,4.69,3.36,8.22,7.82,8.22h3.86A7.88,7.88,0,0,0,344,60.68,7.55,7.55,0,0,0,336.14,52.79Zm4.87,8a4.81,4.81,0,0,1-4.87,5.07h-3.86a5,5,0,0,1,0-10.07h3.86A4.73,4.73,0,0,1,341,60.81Z" fill="#6d6e6e"/><rect x="316.37" y="52.79" width="3.01" height="16.11" fill="#6d6e6e"/><polygon points="296.7 55.81 302.72 55.81 302.72 68.9 305.74 68.9 305.74 55.81 311.76 55.81 311.76 52.79 296.7 52.79 296.7 55.81" fill="#6d6e6e"/><path d="M397.56,15.17c-.12-.23-.23-.45-.34-.68s-.18-.37-.28-.55a1.42,1.42,0,0,0-.38-.46.73.73,0,0,0-.3-.16l0,0a1.09,1.09,0,0,0,.25-.1,1.21,1.21,0,0,0,.42-.33,1,1,0,0,0,.17-.33,1.46,1.46,0,0,0,.05-.2v0h0s0,0,0,0h0v-.06s0,0,0,0V12s0,0,0-.05v-.07s0,0,0,0v-.06a1.11,1.11,0,0,0-.13-.4.92.92,0,0,0-.22-.26,1.17,1.17,0,0,0-.28-.17,1.42,1.42,0,0,0-.33-.11l-.16,0h-2.53s0,0,0,0v4.72s0,0,0,0h1.19s0,0,0,0V13.74h.42a1,1,0,0,1,.32.08.64.64,0,0,1,.23.2,2,2,0,0,1,.2.3,2,2,0,0,0,.1.21c.05.1.09.2.15.3s.09.2.14.29a2,2,0,0,1,.1.21,1.74,1.74,0,0,0,.1.19s0,0,0,0h1.28s0,0,0,0Zm-1.68-2.69a.48.48,0,0,1-.34.36,1.24,1.24,0,0,1-.33,0h-.53s0,0,0,0V11.68s0,0,0,0h.53a1,1,0,0,1,.35.05.43.43,0,0,1,.32.34A1,1,0,0,1,395.88,12.48Z" fill="#6d6e6e"/><path d="M395.43,8.68A4.57,4.57,0,1,0,400,13.25,4.57,4.57,0,0,0,395.43,8.68Zm0,8.21a3.64,3.64,0,1,1,3.64-3.64A3.64,3.64,0,0,1,395.43,16.89Z" fill="#6d6e6e"/><path d="M397.56,15.17c-.12-.23-.23-.45-.34-.68s-.18-.37-.28-.55a1.42,1.42,0,0,0-.38-.46.73.73,0,0,0-.3-.16l0,0a1.09,1.09,0,0,0,.25-.1,1.21,1.21,0,0,0,.42-.33,1,1,0,0,0,.17-.33,1.46,1.46,0,0,0,.05-.2v0h0s0,0,0,0h0v-.06s0,0,0,0V12s0,0,0-.05v-.07s0,0,0,0v-.06a1.11,1.11,0,0,0-.13-.4.92.92,0,0,0-.22-.26,1.17,1.17,0,0,0-.28-.17,1.42,1.42,0,0,0-.33-.11l-.16,0h-2.53s0,0,0,0v4.72s0,0,0,0h1.19s0,0,0,0V13.74h.42a1,1,0,0,1,.32.08.64.64,0,0,1,.23.2,2,2,0,0,1,.2.3,2,2,0,0,0,.1.21c.05.1.09.2.15.3s.09.2.14.29a2,2,0,0,1,.1.21,1.74,1.74,0,0,0,.1.19s0,0,0,0h1.28s0,0,0,0Zm-1.68-2.69a.48.48,0,0,1-.34.36,1.24,1.24,0,0,1-.33,0h-.53s0,0,0,0V11.68s0,0,0,0h.53a1,1,0,0,1,.35.05.43.43,0,0,1,.32.34A1,1,0,0,1,395.88,12.48Z" fill="#6d6e6e"/><path d="M395.43,8.68A4.57,4.57,0,1,0,400,13.25,4.57,4.57,0,0,0,395.43,8.68Zm0,8.21a3.64,3.64,0,1,1,3.64-3.64A3.64,3.64,0,0,1,395.43,16.89Z" fill="#6d6e6e"/><rect x="0.7" y="99.07" width="97.33" height="2.23" fill="#0d90e8"/><rect x="289.28" y="99.07" width="97.38" height="2.23" fill="#0d90e8"/><path d="M111.33,107h-2V92.55h2Z" fill="#6d6e6e"/><path d="M115.91,92.55h2V107h-2ZM117.27,105h3.26a3.46,3.46,0,0,0,2.47-.83,3,3,0,0,0,.88-2.33V97.63A3,3,0,0,0,123,95.3a3.46,3.46,0,0,0-2.47-.83h-3.26V92.55h3.2a6.68,6.68,0,0,1,3,.6,4.27,4.27,0,0,1,1.87,1.77,5.64,5.64,0,0,1,.65,2.79v4.08a5.64,5.64,0,0,1-.65,2.79,4.22,4.22,0,0,1-1.87,1.77,6.72,6.72,0,0,1-3,.6h-3.19Z" fill="#6d6e6e"/><path d="M130,92.55h2V107h-2Zm1,0h8.27v1.92H131Zm0,6.29h7.18v1.92H131Zm0,6.19h8.27V107H131Z" fill="#6d6e6e"/><path d="M147.09,92.55h1.72l5.31,14.4h-2.18l-4-11.62L144,107h-2.18Zm-2.86,9.32h7.57v1.92h-7.57Z" fill="#6d6e6e"/><path d="M158.88,106.9a7.59,7.59,0,0,1-1.74-.59,7.86,7.86,0,0,1-1.51-1l1.26-1.55a5.66,5.66,0,0,0,1.81,1.07,6.26,6.26,0,0,0,2.15.36,4.41,4.41,0,0,0,2.43-.58,1.87,1.87,0,0,0,.86-1.64h0a1.72,1.72,0,0,0-.39-1.19,2.29,2.29,0,0,0-1-.66,12.13,12.13,0,0,0-1.6-.39H161l-.15,0a14.59,14.59,0,0,1-2.35-.56A3.31,3.31,0,0,1,157,99a3.74,3.74,0,0,1-.65-2.35h0a4.17,4.17,0,0,1,.6-2.28,3.75,3.75,0,0,1,1.75-1.44,7.49,7.49,0,0,1,4.28-.33,7.59,7.59,0,0,1,1.48.5,8.09,8.09,0,0,1,1.43.84l-1.15,1.6a6.68,6.68,0,0,0-1.64-.9,4.5,4.5,0,0,0-1.64-.31,3.9,3.9,0,0,0-2.29.59,2,2,0,0,0-.82,1.67h0a1.55,1.55,0,0,0,.43,1.17,2.64,2.64,0,0,0,1,.63c.41.13,1,.27,1.74.42h.08l.07,0,.11,0,.11,0a12.36,12.36,0,0,1,2.18.63,3.39,3.39,0,0,1,1.47,1.19,3.76,3.76,0,0,1,.59,2.23v0a3.92,3.92,0,0,1-.63,2.25,3.82,3.82,0,0,1-1.8,1.43,7.4,7.4,0,0,1-2.86.49A9.6,9.6,0,0,1,158.88,106.9Z" fill="#6d6e6e"/><path d="M178.5,107h-2V92.55h2Z" fill="#6d6e6e"/><path d="M183.08,92.55h1.84l7,11.13-.24.26V92.55h2v14.39h-1.85l-7-11,.23-.26v11.22h-2Z" fill="#6d6e6e"/><path d="M215.11,92.55H217V107h-2V96.16l.1.64L211.58,105h-1.4l-3.55-8,.1-.84V107h-2V92.55h1.89l4.23,9.51Z" fill="#6d6e6e"/><path d="M223.69,106.44a4.5,4.5,0,0,1-1.78-1.86,5.92,5.92,0,0,1-.63-2.79V97.71a5.92,5.92,0,0,1,.63-2.79,4.5,4.5,0,0,1,1.78-1.86,5.67,5.67,0,0,1,5.31,0,4.56,4.56,0,0,1,1.78,1.86,5.92,5.92,0,0,1,.63,2.79v4.08a5.92,5.92,0,0,1-.63,2.79,4.56,4.56,0,0,1-1.78,1.86,5.67,5.67,0,0,1-5.31,0Zm4.22-1.73a2.63,2.63,0,0,0,1.05-1.14,3.71,3.71,0,0,0,.38-1.71V97.64a3.71,3.71,0,0,0-.38-1.71,2.63,2.63,0,0,0-1.05-1.14,3.08,3.08,0,0,0-1.57-.4,3.13,3.13,0,0,0-1.57.4,2.67,2.67,0,0,0-1,1.14,3.71,3.71,0,0,0-.38,1.71v4.22a3.71,3.71,0,0,0,.38,1.71,2.67,2.67,0,0,0,1,1.14,3.13,3.13,0,0,0,1.57.4A3.08,3.08,0,0,0,227.91,104.71Z" fill="#6d6e6e"/><path d="M233.71,92.55h10.16v1.92H233.71Zm4.07,1.18h2V107h-2Z" fill="#6d6e6e"/><path d="M248.88,107h-2V92.55h2Z" fill="#6d6e6e"/><path d="M255.57,106.44a4.56,4.56,0,0,1-1.78-1.86,5.92,5.92,0,0,1-.63-2.79V97.71a5.92,5.92,0,0,1,.63-2.79,4.56,4.56,0,0,1,1.78-1.86,5.67,5.67,0,0,1,5.31,0,4.5,4.5,0,0,1,1.78,1.86,5.92,5.92,0,0,1,.63,2.79v4.08a5.92,5.92,0,0,1-.63,2.79,4.5,4.5,0,0,1-1.78,1.86,5.67,5.67,0,0,1-5.31,0Zm4.22-1.73a2.63,2.63,0,0,0,1-1.14,3.71,3.71,0,0,0,.38-1.71V97.64a3.71,3.71,0,0,0-.38-1.71,2.63,2.63,0,0,0-1-1.14,3.26,3.26,0,0,0-3.13,0,2.63,2.63,0,0,0-1.05,1.14,3.71,3.71,0,0,0-.38,1.71v4.22a3.71,3.71,0,0,0,.38,1.71,2.63,2.63,0,0,0,1.05,1.14,3.26,3.26,0,0,0,3.13,0Z" fill="#6d6e6e"/><path d="M267.37,92.55h1.83l7,11.13-.23.26V92.55h2v14.39h-1.86l-7-11,.24-.26v11.22h-2Z" fill="#6d6e6e"/></g></g></svg>