<svg xmlns="http://www.w3.org/2000/svg" viewBox="0 0 380 128"><defs><style>.fg-logo-color_wht__1,.fg-logo-color_wht__4{fill:none;stroke-miterlimit:10}.fg-logo-color_wht__1{stroke:#fefefe;stroke-width:.5px}.fg-logo-color_wht__4{stroke-width:.5px}.fg-logo-color_wht__1,.fg-logo-color_wht__2,.fg-logo-color_wht__4,.fg-logo-color_wht__5{fill-rule:evenodd}.fg-logo-color_wht__2{fill:#fefefe}.fg-logo-color_wht__4{stroke:#fefefe}.fg-logo-color_wht__5{fill:#fefefe}</style></defs><g id="solid"><path class="fg-logo-color_wht__1" d="M96.8 25h42.64l-31 16c-7.32 0-6.68.44-11.63 5.89L76 69.83c-9.58 0-18.33.08-27.91 0A34.06 34.06 0 0 0 36.92 72l36.56-36.55C77 31.93 82.28 25 96.8 25z"/><path class="fg-logo-color_wht__2" d="M96.8 25h42.64l-31 16c-7.32 0-6.68.44-11.63 5.89L76 69.83c-9.58 0-18.33.08-27.91 0A34.06 34.06 0 0 0 36.92 72l36.56-36.55C77 31.93 82.28 25 96.8 25z"/><path d="M51.41 72.6c-10.47 0-17.18 2.1-24.77 9.7L5 103.93h39.69l4.94-5.39c7.16-7.84 10-9.19 20.51-9.15h15.75L101 72.59z" stroke-width=".25" fill-rule="evenodd" stroke="#fefefe" fill="none" stroke-miterlimit="10"/><path class="fg-logo-color_wht__2" d="M51.41 72.6c-10.47 0-17.18 2.1-24.77 9.7L5 103.93h39.69l4.94-5.39c7.16-7.84 10-9.19 20.51-9.15h15.75L101 72.59z"/><path class="fg-logo-color_wht__4" d="M141.1 27.36l-13.8 76.57H98.19l11.76-60.49 31.15-16.08z"/><path class="fg-logo-color_wht__5" d="M141.1 27.36l-13.8 76.57H98.19l11.76-60.49 31.15-16.08z"/><path class="fg-logo-color_wht__1" d="M158.36 69.17V38.5h26.07v5.36h-20.72v25.31h-5.35z"/><path class="fg-logo-color_wht__2" d="M158.36 69.17V38.5h26.07v5.36h-20.72v25.31h-5.35z"/><path class="fg-logo-color_wht__1" d="M167.59 56.47h15.53v-4.68h-15.53v4.68z"/><path class="fg-logo-color_wht__2" d="M167.59 56.47h15.53v-4.68h-15.53v4.68z"/><path class="fg-logo-color_wht__1" d="M188.39 69.17V38.5h5.36v30.67h-5.36z"/><path class="fg-logo-color_wht__2" d="M188.39 69.17V38.5h5.36v30.67h-5.36z"/><path class="fg-logo-color_wht__1" d="M227.84 69.17l-7.76-8.52H208.6v-4.73h12.79a5.69 5.69 0 0 0 4.38-1.58 6.43 6.43 0 0 0 1.48-4.57 5.9 5.9 0 0 0-1.54-4.46 6 6 0 0 0-4.31-1.45h-16.68v25.31h-5.35V38.5h22a13.2 13.2 0 0 1 4.68.78 9.7 9.7 0 0 1 3.5 2.24 9.55 9.55 0 0 1 2.21 3.48 13.32 13.32 0 0 1 .76 4.64 11.58 11.58 0 0 1-1.67 6.43 9.28 9.28 0 0 1-4.65 3.74l9.23 9.32z"/><path class="fg-logo-color_wht__2" d="M227.84 69.17l-7.76-8.52H208.6v-4.73h12.79a5.69 5.69 0 0 0 4.38-1.58 6.43 6.43 0 0 0 1.48-4.57 5.9 5.9 0 0 0-1.54-4.46 6 6 0 0 0-4.31-1.45h-16.68v25.31h-5.35V38.5h22a13.2 13.2 0 0 1 4.68.78 9.7 9.7 0 0 1 3.5 2.24 9.55 9.55 0 0 1 2.21 3.48 13.32 13.32 0 0 1 .76 4.64 11.58 11.58 0 0 1-1.67 6.43 9.28 9.28 0 0 1-4.65 3.74l9.23 9.32z"/><path class="fg-logo-color_wht__1" d="M251.49 69.17a14.47 14.47 0 0 1-5.92-1.2 14.69 14.69 0 0 1-4.72-3.29 14.94 14.94 0 0 1-3.12-5 17 17 0 0 1-1.11-6.2 16.51 16.51 0 0 1 1.11-6.16 13.71 13.71 0 0 1 3.13-4.75 14 14 0 0 1 4.72-3 15.91 15.91 0 0 1 5.93-1.08h16.62v5.36h-16.62a9.6 9.6 0 0 0-3.82.74 9.05 9.05 0 0 0-3 2 9.5 9.5 0 0 0-2 3.13 10.74 10.74 0 0 0-.71 4 11 11 0 0 0 .71 4 9.67 9.67 0 0 0 2 3.19 9.16 9.16 0 0 0 3 2.08 9.44 9.44 0 0 0 3.82.76h13.12v-8h-13.84v-4.42H270v17.84z"/><path class="fg-logo-color_wht__2" d="M251.49 69.17a14.47 14.47 0 0 1-5.92-1.2 14.69 14.69 0 0 1-4.72-3.29 14.94 14.94 0 0 1-3.12-5 17 17 0 0 1-1.11-6.2 16.51 16.51 0 0 1 1.11-6.16 13.71 13.71 0 0 1 3.13-4.75 14 14 0 0 1 4.72-3 15.91 15.91 0 0 1 5.93-1.08h16.62v5.36h-16.62a9.6 9.6 0 0 0-3.82.74 9.05 9.05 0 0 0-3 2 9.5 9.5 0 0 0-2 3.13 10.74 10.74 0 0 0-.71 4 11 11 0 0 0 .71 4 9.67 9.67 0 0 0 2 3.19 9.16 9.16 0 0 0 3 2.08 9.44 9.44 0 0 0 3.82.76h13.12v-8h-13.84v-4.42H270v17.84z"/><path class="fg-logo-color_wht__1" d="M274.97 69.17V38.5h27.42v5.36h-22.06v19.95h22.1v5.36h-27.46z"/><path class="fg-logo-color_wht__2" d="M274.97 69.17V38.5h27.42v5.36h-22.06v19.95h22.1v5.36h-27.46z"/><path class="fg-logo-color_wht__1" d="M284.2 55.84h17.01v-4.51H284.2v4.51z"/><path class="fg-logo-color_wht__2" d="M284.2 55.84h17.01v-4.51H284.2v4.51z"/><path class="fg-logo-color_wht__1" d="M306.98 69.17V38.5h5.37v25.31h20.62v5.36h-25.99z"/><path class="fg-logo-color_wht__2" d="M306.98 69.17V38.5h5.37v25.31h20.62v5.36h-25.99z"/><path class="fg-logo-color_wht__1" d="M336.81 69.17V38.5h5.36v25.31h20.63v5.36h-25.99z"/><path class="fg-logo-color_wht__2" d="M336.81 69.17V38.5h5.36v25.31h20.63v5.36h-25.99z"/><path stroke-width=".5" stroke="#fefefe" fill="none" stroke-miterlimit="10" d="M366.94 38.5h5.36v30.67h-5.36z"/><path fill="#fefefe" d="M366.94 38.5h5.36v30.67h-5.36z"/><path class="fg-logo-color_wht__4" d="M177.74 90.23l-8.66-14.4a1.43 1.43 0 0 0-1.26-.85 1.45 1.45 0 0 0-1.28.85l-8.65 14.4h3l6.82-11.54 3.35 5.62h-4.61l-1.24 2.13h7.11l2.26 3.79z"/><path class="fg-logo-color_wht__5" d="M177.74 90.23l-8.66-14.4a1.43 1.43 0 0 0-1.26-.85 1.45 1.45 0 0 0-1.28.85l-8.65 14.4h3l6.82-11.54 3.35 5.62h-4.61l-1.24 2.13h7.11l2.26 3.79z"/><path class="fg-logo-color_wht__4" d="M194.25 83.58c0 3-1.34 4.27-5.48 4.27s-5.49-1.25-5.49-4.27v-8.39h-2.71v8.39c0 4.66 2.33 6.85 8.11 6.85s8.13-2.19 8.13-6.85v-8.39h-2.56v8.39z"/><path class="fg-logo-color_wht__5" d="M194.25 83.58c0 3-1.34 4.27-5.48 4.27s-5.49-1.25-5.49-4.27v-8.39h-2.71v8.39c0 4.66 2.33 6.85 8.11 6.85s8.13-2.19 8.13-6.85v-8.39h-2.56v8.39z"/><path class="fg-logo-color_wht__4" d="M209.36 90.22V77.81h5.71v-2.62h-14.04v2.62h5.71v12.41h2.62z"/><path class="fg-logo-color_wht__5" d="M209.36 90.22V77.81h5.71v-2.62h-14.04v2.62h5.71v12.41h2.62z"/><path class="fg-logo-color_wht__4" d="M229.72 90.23h-3.67c-4.2 0-7.3-3.32-7.3-7.68a7 7 0 0 1 7.3-7.36h3.67a7 7 0 0 1 7.36 7.36 7.33 7.33 0 0 1-7.36 7.68zm-3.67-2.63h3.67a4.67 4.67 0 0 0 4.73-4.92 4.62 4.62 0 0 0-4.73-4.87h-3.67a4.6 4.6 0 0 0-4.67 4.87 4.65 4.65 0 0 0 4.67 4.92z"/><path class="fg-logo-color_wht__5" d="M229.72 90.23h-3.67c-4.2 0-7.3-3.32-7.3-7.68a7 7 0 0 1 7.3-7.36h3.67a7 7 0 0 1 7.36 7.36 7.33 7.33 0 0 1-7.36 7.68zm-3.67-2.63h3.67a4.67 4.67 0 0 0 4.73-4.92 4.62 4.62 0 0 0-4.73-4.87h-3.67a4.6 4.6 0 0 0-4.67 4.87 4.65 4.65 0 0 0 4.67 4.92z"/><path class="fg-logo-color_wht__4" d="M262.43 90.23l-3.85-14.15a1.24 1.24 0 0 0-1.25-1.08 1.35 1.35 0 0 0-1.27.89l-4.63 10.63-4.63-10.63a1.43 1.43 0 0 0-1.33-.89 1.24 1.24 0 0 0-1.3 1.08l-3.87 14.15h2.59l2.87-10.57 4.24 9.78a1.41 1.41 0 0 0 2.69 0l4.31-9.78 2.88 10.57z"/><path class="fg-logo-color_wht__5" d="M262.43 90.23l-3.85-14.15a1.24 1.24 0 0 0-1.25-1.08 1.35 1.35 0 0 0-1.27.89l-4.63 10.63-4.63-10.63a1.43 1.43 0 0 0-1.33-.89 1.24 1.24 0 0 0-1.3 1.08l-3.87 14.15h2.59l2.87-10.57 4.24 9.78a1.41 1.41 0 0 0 2.69 0l4.31-9.78 2.88 10.57z"/><path class="fg-logo-color_wht__4" d="M285.74 90.23l-8.67-14.4a1.43 1.43 0 0 0-1.26-.85 1.46 1.46 0 0 0-1.28.85l-8.65 14.4h3l6.83-11.54 3.35 5.62h-4.61l-1.25 2.13h7.12l2.25 3.79z"/><path class="fg-logo-color_wht__5" d="M285.74 90.23l-8.67-14.4a1.43 1.43 0 0 0-1.26-.85 1.46 1.46 0 0 0-1.28.85l-8.65 14.4h3l6.83-11.54 3.35 5.62h-4.61l-1.25 2.13h7.12l2.25 3.79z"/><path class="fg-logo-color_wht__4" d="M294.86 90.22V77.81h5.7v-2.62h-14.04v2.62h5.71v12.41h2.63z"/><path class="fg-logo-color_wht__5" d="M294.86 90.22V77.81h5.7v-2.62h-14.04v2.62h5.71v12.41h2.63z"/><path class="fg-logo-color_wht__4" d="M307.8 90.22V75.19h-2.62v15.03h2.62z"/><path class="fg-logo-color_wht__5" d="M307.8 90.22V75.19h-2.62v15.03h2.62z"/><path class="fg-logo-color_wht__4" d="M323.81 90.23h-3.66c-4.2 0-7.3-3.32-7.3-7.68a7 7 0 0 1 7.3-7.36h3.66a7 7 0 0 1 7.37 7.36 7.33 7.33 0 0 1-7.37 7.68zm-3.66-2.63h3.66a4.66 4.66 0 0 0 4.73-4.92 4.62 4.62 0 0 0-4.73-4.87h-3.66a4.61 4.61 0 0 0-4.68 4.87 4.66 4.66 0 0 0 4.68 4.92z"/><path class="fg-logo-color_wht__5" d="M323.81 90.23h-3.66c-4.2 0-7.3-3.32-7.3-7.68a7 7 0 0 1 7.3-7.36h3.66a7 7 0 0 1 7.37 7.36 7.33 7.33 0 0 1-7.37 7.68zm-3.66-2.63h3.66a4.66 4.66 0 0 0 4.73-4.92 4.62 4.62 0 0 0-4.73-4.87h-3.66a4.61 4.61 0 0 0-4.68 4.87 4.66 4.66 0 0 0 4.68 4.92z"/><path class="fg-logo-color_wht__4" d="M349 89.85a1.65 1.65 0 0 0 1.2.56c.77 0 1.3-.58 1.3-1.57V75.06H349v11l-10.57-10.52a1.5 1.5 0 0 0-1.12-.54c-.82 0-1.34.6-1.34 1.57v13.66h2.5v-11L349 89.85z"/><path class="fg-logo-color_wht__5" d="M349 89.85a1.65 1.65 0 0 0 1.2.56c.77 0 1.3-.58 1.3-1.57V75.06H349v11l-10.57-10.52a1.5 1.5 0 0 0-1.12-.54c-.82 0-1.34.6-1.34 1.57v13.66h2.5v-11L349 89.85z"/><path class="fg-logo-color_wht__4" d="M368.08 90.23c3.15 0 4.68-1.89 4.68-4.41 0-2.91-1.63-4.35-4.68-4.35h-6.88a1.71 1.71 0 0 1-1.88-1.81 1.73 1.73 0 0 1 1.9-1.85H372v-2.62h-10.8c-3 0-4.63 1.8-4.63 4.22s1.75 4.28 4.59 4.28h6.9c1.41 0 2.2.66 2.2 1.94a1.93 1.93 0 0 1-2.2 2h-11.25v2.63z"/><path class="fg-logo-color_wht__5" d="M368.08 90.23c3.15 0 4.68-1.89 4.68-4.41 0-2.91-1.63-4.35-4.68-4.35h-6.88a1.71 1.71 0 0 1-1.88-1.81 1.73 1.73 0 0 1 1.9-1.85H372v-2.62h-10.8c-3 0-4.63 1.8-4.63 4.22s1.75 4.28 4.59 4.28h6.9c1.41 0 2.2.66 2.2 1.94a1.93 1.93 0 0 1-2.2 2h-11.25v2.63z"/></g></svg>