<svg xmlns="http://www.w3.org/2000/svg" viewBox="0 0 46.79 56"><defs><style>.icon-resource-hover_outline{fill:none;stroke:#fff;stroke-linecap:round;stroke-linejoin:round;stroke-width:2px}</style></defs><g id="Layer_2" data-name="Layer 2"><g id="icon-resource-hover_manual"><g id="icon-resource-hover_manual-2" data-name="icon-resource-hover_manual"><path class="icon-resource-hover_outline" d="M45.78 18.47H26.29V1"/><path class="icon-resource-hover_outline" d="M26.29 1H1v54h44.78V18.47L26.29 1z"/><ellipse class="icon-resource-hover_outline" cx="23.39" cy="36.57" rx="6.51" ry="6.54"/><path class="icon-resource-hover_outline" d="M23.39 24.98v5.05m0-5.05v5.05m0-5.05v5.05m0-5.05v5.05m0-5.05v5.05m0-5.05v5.05m0-5.05v5.05m0-5.05v5.05m0-5.05v5.05m-8.16-1.66l1.19 1.2 2.37 2.38m-6.94 4.62h5.03m-1.65 8.2l1.13-1.13 2.43-2.44m4.6 6.97v-5.06m8.16 1.66l-1.41-1.41L28 41.2m6.94-4.63H29.9m1.65-8.2l-1.19 1.2L28 31.95m17.78-13.48H26.29V1"/><path class="icon-resource-hover_outline" d="M26.29 1H1v54h44.78V18.47L26.29 1z"/><ellipse class="icon-resource-hover_outline" cx="23.39" cy="36.57" rx="6.51" ry="6.54"/><path class="icon-resource-hover_outline" d="M23.39 24.98v5.05m0-5.05v5.05m0-5.05v5.05m0-5.05v5.05m0-5.05v5.05m0-5.05v5.05m0-5.05v5.05m0-5.05v5.05m0-5.05v5.05m-8.16-1.66l1.19 1.2 2.37 2.38m-6.94 4.62h5.03m-1.65 8.2l1.13-1.13 2.43-2.44m4.6 6.97v-5.06m8.16 1.66l-1.41-1.41L28 41.2m6.94-4.63H29.9m1.65-8.2l-1.19 1.2L28 31.95"/></g></g></g></svg>