<svg xmlns="http://www.w3.org/2000/svg" viewBox="0 0 47 56"><defs><style>.icon-resource-hover_outline{fill:none;stroke:#fff;stroke-linecap:round;stroke-linejoin:round;stroke-width:2px}</style></defs><g id="Layer_2" data-name="Layer 2"><g id="icon-resource-hover_drawing"><g id="icon-resource-hover_drawing-2" data-name="icon-resource-hover_drawing"><path class="icon-resource-hover_outline" d="M46 18.47H26.41V1"/><path class="icon-resource-hover_outline" d="M26.41 1H1v54h45V18.47L26.41 1z"/><path class="icon-resource-hover_outline" d="M29.8 44.44L11.13 25.09l3.41-3.52L33.2 40.91l-3.4 3.53zm0 0l6.07 2.76-2.67-6.29-3.4 3.53zM46 18.47H26.41V1"/><path class="icon-resource-hover_outline" d="M26.41 1H1v54h45V18.47L26.41 1z"/><path class="icon-resource-hover_outline" d="M29.8 44.44L11.13 25.09l3.41-3.52L33.2 40.91l-3.4 3.53zm0 0l6.07 2.76-2.67-6.29-3.4 3.53z"/></g></g></g></svg>