<svg xmlns="http://www.w3.org/2000/svg" viewBox="0 0 47 56"><defs><style>.icon-resource-hover_outline{fill:none;stroke:#fff;stroke-linecap:round;stroke-linejoin:round;stroke-width:2px}</style></defs><g id="Layer_2" data-name="Layer 2"><g id="icon-resource-hover_pdf"><g id="icon-resource-hover_pdf-2" data-name="icon-resource-hover_pdf"><path class="icon-resource-hover_outline" d="M46 18.47H26.41V1"/><path class="icon-resource-hover_outline" d="M26.41 1H1v54h45V18.47L26.41 1z"/><path d="M7.78 41.49V30.67h3.93a16 16 0 0 1 2.92.16 3.23 3.23 0 0 1 1.74 1.06 3.11 3.11 0 0 1 .71 2.11 3.2 3.2 0 0 1-.41 1.67 3 3 0 0 1-1 1.07 3.68 3.68 0 0 1-1.27.51 14.76 14.76 0 0 1-2.54.16h-1.6v4.08zm2.45-9v3.07h1.34a7.23 7.23 0 0 0 1.94-.17 1.6 1.6 0 0 0 .77-.53 1.36 1.36 0 0 0 .27-.84 1.32 1.32 0 0 0-.39-1 1.82 1.82 0 0 0-1-.48 13.22 13.22 0 0 0-1.76-.07zm8.85-1.82h4.48a9.62 9.62 0 0 1 2.31.21 4.09 4.09 0 0 1 1.83 1 4.79 4.79 0 0 1 1.16 1.76 7.27 7.27 0 0 1 .39 2.55 6.43 6.43 0 0 1-.37 2.31 4.77 4.77 0 0 1-1.3 1.91 4.34 4.34 0 0 1-1.72.86 7.93 7.93 0 0 1-2.17.23h-4.61zm2.45 1.83v7.17h1.83a7.25 7.25 0 0 0 1.48-.11 2.16 2.16 0 0 0 1-.45 2.21 2.21 0 0 0 .64-1 6.19 6.19 0 0 0 .25-2 5.7 5.7 0 0 0-.25-1.93 2.44 2.44 0 0 0-.69-1 2.49 2.49 0 0 0-1.14-.51 12.38 12.38 0 0 0-2-.1zm9.82 8.99V30.67h8.32v1.83H33.8v2.56h5.06v1.83H33.8v4.6z" fill="#fff"/></g></g></g></svg>