<svg xmlns="http://www.w3.org/2000/svg" viewBox="0 0 47 56"><defs><style>.icon-resource-primary_outline{fill:none;stroke:#3a8bca;stroke-linecap:round;stroke-linejoin:round;stroke-width:2px}</style></defs><g id="Layer_2" data-name="Layer 2"><g id="icon-resource-primary_manual"><g id="icon-resource-primary_manual-2" data-name="icon-resource-primary_manual"><path class="icon-resource-primary_outline" d="M46 18.47H26.41V1"/><path class="icon-resource-primary_outline" d="M26.41 1H1v54h45V18.47L26.41 1z"/><circle class="icon-resource-primary_outline" cx="23.5" cy="36.57" r="6.54"/><path class="icon-resource-primary_outline" d="M23.5 24.98v5.05m0-5.05v5.05m0-5.05v5.05m0-5.05v5.05m0-5.05v5.05m0-5.05v5.05m0-5.05v5.05m0-5.05v5.05m0-5.05v5.05m-8.2-1.66l1.25 1.25 2.33 2.33m-6.98 4.62h5.06m-1.66 8.2l1.49-1.48 2.09-2.09m4.62 6.97v-5.06m8.2 1.66l-1.45-1.45-2.12-2.12m6.97-4.63h-5.06m1.66-8.2l-1.24 1.25-2.33 2.33M46 18.47H26.41V1"/><path class="icon-resource-primary_outline" d="M26.41 1H1v54h45V18.47L26.41 1z"/><circle class="icon-resource-primary_outline" cx="23.5" cy="36.57" r="6.54"/><path class="icon-resource-primary_outline" d="M23.5 24.98v5.05m0-5.05v5.05m0-5.05v5.05m0-5.05v5.05m0-5.05v5.05m0-5.05v5.05m0-5.05v5.05m0-5.05v5.05m0-5.05v5.05m-8.2-1.66l1.25 1.25 2.33 2.33m-6.98 4.62h5.06m-1.66 8.2l1.49-1.48 2.09-2.09m4.62 6.97v-5.06m8.2 1.66l-1.45-1.45-2.12-2.12m6.97-4.63h-5.06m1.66-8.2l-1.24 1.25-2.33 2.33"/></g></g></g></svg>