<svg xmlns="http://www.w3.org/2000/svg" viewBox="0 0 284.68 325.11"><g data-name="Layer 2"><path d="M148.46 270.74c0 4.95 0 9.49.06 14 0 .45.72 1 1.24 1.32q9.15 5.23 18.35 10.37c2.28 1.27 4.21 2.73 4.82 5.48a6.8 6.8 0 0 1-2.52 7.19 6.51 6.51 0 0 1-7.55.86c-4.21-2.24-8.34-4.65-12.51-7-.5-.28-1-.53-1.8-.92 0 .84-.09 1.42-.09 2v14.67c0 3.77-2.5 6.35-6.08 6.35s-6.08-2.58-6.09-6.33v-16.64c-.78.36-1.36.58-1.89.88-4.07 2.28-8.1 4.62-12.21 6.84a7.07 7.07 0 0 1-9-1.85 7 7 0 0 1 .18-9.09 13.07 13.07 0 0 1 3.44-2.49c6-3.47 12.12-6.88 18.21-10.28a2.31 2.31 0 0 0 1.33-2.34c-.08-4.22 0-8.44 0-13-1.92 1.06-3.58 2-5.22 2.9-7.93 4.48-15.82 9.06-23.81 13.43a9.89 9.89 0 0 1-14.81-9.28c.17-3.87 2.31-6.56 5.56-8.4Q116.4 259 134.79 248.7a2.47 2.47 0 0 0 1.58-2.7 34 34 0 0 1 0-3.53c-.89.47-1.51.78-2.11 1.11-4 2.24-7.89 4.57-11.92 6.7a7.13 7.13 0 0 1-10.54-5 6.94 6.94 0 0 1 3.45-7.41c5.4-3.16 10.75-6.45 16.35-9.2 3.64-1.79 5.33-3.87 4.87-8.13s-.1-8.87-.1-13.67c-1.09.72-1.95 1.24-2.76 1.83-4.49 3.25-8.92 6.59-13.48 9.74a8.87 8.87 0 0 1-9.39.55c-3.24-1.59-5.16-4.26-5-7.85.13-4.32.72-8.62 1.15-12.93.27-2.7.61-5.4 1-8.51l-8.16 4.71c-2.56 1.48-5.11 3-7.71 4.43a2.06 2.06 0 0 0-1.17 2.1q.11 11.54.1 23.08a6.92 6.92 0 0 1-6 6.8c-4.07.41-7.46-1.7-8.12-5.31a35.1 35.1 0 0 1-.36-5.9v-11.75c-1.64 1-3 1.66-4.3 2.57-.34.25-.36 1.09-.36 1.66.08 10.38.2 20.75.29 31.13q.06 6.11 0 12.2a9.92 9.92 0 0 1-19.83-.06l-.3-31v-2.29c-1.13.61-2 1.07-2.9 1.57-2.95 1.69-5.87 3.43-8.85 5.08A2.07 2.07 0 0 0 39 230.9c.11 7.52.26 15 .27 22.56a7.14 7.14 0 0 1-10.61 6.4 7 7 0 0 1-3.81-6.48q0-6.75-.05-13.51v-2.2c-2.25 1.27-4.14 2.31-6 3.39-2.91 1.67-5.79 3.36-8.7 5A6.09 6.09 0 1 1 4 235.57c4.23-2.45 8.47-4.88 12.69-7.33.52-.3 1-.64 1.84-1.17l-6.31-3.76c-2.5-1.48-5.06-2.87-7.51-4.44a6.88 6.88 0 0 1-3.27-7.21A6.76 6.76 0 0 1 6 206.08a6.93 6.93 0 0 1 6.18.53c6.21 3.64 12.46 7.2 18.59 10.94a3.6 3.6 0 0 0 4.45 0c2.9-1.86 6-3.49 9-5.23.38-.22.71-.49 1.35-.93-2.32-1.38-4.44-2.66-6.58-3.92-7.28-4.29-14.59-8.53-21.85-12.87a9.84 9.84 0 0 1-3.74-13.54 10 10 0 0 1 13.86-3.63c6.31 3.67 12.58 7.4 18.88 11.11 6 3.53 12 7 18 10.61a2.33 2.33 0 0 0 2.85 0c.93-.65 2-1.18 3.17-1.9L62 192.5c-1.84-1.09-3.7-2.16-5.53-3.26a7.22 7.22 0 1 1 7.34-12.43q9.52 5.56 19 11.24a2.79 2.79 0 0 0 3.29.07c4.38-2.62 8.82-5.14 13.24-7.7.42-.24.8-.54 1.45-1-.69-.36-1.19-.64-1.7-.88-5.09-2.28-10.33-4.54-15.45-6.91a9.2 9.2 0 0 1-5-11 8.7 8.7 0 0 1 4.92-5.86c5.1-2.31 10.25-4.52 15.37-6.77.8-.35 1.58-.73 2.56-1.18a7.21 7.21 0 0 0-.9-.81c-5-2.85-10-5.66-15-8.54a2.16 2.16 0 0 0-2.53 0c-6.33 3.86-12.7 7.64-19 11.47-3.68 2.23-8.16 1.3-10.22-2.16-2.18-3.66-1-7.91 2.8-10.2s7.72-4.63 11.57-7c.45-.27.87-.6 1.63-1.12a40.69 40.69 0 0 0-4.13-2.2 2.5 2.5 0 0 0-1.8.45q-18.15 10.89-36.26 21.83c-5 3-10.75 2-13.9-2.49a10 10 0 0 1 3.1-14.33L44 115.4c.31-.19.6-.41 1.11-.76-3.57-2-7-3.79-10.28-5.89-1.82-1.18-3.08-.94-4.81.14-6 3.74-12 7.29-18 10.89a7.21 7.21 0 1 1-7.42-12.39q5.85-3.52 11.71-7c.45-.27.87-.6 1.55-1.07l-8.17-4.71c-2.2-1.25-4.44-2.43-6.58-3.75A6 6 0 0 1 1 82.3a6 6 0 0 1 8.21-1.94c4 2.19 7.94 4.47 11.92 6.7.8.45 1.62.87 2.7 1.45.05-.81.11-1.37.11-1.93V73.39c.06-5.53 4.7-9.11 9.59-7.48a6.93 6.93 0 0 1 4.85 6.75v22.58a2.35 2.35 0 0 0 1.43 2.43c3.25 1.73 6.42 3.6 9.62 5.41.47.26 1 .48 1.7.84 0-.75.09-1.32.09-1.88v-31A10 10 0 0 1 67.33 63 9 9 0 0 1 71 70v.5c.07 14.17.18 28.34.16 42.51 0 1.88.49 3 2.23 3.65a24.75 24.75 0 0 1 2.38 1.25c0-.86.09-1.43.09-2v-13.68a7 7 0 0 1 7.19-7.32 6.86 6.86 0 0 1 7.06 7.23v21.76a3.1 3.1 0 0 0 1.89 3.22c5.06 2.75 10 5.66 15.05 8.51a4.07 4.07 0 0 0 .8.22c-.36-3.5-.71-6.86-1-10.21-.31-3.06-.66-6.11-.88-9.17a8.68 8.68 0 0 1 4.61-8.65 9 9 0 0 1 10.36.59c4.31 3.13 8.57 6.32 12.85 9.49.75.54 1.51 1.06 2.45 1.73.05-.55.11-.89.11-1.24v-17.64a2.19 2.19 0 0 0-1.35-2.17c-6.13-3.44-12.24-6.92-18.37-10.34-2.17-1.21-4.08-2.59-4.74-5.16a6.81 6.81 0 0 1 2.46-7.51 6.66 6.66 0 0 1 7.65-.77c4.17 2.22 8.24 4.6 12.36 6.91.51.28 1 .53 1.86 1 0-1.78.08-3.24 0-4.69 0-.41-.56-.91-1-1.15q-15.39-8.75-30.81-17.45c-2.34-1.32-4.69-2.63-7-4a9.94 9.94 0 0 1 9.47-17.47c7.29 4 14.46 8.12 21.67 12.2l7.74 4.35v-6.85c0-2.14-.06-4.29 0-6.43a2.06 2.06 0 0 0-1.29-2.17q-9.84-5.47-19.63-11.05a7.17 7.17 0 0 1-2.79-10 7.29 7.29 0 0 1 10-2.5q6.28 3.6 12.59 7.16a8.08 8.08 0 0 0 1 .41c0-.7.07-1.27.07-1.83V6.4c0-3.72 2.55-6.4 6.05-6.41a6 6 0 0 1 6.12 6.35v16.85c2.11-1.17 4-2.21 5.87-3.26 2.67-1.52 5.32-3.08 8-4.56a7.28 7.28 0 0 1 9.87 2.72 7.17 7.17 0 0 1-2.79 9.83q-9.65 5.52-19.35 10.94a2.61 2.61 0 0 0-1.64 2.67c.1 4.17 0 8.34 0 12.84.8-.4 1.41-.68 2-1 8.78-5 17.61-9.88 26.34-15 6.28-3.67 13.9-.5 15.36 6.46a10 10 0 0 1-4.79 10.53Q168.51 66 149.66 76.69a2 2 0 0 0-1.22 2.08c.07 1.18 0 2.37 0 4l6.44-3.61c2.54-1.43 5.05-2.91 7.62-4.26a7.16 7.16 0 0 1 9.69 2.78 7 7 0 0 1-2.66 9.71c-6.4 3.73-12.87 7.35-19.34 11a2.84 2.84 0 0 0-1.79 2.91c.12 5.49 0 11 0 16.48v2a9.77 9.77 0 0 0 1.29-.63c4.57-3.32 9.15-6.64 13.7-10 4.16-3 8.68-3.26 12.3-.35s3.89 6.56 3.29 10.73c-.74 5.13-1.21 10.31-1.84 15.81 1.19-.66 2.13-1.17 3.06-1.7 4.19-2.41 8.34-4.87 12.56-7.22a2.14 2.14 0 0 0 1.23-2.22c-.07-7.58-.09-15.17-.1-22.75a7.11 7.11 0 0 1 5.87-7.11 7 7 0 0 1 8.08 5 29.31 29.31 0 0 1 .49 6.37c.08 3.63.06 7.25.08 10.88a4.24 4.24 0 0 0 .19.6 43.32 43.32 0 0 0 4.06-2.39c.37-.27.35-1.2.35-1.83q-.15-21.49-.33-43a9.76 9.76 0 0 1 6.1-9.16 9.95 9.95 0 0 1 13.8 9.19c0 10.21.18 20.43.28 30.64V103a16.52 16.52 0 0 0 1.58-.69c3.28-1.89 6.54-3.83 9.85-5.67a2.43 2.43 0 0 0 1.41-2.47q-.21-11-.29-22.07c0-4.42 3.16-7.76 7.26-7.71s7.11 3.24 7.17 7.66 0 8.79.05 13.19v2.28c2.91-1.65 5.52-3.12 8.11-4.61 2.28-1.31 4.54-2.67 6.82-4A6.06 6.06 0 0 1 283 81a5.92 5.92 0 0 1-1.82 8.25c-4.3 2.64-8.71 5.1-13.08 7.64-.56.33-1.1.69-2 1.22 2.42 1.44 4.6 2.74 6.79 4s4.57 2.62 6.81 4a7.22 7.22 0 0 1 2.74 9.73 7.06 7.06 0 0 1-9.81 2.76c-6.69-3.78-13.27-7.75-19.93-11.59a2.29 2.29 0 0 0-1.89-.13c-3.65 2-7.25 4.12-10.85 6.22a6 6 0 0 0-.8.68c1.77 1.06 3.39 2 5 3 7.67 4.5 15.3 9.07 23 13.48 7 4 7.13 13.4.64 17.37a9.72 9.72 0 0 1-10.49 0q-18.57-10.83-37.05-21.79a2 2 0 0 0-2.5.06c-1 .69-2 1.22-3.29 2l9.49 5.63 4 2.33a7.2 7.2 0 1 1-7.19 12.48q-9.82-5.72-19.58-11.53a1.83 1.83 0 0 0-2.2 0c-5.11 3-10.26 5.94-15.39 8.91-.41.23-.77.54-1.36 1 2.78 1.25 5.37 2.43 8 3.58 3.51 1.57 7.06 3 10.53 4.69a9 9 0 0 1 5.58 8.93c-.12 4.07-2.34 6.87-6 8.5-5.16 2.28-10.35 4.52-15.84 6.9.65.44 1.1.78 1.58 1.06 4.3 2.43 8.63 4.82 12.9 7.31a2.42 2.42 0 0 0 2.84-.08c6.24-3.8 12.51-7.54 18.76-11.31 5-3 10.61-.51 11.32 5.27a6.73 6.73 0 0 1-3.54 6.9q-6 3.62-12 7.2c-.36.22-.7.48-1.41 1 1.57.89 2.89 1.72 4.27 2.39.31.15.94-.18 1.34-.42q18.06-10.85 36.1-21.74c4.57-2.76 9.23-2.64 12.68.36a10 10 0 0 1-1.4 16.17c-7.59 4.63-15.24 9.17-22.86 13.75-1.78 1.07-3.54 2.15-5.55 3.37l7.61 4.37a2.93 2.93 0 0 1 .58.31c3.14 2.85 6 2.06 9.24-.18 5-3.4 10.29-6.3 15.46-9.42 3.73-2.25 8.3-1.35 10.28 2 2.28 3.88 1.1 8-2.95 10.39s-8 4.79-12 7.19c-.23.14-.43.33-.93.72 1.11.65 2.06 1.22 3 1.77 3.92 2.21 7.86 4.39 11.76 6.64a6.09 6.09 0 0 1-1.41 11.14 6.78 6.78 0 0 1-5.22-.85c-4.32-2.5-8.69-4.93-13-7.39-.28-.16-.57-.29-1.1-.56 0 .74-.09 1.31-.09 1.87v13.35c0 4.09-2.37 7-6.1 7.64a7.08 7.08 0 0 1-8.35-6.91q-.09-11.13 0-22.25a2.94 2.94 0 0 0-1.85-3.05c-3-1.55-5.83-3.29-8.75-4.93-.6-.35-1.24-.64-2.14-1.11 0 .92-.11 1.54-.11 2.16v30.83a9.93 9.93 0 0 1-15.22 8.58 9.13 9.13 0 0 1-4.59-7.74v-1.15c-.07-14.22-.16-28.45-.19-42.68a2.16 2.16 0 0 0-1.4-2.29c-1-.46-2-1.07-3.28-1.78v16.06a7.12 7.12 0 1 1-14.24.05v-22.75a2.08 2.08 0 0 0-1.13-2.13c-5.33-3-10.62-6-15.93-9a5.67 5.67 0 0 0-.72-.19c.17 1.92.33 3.74.51 5.55.51 5.18 1.21 10.35 1.49 15.55a9 9 0 0 1-10 9.76 9.9 9.9 0 0 1-4.7-1.72c-4.78-3.31-9.4-6.85-14.08-10.3-.39-.28-.8-.51-1.43-.91 0 .75-.11 1.27-.11 1.78v15.17a2.51 2.51 0 0 0 1.52 2.57c6.13 3.42 12.23 6.91 18.37 10.34 1.86 1 3.52 2.23 4.3 4.33a7.07 7.07 0 0 1-1.75 7.85 6.87 6.87 0 0 1-8.08 1.2c-4.12-2.19-8.14-4.55-12.21-6.84-.61-.34-1.23-.65-2.11-1.12a39.39 39.39 0 0 0 .06 4.67c.07.54.8 1.11 1.36 1.43q10.31 5.88 20.64 11.68l16.06 9.07c6.09 3.42 7.59 10.15 3.43 15.5a9.86 9.86 0 0 1-12.37 2.35c-7.07-3.89-14.06-7.92-21.08-11.89zm-21.67-134.55c.42 3.74.82 7 1.13 10.25.3 3.09.42 6.11-1.61 8.83-1.54 2.06-3.74 3-6 3.93l-9.27 4.05c3.88 1.73 7.44 3.3 11 4.89a9.31 9.31 0 0 1 5.94 9.67c-.08 1.53-.34 3.05-.5 4.57-.28 2.52-.54 5-.85 7.9.72-.48 1.13-.73 1.51-1 2.72-2 5.4-4 8.14-5.89 4.11-2.91 8.15-2.84 12.16.15q4 2.94 7.93 5.87a11.66 11.66 0 0 0 1.46.76c-.37-3.47-.58-6.58-1-9.64-1-6.36 1-10.22 6.59-12.58 2.83-1.2 5.64-2.43 8.46-3.66.45-.19.87-.46 1.61-.86-4-1.81-7.71-3.38-11.32-5.09a9.46 9.46 0 0 1-5.41-10.15c.33-2.55.63-5.1.92-7.66.13-1.2.2-2.41.32-4-.84.55-1.34.86-1.82 1.2-2.58 1.86-5.17 3.71-7.73 5.6a9.61 9.61 0 0 1-12 0c-3.11-2.33-6.19-4.57-9.66-7.14z" fill="#fff" data-name="Layer 1"/></g></svg>